solid 05_right_panel_lower
facet normal 0 0 -1
outer loop
vertex 0 0 0
vertex 215 150 0
vertex 215 0 0
endloop
endfacet
facet normal 0 0 -1
outer loop
vertex 0 0 0
vertex 0 150 0
vertex 215 150 0
endloop
endfacet
facet normal 0 0 1
outer loop
vertex 0 0 6
vertex 215 0 6
vertex 215 150 6
endloop
endfacet
facet normal 0 0 1
outer loop
vertex 0 0 6
vertex 215 150 6
vertex 0 150 6
endloop
endfacet
facet normal 0 -1 0
outer loop
vertex 0 0 0
vertex 215 0 0
vertex 215 0 6
endloop
endfacet
facet normal 0 -1 0
outer loop
vertex 0 0 0
vertex 215 0 6
vertex 0 0 6
endloop
endfacet
facet normal 1 0 0
outer loop
vertex 215 0 0
vertex 215 150 0
vertex 215 150 6
endloop
endfacet
facet normal 1 0 0
outer loop
vertex 215 0 0
vertex 215 150 6
vertex 215 0 6
endloop
endfacet
facet normal 0 1 0
outer loop
vertex 215 150 0
vertex 0 150 0
vertex 0 150 6
endloop
endfacet
facet normal 0 1 0
outer loop
vertex 215 150 0
vertex 0 150 6
vertex 215 150 6
endloop
endfacet
facet normal -1 0 0
outer loop
vertex 0 150 0
vertex 0 0 0
vertex 0 0 6
endloop
endfacet
facet normal -1 0 0
outer loop
vertex 0 150 0
vertex 0 0 6
vertex 0 150 6
endloop
endfacet
endsolid 05_right_panel_lower
