solid 10_billboard_post_2
facet normal 0 0 -1
outer loop
vertex 0 0 0
vertex 28 130 0
vertex 28 0 0
endloop
endfacet
facet normal 0 0 -1
outer loop
vertex 0 0 0
vertex 0 130 0
vertex 28 130 0
endloop
endfacet
facet normal 0 0 1
outer loop
vertex 0 0 6
vertex 28 0 6
vertex 28 130 6
endloop
endfacet
facet normal 0 0 1
outer loop
vertex 0 0 6
vertex 28 130 6
vertex 0 130 6
endloop
endfacet
facet normal 0 -1 0
outer loop
vertex 0 0 0
vertex 28 0 0
vertex 28 0 6
endloop
endfacet
facet normal 0 -1 0
outer loop
vertex 0 0 0
vertex 28 0 6
vertex 0 0 6
endloop
endfacet
facet normal 1 0 0
outer loop
vertex 28 0 0
vertex 28 130 0
vertex 28 130 6
endloop
endfacet
facet normal 1 0 0
outer loop
vertex 28 0 0
vertex 28 130 6
vertex 28 0 6
endloop
endfacet
facet normal 0 1 0
outer loop
vertex 28 130 0
vertex 0 130 0
vertex 0 130 6
endloop
endfacet
facet normal 0 1 0
outer loop
vertex 28 130 0
vertex 0 130 6
vertex 28 130 6
endloop
endfacet
facet normal -1 0 0
outer loop
vertex 0 130 0
vertex 0 0 0
vertex 0 0 6
endloop
endfacet
facet normal -1 0 0
outer loop
vertex 0 130 0
vertex 0 0 6
vertex 0 130 6
endloop
endfacet
endsolid 10_billboard_post_2
