solid 
 facet normal -1.000000e+00  0.000000e+00  0.000000e+00
   outer loop
     vertex  2.580000e+02  2.200000e+02  3.300000e+02
     vertex  2.580000e+02  2.260000e+02  1.800000e+02
     vertex  2.580000e+02  2.200000e+02  1.800000e+02
   endloop
 endfacet
 facet normal -1.000000e+00  0.000000e+00  0.000000e+00
   outer loop
     vertex  2.580000e+02  2.200000e+02  3.300000e+02
     vertex  2.580000e+02  2.260000e+02  3.300000e+02
     vertex  2.580000e+02  2.260000e+02  1.800000e+02
   endloop
 endfacet
 facet normal  1.000000e+00  0.000000e+00  0.000000e+00
   outer loop
     vertex  2.820000e+02  2.200000e+02  3.300000e+02
     vertex  2.820000e+02  2.200000e+02  1.800000e+02
     vertex  2.820000e+02  2.260000e+02  1.800000e+02
   endloop
 endfacet
 facet normal  1.000000e+00 -0.000000e+00  0.000000e+00
   outer loop
     vertex  2.820000e+02  2.200000e+02  3.300000e+02
     vertex  2.820000e+02  2.260000e+02  1.800000e+02
     vertex  2.820000e+02  2.260000e+02  3.300000e+02
   endloop
 endfacet
 facet normal  0.000000e+00 -1.000000e+00 -0.000000e+00
   outer loop
     vertex  2.820000e+02  2.200000e+02  3.300000e+02
     vertex  2.580000e+02  2.200000e+02  1.800000e+02
     vertex  2.820000e+02  2.200000e+02  1.800000e+02
   endloop
 endfacet
 facet normal -0.000000e+00 -1.000000e+00  0.000000e+00
   outer loop
     vertex  2.820000e+02  2.200000e+02  3.300000e+02
     vertex  2.580000e+02  2.200000e+02  3.300000e+02
     vertex  2.580000e+02  2.200000e+02  1.800000e+02
   endloop
 endfacet
 facet normal  0.000000e+00  1.000000e+00  0.000000e+00
   outer loop
     vertex  2.820000e+02  2.260000e+02  3.300000e+02
     vertex  2.820000e+02  2.260000e+02  1.800000e+02
     vertex  2.580000e+02  2.260000e+02  1.800000e+02
   endloop
 endfacet
 facet normal  0.000000e+00  1.000000e+00  0.000000e+00
   outer loop
     vertex  2.820000e+02  2.260000e+02  3.300000e+02
     vertex  2.580000e+02  2.260000e+02  1.800000e+02
     vertex  2.580000e+02  2.260000e+02  3.300000e+02
   endloop
 endfacet
 facet normal  0.000000e+00  0.000000e+00 -1.000000e+00
   outer loop
     vertex  2.820000e+02  2.200000e+02  1.800000e+02
     vertex  2.580000e+02  2.200000e+02  1.800000e+02
     vertex  2.580000e+02  2.260000e+02  1.800000e+02
   endloop
 endfacet
 facet normal -0.000000e+00 -0.000000e+00 -1.000000e+00
   outer loop
     vertex  2.820000e+02  2.260000e+02  1.800000e+02
     vertex  2.820000e+02  2.200000e+02  1.800000e+02
     vertex  2.580000e+02  2.260000e+02  1.800000e+02
   endloop
 endfacet
 facet normal  0.000000e+00  0.000000e+00  1.000000e+00
   outer loop
     vertex  2.820000e+02  2.200000e+02  3.300000e+02
     vertex  2.580000e+02  2.260000e+02  3.300000e+02
     vertex  2.580000e+02  2.200000e+02  3.300000e+02
   endloop
 endfacet
 facet normal  0.000000e+00  0.000000e+00  1.000000e+00
   outer loop
     vertex  2.820000e+02  2.260000e+02  3.300000e+02
     vertex  2.580000e+02  2.260000e+02  3.300000e+02
     vertex  2.820000e+02  2.200000e+02  3.300000e+02
   endloop
 endfacet
endsolid
