solid 
 facet normal -1.000000e+00  0.000000e+00 -0.000000e+00
   outer loop
     vertex  1.550000e+02  2.290000e+02  3.800000e+02
     vertex  1.550000e+02  2.290000e+02  3.440000e+02
     vertex  1.550000e+02  2.260000e+02  3.440000e+02
   endloop
 endfacet
 facet normal -1.000000e+00  0.000000e+00  0.000000e+00
   outer loop
     vertex  1.550000e+02  2.260000e+02  3.800000e+02
     vertex  1.550000e+02  2.290000e+02  3.800000e+02
     vertex  1.550000e+02  2.260000e+02  3.440000e+02
   endloop
 endfacet
 facet normal  1.000000e+00  0.000000e+00  0.000000e+00
   outer loop
     vertex  2.050000e+02  2.290000e+02  3.800000e+02
     vertex  2.050000e+02  2.260000e+02  3.440000e+02
     vertex  2.050000e+02  2.290000e+02  3.440000e+02
   endloop
 endfacet
 facet normal  1.000000e+00 -0.000000e+00  0.000000e+00
   outer loop
     vertex  2.050000e+02  2.260000e+02  3.800000e+02
     vertex  2.050000e+02  2.260000e+02  3.440000e+02
     vertex  2.050000e+02  2.290000e+02  3.800000e+02
   endloop
 endfacet
 facet normal  0.000000e+00 -1.000000e+00  0.000000e+00
   outer loop
     vertex  2.050000e+02  2.260000e+02  3.440000e+02
     vertex  1.550000e+02  2.260000e+02  3.800000e+02
     vertex  1.550000e+02  2.260000e+02  3.440000e+02
   endloop
 endfacet
 facet normal -0.000000e+00 -1.000000e+00 -0.000000e+00
   outer loop
     vertex  2.050000e+02  2.260000e+02  3.800000e+02
     vertex  1.550000e+02  2.260000e+02  3.800000e+02
     vertex  2.050000e+02  2.260000e+02  3.440000e+02
   endloop
 endfacet
 facet normal  0.000000e+00  1.000000e+00  0.000000e+00
   outer loop
     vertex  2.050000e+02  2.290000e+02  3.440000e+02
     vertex  1.550000e+02  2.290000e+02  3.440000e+02
     vertex  1.550000e+02  2.290000e+02  3.800000e+02
   endloop
 endfacet
 facet normal  0.000000e+00  1.000000e+00  0.000000e+00
   outer loop
     vertex  2.050000e+02  2.290000e+02  3.800000e+02
     vertex  2.050000e+02  2.290000e+02  3.440000e+02
     vertex  1.550000e+02  2.290000e+02  3.800000e+02
   endloop
 endfacet
 facet normal -0.000000e+00  0.000000e+00 -1.000000e+00
   outer loop
     vertex  2.050000e+02  2.290000e+02  3.440000e+02
     vertex  1.550000e+02  2.260000e+02  3.440000e+02
     vertex  1.550000e+02  2.290000e+02  3.440000e+02
   endloop
 endfacet
 facet normal  0.000000e+00 -0.000000e+00 -1.000000e+00
   outer loop
     vertex  2.050000e+02  2.290000e+02  3.440000e+02
     vertex  2.050000e+02  2.260000e+02  3.440000e+02
     vertex  1.550000e+02  2.260000e+02  3.440000e+02
   endloop
 endfacet
 facet normal  0.000000e+00  0.000000e+00  1.000000e+00
   outer loop
     vertex  2.050000e+02  2.290000e+02  3.800000e+02
     vertex  1.550000e+02  2.290000e+02  3.800000e+02
     vertex  1.550000e+02  2.260000e+02  3.800000e+02
   endloop
 endfacet
 facet normal  0.000000e+00  0.000000e+00  1.000000e+00
   outer loop
     vertex  2.050000e+02  2.290000e+02  3.800000e+02
     vertex  1.550000e+02  2.260000e+02  3.800000e+02
     vertex  2.050000e+02  2.260000e+02  3.800000e+02
   endloop
 endfacet
endsolid
