solid 
 facet normal -1.000000e+00  0.000000e+00 -0.000000e+00
   outer loop
     vertex  0.000000e+00  2.260000e+02  3.640000e+02
     vertex  0.000000e+00  2.260000e+02  3.000000e+02
     vertex  0.000000e+00  2.200000e+02  3.000000e+02
   endloop
 endfacet
 facet normal -1.000000e+00  0.000000e+00  0.000000e+00
   outer loop
     vertex  0.000000e+00  2.200000e+02  3.640000e+02
     vertex  0.000000e+00  2.260000e+02  3.640000e+02
     vertex  0.000000e+00  2.200000e+02  3.000000e+02
   endloop
 endfacet
 facet normal  1.000000e+00  0.000000e+00  0.000000e+00
   outer loop
     vertex  1.800000e+02  2.260000e+02  3.640000e+02
     vertex  1.800000e+02  2.200000e+02  3.000000e+02
     vertex  1.800000e+02  2.260000e+02  3.000000e+02
   endloop
 endfacet
 facet normal  1.000000e+00 -0.000000e+00  0.000000e+00
   outer loop
     vertex  1.800000e+02  2.200000e+02  3.640000e+02
     vertex  1.800000e+02  2.200000e+02  3.000000e+02
     vertex  1.800000e+02  2.260000e+02  3.640000e+02
   endloop
 endfacet
 facet normal  0.000000e+00 -1.000000e+00  0.000000e+00
   outer loop
     vertex  1.800000e+02  2.200000e+02  3.000000e+02
     vertex  0.000000e+00  2.200000e+02  3.640000e+02
     vertex  0.000000e+00  2.200000e+02  3.000000e+02
   endloop
 endfacet
 facet normal -0.000000e+00 -1.000000e+00 -0.000000e+00
   outer loop
     vertex  1.800000e+02  2.200000e+02  3.640000e+02
     vertex  0.000000e+00  2.200000e+02  3.640000e+02
     vertex  1.800000e+02  2.200000e+02  3.000000e+02
   endloop
 endfacet
 facet normal  0.000000e+00  1.000000e+00  0.000000e+00
   outer loop
     vertex  1.800000e+02  2.260000e+02  3.000000e+02
     vertex  0.000000e+00  2.260000e+02  3.000000e+02
     vertex  0.000000e+00  2.260000e+02  3.640000e+02
   endloop
 endfacet
 facet normal  0.000000e+00  1.000000e+00  0.000000e+00
   outer loop
     vertex  1.800000e+02  2.260000e+02  3.640000e+02
     vertex  1.800000e+02  2.260000e+02  3.000000e+02
     vertex  0.000000e+00  2.260000e+02  3.640000e+02
   endloop
 endfacet
 facet normal  0.000000e+00  0.000000e+00 -1.000000e+00
   outer loop
     vertex  1.800000e+02  2.200000e+02  3.000000e+02
     vertex  0.000000e+00  2.200000e+02  3.000000e+02
     vertex  0.000000e+00  2.260000e+02  3.000000e+02
   endloop
 endfacet
 facet normal -0.000000e+00 -0.000000e+00 -1.000000e+00
   outer loop
     vertex  1.800000e+02  2.260000e+02  3.000000e+02
     vertex  1.800000e+02  2.200000e+02  3.000000e+02
     vertex  0.000000e+00  2.260000e+02  3.000000e+02
   endloop
 endfacet
 facet normal  0.000000e+00  0.000000e+00  1.000000e+00
   outer loop
     vertex  1.800000e+02  2.200000e+02  3.640000e+02
     vertex  0.000000e+00  2.260000e+02  3.640000e+02
     vertex  0.000000e+00  2.200000e+02  3.640000e+02
   endloop
 endfacet
 facet normal  0.000000e+00  0.000000e+00  1.000000e+00
   outer loop
     vertex  1.800000e+02  2.260000e+02  3.640000e+02
     vertex  0.000000e+00  2.260000e+02  3.640000e+02
     vertex  1.800000e+02  2.200000e+02  3.640000e+02
   endloop
 endfacet
endsolid
