solid 
 facet normal -1.000000e+00  0.000000e+00  0.000000e+00
   outer loop
     vertex  1.560000e+02  5.500000e+01  1.890000e+02
     vertex  1.560000e+02  1.650000e+02  1.920000e+02
     vertex  1.560000e+02  1.650000e+02  1.890000e+02
   endloop
 endfacet
 facet normal -1.000000e+00  0.000000e+00  0.000000e+00
   outer loop
     vertex  1.560000e+02  5.500000e+01  1.920000e+02
     vertex  1.560000e+02  1.650000e+02  1.920000e+02
     vertex  1.560000e+02  5.500000e+01  1.890000e+02
   endloop
 endfacet
 facet normal  1.000000e+00  0.000000e+00  0.000000e+00
   outer loop
     vertex  2.040000e+02  5.500000e+01  1.890000e+02
     vertex  2.040000e+02  1.650000e+02  1.890000e+02
     vertex  2.040000e+02  1.650000e+02  1.920000e+02
   endloop
 endfacet
 facet normal  1.000000e+00 -0.000000e+00  0.000000e+00
   outer loop
     vertex  2.040000e+02  5.500000e+01  1.920000e+02
     vertex  2.040000e+02  5.500000e+01  1.890000e+02
     vertex  2.040000e+02  1.650000e+02  1.920000e+02
   endloop
 endfacet
 facet normal  0.000000e+00 -1.000000e+00 -0.000000e+00
   outer loop
     vertex  2.040000e+02  5.500000e+01  1.920000e+02
     vertex  1.560000e+02  5.500000e+01  1.890000e+02
     vertex  2.040000e+02  5.500000e+01  1.890000e+02
   endloop
 endfacet
 facet normal -0.000000e+00 -1.000000e+00  0.000000e+00
   outer loop
     vertex  2.040000e+02  5.500000e+01  1.920000e+02
     vertex  1.560000e+02  5.500000e+01  1.920000e+02
     vertex  1.560000e+02  5.500000e+01  1.890000e+02
   endloop
 endfacet
 facet normal  0.000000e+00  1.000000e+00  0.000000e+00
   outer loop
     vertex  2.040000e+02  1.650000e+02  1.920000e+02
     vertex  2.040000e+02  1.650000e+02  1.890000e+02
     vertex  1.560000e+02  1.650000e+02  1.890000e+02
   endloop
 endfacet
 facet normal  0.000000e+00  1.000000e+00  0.000000e+00
   outer loop
     vertex  2.040000e+02  1.650000e+02  1.920000e+02
     vertex  1.560000e+02  1.650000e+02  1.890000e+02
     vertex  1.560000e+02  1.650000e+02  1.920000e+02
   endloop
 endfacet
 facet normal  0.000000e+00  0.000000e+00 -1.000000e+00
   outer loop
     vertex  1.560000e+02  1.650000e+02  1.890000e+02
     vertex  2.040000e+02  5.500000e+01  1.890000e+02
     vertex  1.560000e+02  5.500000e+01  1.890000e+02
   endloop
 endfacet
 facet normal -0.000000e+00 -0.000000e+00 -1.000000e+00
   outer loop
     vertex  2.040000e+02  1.650000e+02  1.890000e+02
     vertex  2.040000e+02  5.500000e+01  1.890000e+02
     vertex  1.560000e+02  1.650000e+02  1.890000e+02
   endloop
 endfacet
 facet normal  0.000000e+00  0.000000e+00  1.000000e+00
   outer loop
     vertex  1.560000e+02  1.650000e+02  1.920000e+02
     vertex  1.560000e+02  5.500000e+01  1.920000e+02
     vertex  2.040000e+02  5.500000e+01  1.920000e+02
   endloop
 endfacet
 facet normal  0.000000e+00  0.000000e+00  1.000000e+00
   outer loop
     vertex  2.040000e+02  1.650000e+02  1.920000e+02
     vertex  1.560000e+02  1.650000e+02  1.920000e+02
     vertex  2.040000e+02  5.500000e+01  1.920000e+02
   endloop
 endfacet
endsolid
