solid 
 facet normal  1.000000e+00  0.000000e+00  0.000000e+00
   outer loop
     vertex  1.800000e+02  1.510000e+02  1.290000e+02
     vertex  1.800000e+02  6.400000e+01  1.340000e+02
     vertex  1.800000e+02  6.400000e+01  1.290000e+02
   endloop
 endfacet
 facet normal  1.000000e+00  0.000000e+00 -0.000000e+00
   outer loop
     vertex  1.800000e+02  1.510000e+02  1.290000e+02
     vertex  1.800000e+02  1.510000e+02  1.340000e+02
     vertex  1.800000e+02  6.400000e+01  1.340000e+02
   endloop
 endfacet
 facet normal  0.000000e+00 -1.000000e+00 -0.000000e+00
   outer loop
     vertex  1.898000e+02  1.510000e+02  1.340000e+02
     vertex  1.800000e+02  1.510000e+02  1.290000e+02
     vertex  1.898000e+02  1.510000e+02  1.290000e+02
   endloop
 endfacet
 facet normal -0.000000e+00 -1.000000e+00  0.000000e+00
   outer loop
     vertex  1.898000e+02  1.510000e+02  1.340000e+02
     vertex  1.800000e+02  1.510000e+02  1.340000e+02
     vertex  1.800000e+02  1.510000e+02  1.290000e+02
   endloop
 endfacet
 facet normal  0.000000e+00  1.000000e+00  0.000000e+00
   outer loop
     vertex  1.898000e+02  6.400000e+01  1.340000e+02
     vertex  1.898000e+02  6.400000e+01  1.290000e+02
     vertex  1.800000e+02  6.400000e+01  1.290000e+02
   endloop
 endfacet
 facet normal  0.000000e+00  1.000000e+00  0.000000e+00
   outer loop
     vertex  1.898000e+02  6.400000e+01  1.340000e+02
     vertex  1.800000e+02  6.400000e+01  1.290000e+02
     vertex  1.800000e+02  6.400000e+01  1.340000e+02
   endloop
 endfacet
 facet normal  1.000000e+00  0.000000e+00  0.000000e+00
   outer loop
     vertex  1.898000e+02  1.510000e+02  1.340000e+02
     vertex  1.898000e+02  1.510000e+02  1.290000e+02
     vertex  1.898000e+02  1.690000e+02  1.290000e+02
   endloop
 endfacet
 facet normal  1.000000e+00 -0.000000e+00  0.000000e+00
   outer loop
     vertex  1.898000e+02  1.510000e+02  1.340000e+02
     vertex  1.898000e+02  1.690000e+02  1.290000e+02
     vertex  1.898000e+02  1.690000e+02  1.340000e+02
   endloop
 endfacet
 facet normal  0.000000e+00 -1.000000e+00  0.000000e+00
   outer loop
     vertex  1.530000e+02  0.000000e+00  1.290000e+02
     vertex  0.000000e+00  0.000000e+00  1.340000e+02
     vertex  0.000000e+00  0.000000e+00  1.290000e+02
   endloop
 endfacet
 facet normal  0.000000e+00 -1.000000e+00  0.000000e+00
   outer loop
     vertex  1.530000e+02  0.000000e+00  1.290000e+02
     vertex  1.530000e+02  0.000000e+00  1.340000e+02
     vertex  0.000000e+00  0.000000e+00  1.340000e+02
   endloop
 endfacet
 facet normal -1.000000e+00  0.000000e+00  0.000000e+00
   outer loop
     vertex  0.000000e+00  0.000000e+00  1.290000e+02
     vertex  0.000000e+00  2.150000e+02  1.340000e+02
     vertex  0.000000e+00  2.150000e+02  1.290000e+02
   endloop
 endfacet
 facet normal -1.000000e+00  0.000000e+00  0.000000e+00
   outer loop
     vertex  0.000000e+00  0.000000e+00  1.290000e+02
     vertex  0.000000e+00  0.000000e+00  1.340000e+02
     vertex  0.000000e+00  2.150000e+02  1.340000e+02
   endloop
 endfacet
 facet normal  1.000000e+00  0.000000e+00  0.000000e+00
   outer loop
     vertex  1.530000e+02  1.700000e+01  1.290000e+02
     vertex  1.530000e+02  0.000000e+00  1.340000e+02
     vertex  1.530000e+02  0.000000e+00  1.290000e+02
   endloop
 endfacet
 facet normal  1.000000e+00  0.000000e+00 -0.000000e+00
   outer loop
     vertex  1.530000e+02  1.700000e+01  1.290000e+02
     vertex  1.530000e+02  1.700000e+01  1.340000e+02
     vertex  1.530000e+02  0.000000e+00  1.340000e+02
   endloop
 endfacet
 facet normal  0.000000e+00  1.000000e+00  0.000000e+00
   outer loop
     vertex  0.000000e+00  2.150000e+02  1.290000e+02
     vertex  1.530000e+02  2.150000e+02  1.340000e+02
     vertex  1.530000e+02  2.150000e+02  1.290000e+02
   endloop
 endfacet
 facet normal  0.000000e+00  1.000000e+00  0.000000e+00
   outer loop
     vertex  0.000000e+00  2.150000e+02  1.290000e+02
     vertex  0.000000e+00  2.150000e+02  1.340000e+02
     vertex  1.530000e+02  2.150000e+02  1.340000e+02
   endloop
 endfacet
 facet normal  0.000000e+00 -1.000000e+00  0.000000e+00
   outer loop
     vertex  1.670000e+02  1.700000e+01  1.290000e+02
     vertex  1.530000e+02  1.700000e+01  1.340000e+02
     vertex  1.530000e+02  1.700000e+01  1.290000e+02
   endloop
 endfacet
 facet normal  0.000000e+00 -1.000000e+00  0.000000e+00
   outer loop
     vertex  1.670000e+02  1.700000e+01  1.290000e+02
     vertex  1.670000e+02  1.700000e+01  1.340000e+02
     vertex  1.530000e+02  1.700000e+01  1.340000e+02
   endloop
 endfacet
 facet normal  1.000000e+00  0.000000e+00  0.000000e+00
   outer loop
     vertex  1.530000e+02  2.150000e+02  1.290000e+02
     vertex  1.530000e+02  1.880000e+02  1.340000e+02
     vertex  1.530000e+02  1.880000e+02  1.290000e+02
   endloop
 endfacet
 facet normal  1.000000e+00  0.000000e+00 -0.000000e+00
   outer loop
     vertex  1.530000e+02  2.150000e+02  1.290000e+02
     vertex  1.530000e+02  2.150000e+02  1.340000e+02
     vertex  1.530000e+02  1.880000e+02  1.340000e+02
   endloop
 endfacet
 facet normal  0.000000e+00  1.000000e+00  0.000000e+00
   outer loop
     vertex  1.530000e+02  1.880000e+02  1.290000e+02
     vertex  1.670000e+02  1.880000e+02  1.340000e+02
     vertex  1.670000e+02  1.880000e+02  1.290000e+02
   endloop
 endfacet
 facet normal  0.000000e+00  1.000000e+00  0.000000e+00
   outer loop
     vertex  1.530000e+02  1.880000e+02  1.290000e+02
     vertex  1.530000e+02  1.880000e+02  1.340000e+02
     vertex  1.670000e+02  1.880000e+02  1.340000e+02
   endloop
 endfacet
 facet normal -1.000000e+00  0.000000e+00  0.000000e+00
   outer loop
     vertex  1.670000e+02  1.880000e+02  1.290000e+02
     vertex  1.670000e+02  2.150000e+02  1.340000e+02
     vertex  1.670000e+02  2.150000e+02  1.290000e+02
   endloop
 endfacet
 facet normal -1.000000e+00  0.000000e+00  0.000000e+00
   outer loop
     vertex  1.670000e+02  1.880000e+02  1.290000e+02
     vertex  1.670000e+02  1.880000e+02  1.340000e+02
     vertex  1.670000e+02  2.150000e+02  1.340000e+02
   endloop
 endfacet
 facet normal -0.000000e+00  1.000000e+00  0.000000e+00
   outer loop
     vertex  1.670000e+02  2.150000e+02  1.340000e+02
     vertex  1.800000e+02  2.150000e+02  1.340000e+02
     vertex  1.800000e+02  2.150000e+02  1.290000e+02
   endloop
 endfacet
 facet normal  0.000000e+00  1.000000e+00  0.000000e+00
   outer loop
     vertex  1.670000e+02  2.150000e+02  1.290000e+02
     vertex  1.670000e+02  2.150000e+02  1.340000e+02
     vertex  1.800000e+02  2.150000e+02  1.290000e+02
   endloop
 endfacet
 facet normal  1.000000e+00  0.000000e+00  0.000000e+00
   outer loop
     vertex  1.800000e+02  2.150000e+02  1.290000e+02
     vertex  1.800000e+02  1.690000e+02  1.340000e+02
     vertex  1.800000e+02  1.690000e+02  1.290000e+02
   endloop
 endfacet
 facet normal  1.000000e+00  0.000000e+00 -0.000000e+00
   outer loop
     vertex  1.800000e+02  2.150000e+02  1.290000e+02
     vertex  1.800000e+02  2.150000e+02  1.340000e+02
     vertex  1.800000e+02  1.690000e+02  1.340000e+02
   endloop
 endfacet
 facet normal -1.000000e+00  0.000000e+00  0.000000e+00
   outer loop
     vertex  1.670000e+02  0.000000e+00  1.290000e+02
     vertex  1.670000e+02  1.700000e+01  1.340000e+02
     vertex  1.670000e+02  1.700000e+01  1.290000e+02
   endloop
 endfacet
 facet normal -1.000000e+00  0.000000e+00  0.000000e+00
   outer loop
     vertex  1.670000e+02  0.000000e+00  1.290000e+02
     vertex  1.670000e+02  0.000000e+00  1.340000e+02
     vertex  1.670000e+02  1.700000e+01  1.340000e+02
   endloop
 endfacet
 facet normal  1.000000e+00  0.000000e+00  0.000000e+00
   outer loop
     vertex  1.800000e+02  4.600000e+01  1.340000e+02
     vertex  1.800000e+02  0.000000e+00  1.340000e+02
     vertex  1.800000e+02  0.000000e+00  1.290000e+02
   endloop
 endfacet
 facet normal  1.000000e+00  0.000000e+00 -0.000000e+00
   outer loop
     vertex  1.800000e+02  4.600000e+01  1.290000e+02
     vertex  1.800000e+02  4.600000e+01  1.340000e+02
     vertex  1.800000e+02  0.000000e+00  1.290000e+02
   endloop
 endfacet
 facet normal -0.000000e+00 -1.000000e+00  0.000000e+00
   outer loop
     vertex  1.800000e+02  0.000000e+00  1.340000e+02
     vertex  1.670000e+02  0.000000e+00  1.340000e+02
     vertex  1.670000e+02  0.000000e+00  1.290000e+02
   endloop
 endfacet
 facet normal  0.000000e+00 -1.000000e+00  0.000000e+00
   outer loop
     vertex  1.800000e+02  0.000000e+00  1.290000e+02
     vertex  1.800000e+02  0.000000e+00  1.340000e+02
     vertex  1.670000e+02  0.000000e+00  1.290000e+02
   endloop
 endfacet
 facet normal  0.000000e+00  1.000000e+00  0.000000e+00
   outer loop
     vertex  1.898000e+02  1.690000e+02  1.340000e+02
     vertex  1.898000e+02  1.690000e+02  1.290000e+02
     vertex  1.800000e+02  1.690000e+02  1.290000e+02
   endloop
 endfacet
 facet normal  0.000000e+00  1.000000e+00  0.000000e+00
   outer loop
     vertex  1.898000e+02  1.690000e+02  1.340000e+02
     vertex  1.800000e+02  1.690000e+02  1.290000e+02
     vertex  1.800000e+02  1.690000e+02  1.340000e+02
   endloop
 endfacet
 facet normal  0.000000e+00 -1.000000e+00 -0.000000e+00
   outer loop
     vertex  1.898000e+02  4.600000e+01  1.340000e+02
     vertex  1.800000e+02  4.600000e+01  1.290000e+02
     vertex  1.898000e+02  4.600000e+01  1.290000e+02
   endloop
 endfacet
 facet normal -0.000000e+00 -1.000000e+00  0.000000e+00
   outer loop
     vertex  1.898000e+02  4.600000e+01  1.340000e+02
     vertex  1.800000e+02  4.600000e+01  1.340000e+02
     vertex  1.800000e+02  4.600000e+01  1.290000e+02
   endloop
 endfacet
 facet normal  1.000000e+00  0.000000e+00  0.000000e+00
   outer loop
     vertex  1.898000e+02  4.600000e+01  1.340000e+02
     vertex  1.898000e+02  4.600000e+01  1.290000e+02
     vertex  1.898000e+02  6.400000e+01  1.290000e+02
   endloop
 endfacet
 facet normal  1.000000e+00 -0.000000e+00  0.000000e+00
   outer loop
     vertex  1.898000e+02  4.600000e+01  1.340000e+02
     vertex  1.898000e+02  6.400000e+01  1.290000e+02
     vertex  1.898000e+02  6.400000e+01  1.340000e+02
   endloop
 endfacet
 facet normal  0.000000e+00  0.000000e+00 -1.000000e+00
   outer loop
     vertex  1.670000e+02  1.700000e+01  1.290000e+02
     vertex  1.800000e+02  0.000000e+00  1.290000e+02
     vertex  1.670000e+02  0.000000e+00  1.290000e+02
   endloop
 endfacet
 facet normal  0.000000e+00  0.000000e+00 -1.000000e+00
   outer loop
     vertex  1.800000e+02  4.600000e+01  1.290000e+02
     vertex  1.670000e+02  1.700000e+01  1.290000e+02
     vertex  1.530000e+02  1.700000e+01  1.290000e+02
   endloop
 endfacet
 facet normal  0.000000e+00  0.000000e+00 -1.000000e+00
   outer loop
     vertex  1.800000e+02  6.400000e+01  1.290000e+02
     vertex  1.898000e+02  6.400000e+01  1.290000e+02
     vertex  1.898000e+02  4.600000e+01  1.290000e+02
   endloop
 endfacet
 facet normal  0.000000e+00  0.000000e+00 -1.000000e+00
   outer loop
     vertex  1.800000e+02  6.400000e+01  1.290000e+02
     vertex  1.898000e+02  4.600000e+01  1.290000e+02
     vertex  1.800000e+02  4.600000e+01  1.290000e+02
   endloop
 endfacet
 facet normal  0.000000e+00 -0.000000e+00 -1.000000e+00
   outer loop
     vertex  1.800000e+02  6.400000e+01  1.290000e+02
     vertex  1.800000e+02  4.600000e+01  1.290000e+02
     vertex  1.530000e+02  1.700000e+01  1.290000e+02
   endloop
 endfacet
 facet normal  0.000000e+00  0.000000e+00 -1.000000e+00
   outer loop
     vertex  1.800000e+02  1.690000e+02  1.290000e+02
     vertex  1.898000e+02  1.690000e+02  1.290000e+02
     vertex  1.898000e+02  1.510000e+02  1.290000e+02
   endloop
 endfacet
 facet normal  0.000000e+00  0.000000e+00 -1.000000e+00
   outer loop
     vertex  1.800000e+02  1.690000e+02  1.290000e+02
     vertex  1.898000e+02  1.510000e+02  1.290000e+02
     vertex  1.800000e+02  1.510000e+02  1.290000e+02
   endloop
 endfacet
 facet normal  0.000000e+00  0.000000e+00 -1.000000e+00
   outer loop
     vertex  0.000000e+00  0.000000e+00  1.290000e+02
     vertex  1.530000e+02  1.700000e+01  1.290000e+02
     vertex  1.530000e+02  0.000000e+00  1.290000e+02
   endloop
 endfacet
 facet normal  0.000000e+00  0.000000e+00 -1.000000e+00
   outer loop
     vertex  0.000000e+00  0.000000e+00  1.290000e+02
     vertex  1.800000e+02  6.400000e+01  1.290000e+02
     vertex  1.530000e+02  1.700000e+01  1.290000e+02
   endloop
 endfacet
 facet normal  0.000000e+00  0.000000e+00 -1.000000e+00
   outer loop
     vertex  1.530000e+02  1.880000e+02  1.290000e+02
     vertex  1.800000e+02  1.510000e+02  1.290000e+02
     vertex  1.800000e+02  6.400000e+01  1.290000e+02
   endloop
 endfacet
 facet normal  0.000000e+00  0.000000e+00 -1.000000e+00
   outer loop
     vertex  1.530000e+02  1.880000e+02  1.290000e+02
     vertex  1.800000e+02  1.690000e+02  1.290000e+02
     vertex  1.800000e+02  1.510000e+02  1.290000e+02
   endloop
 endfacet
 facet normal  0.000000e+00 -0.000000e+00 -1.000000e+00
   outer loop
     vertex  1.530000e+02  1.880000e+02  1.290000e+02
     vertex  1.800000e+02  6.400000e+01  1.290000e+02
     vertex  0.000000e+00  0.000000e+00  1.290000e+02
   endloop
 endfacet
 facet normal  0.000000e+00  0.000000e+00 -1.000000e+00
   outer loop
     vertex  1.530000e+02  1.880000e+02  1.290000e+02
     vertex  1.670000e+02  1.880000e+02  1.290000e+02
     vertex  1.800000e+02  1.690000e+02  1.290000e+02
   endloop
 endfacet
 facet normal  0.000000e+00  0.000000e+00 -1.000000e+00
   outer loop
     vertex  1.670000e+02  2.150000e+02  1.290000e+02
     vertex  1.800000e+02  2.150000e+02  1.290000e+02
     vertex  1.670000e+02  1.880000e+02  1.290000e+02
   endloop
 endfacet
 facet normal  0.000000e+00  0.000000e+00 -1.000000e+00
   outer loop
     vertex  0.000000e+00  2.150000e+02  1.290000e+02
     vertex  1.530000e+02  2.150000e+02  1.290000e+02
     vertex  1.530000e+02  1.880000e+02  1.290000e+02
   endloop
 endfacet
 facet normal  0.000000e+00  0.000000e+00 -1.000000e+00
   outer loop
     vertex  0.000000e+00  2.150000e+02  1.290000e+02
     vertex  1.530000e+02  1.880000e+02  1.290000e+02
     vertex  0.000000e+00  0.000000e+00  1.290000e+02
   endloop
 endfacet
 facet normal  0.000000e+00 -0.000000e+00 -1.000000e+00
   outer loop
     vertex  1.800000e+02  2.150000e+02  1.290000e+02
     vertex  1.800000e+02  1.690000e+02  1.290000e+02
     vertex  1.670000e+02  1.880000e+02  1.290000e+02
   endloop
 endfacet
 facet normal  0.000000e+00 -0.000000e+00 -1.000000e+00
   outer loop
     vertex  1.800000e+02  4.600000e+01  1.290000e+02
     vertex  1.800000e+02  0.000000e+00  1.290000e+02
     vertex  1.670000e+02  1.700000e+01  1.290000e+02
   endloop
 endfacet
 facet normal  0.000000e+00  0.000000e+00  1.000000e+00
   outer loop
     vertex  1.530000e+02  1.700000e+01  1.340000e+02
     vertex  0.000000e+00  0.000000e+00  1.340000e+02
     vertex  1.530000e+02  0.000000e+00  1.340000e+02
   endloop
 endfacet
 facet normal  0.000000e+00  0.000000e+00  1.000000e+00
   outer loop
     vertex  1.670000e+02  1.700000e+01  1.340000e+02
     vertex  1.670000e+02  0.000000e+00  1.340000e+02
     vertex  1.800000e+02  0.000000e+00  1.340000e+02
   endloop
 endfacet
 facet normal  0.000000e+00  0.000000e+00  1.000000e+00
   outer loop
     vertex  1.800000e+02  4.600000e+01  1.340000e+02
     vertex  1.530000e+02  1.700000e+01  1.340000e+02
     vertex  1.670000e+02  1.700000e+01  1.340000e+02
   endloop
 endfacet
 facet normal  0.000000e+00  0.000000e+00  1.000000e+00
   outer loop
     vertex  1.800000e+02  6.400000e+01  1.340000e+02
     vertex  0.000000e+00  0.000000e+00  1.340000e+02
     vertex  1.530000e+02  1.700000e+01  1.340000e+02
   endloop
 endfacet
 facet normal  0.000000e+00  0.000000e+00  1.000000e+00
   outer loop
     vertex  1.800000e+02  6.400000e+01  1.340000e+02
     vertex  1.530000e+02  1.700000e+01  1.340000e+02
     vertex  1.800000e+02  4.600000e+01  1.340000e+02
   endloop
 endfacet
 facet normal  0.000000e+00  0.000000e+00  1.000000e+00
   outer loop
     vertex  1.898000e+02  6.400000e+01  1.340000e+02
     vertex  1.800000e+02  4.600000e+01  1.340000e+02
     vertex  1.898000e+02  4.600000e+01  1.340000e+02
   endloop
 endfacet
 facet normal  0.000000e+00  0.000000e+00  1.000000e+00
   outer loop
     vertex  1.898000e+02  6.400000e+01  1.340000e+02
     vertex  1.800000e+02  6.400000e+01  1.340000e+02
     vertex  1.800000e+02  4.600000e+01  1.340000e+02
   endloop
 endfacet
 facet normal  0.000000e+00  0.000000e+00  1.000000e+00
   outer loop
     vertex  1.530000e+02  1.880000e+02  1.340000e+02
     vertex  0.000000e+00  2.150000e+02  1.340000e+02
     vertex  0.000000e+00  0.000000e+00  1.340000e+02
   endloop
 endfacet
 facet normal  0.000000e+00  0.000000e+00  1.000000e+00
   outer loop
     vertex  1.530000e+02  1.880000e+02  1.340000e+02
     vertex  1.800000e+02  6.400000e+01  1.340000e+02
     vertex  1.800000e+02  1.510000e+02  1.340000e+02
   endloop
 endfacet
 facet normal  0.000000e+00  0.000000e+00  1.000000e+00
   outer loop
     vertex  1.530000e+02  1.880000e+02  1.340000e+02
     vertex  0.000000e+00  0.000000e+00  1.340000e+02
     vertex  1.800000e+02  6.400000e+01  1.340000e+02
   endloop
 endfacet
 facet normal  0.000000e+00  0.000000e+00  1.000000e+00
   outer loop
     vertex  1.800000e+02  1.690000e+02  1.340000e+02
     vertex  1.530000e+02  1.880000e+02  1.340000e+02
     vertex  1.800000e+02  1.510000e+02  1.340000e+02
   endloop
 endfacet
 facet normal  0.000000e+00  0.000000e+00  1.000000e+00
   outer loop
     vertex  1.670000e+02  1.880000e+02  1.340000e+02
     vertex  1.530000e+02  1.880000e+02  1.340000e+02
     vertex  1.800000e+02  1.690000e+02  1.340000e+02
   endloop
 endfacet
 facet normal  0.000000e+00  0.000000e+00  1.000000e+00
   outer loop
     vertex  1.898000e+02  1.690000e+02  1.340000e+02
     vertex  1.800000e+02  1.510000e+02  1.340000e+02
     vertex  1.898000e+02  1.510000e+02  1.340000e+02
   endloop
 endfacet
 facet normal  0.000000e+00  0.000000e+00  1.000000e+00
   outer loop
     vertex  1.898000e+02  1.690000e+02  1.340000e+02
     vertex  1.800000e+02  1.690000e+02  1.340000e+02
     vertex  1.800000e+02  1.510000e+02  1.340000e+02
   endloop
 endfacet
 facet normal  0.000000e+00  0.000000e+00  1.000000e+00
   outer loop
     vertex  1.530000e+02  2.150000e+02  1.340000e+02
     vertex  0.000000e+00  2.150000e+02  1.340000e+02
     vertex  1.530000e+02  1.880000e+02  1.340000e+02
   endloop
 endfacet
 facet normal  0.000000e+00  0.000000e+00  1.000000e+00
   outer loop
     vertex  1.800000e+02  2.150000e+02  1.340000e+02
     vertex  1.670000e+02  2.150000e+02  1.340000e+02
     vertex  1.670000e+02  1.880000e+02  1.340000e+02
   endloop
 endfacet
 facet normal  0.000000e+00 -0.000000e+00  1.000000e+00
   outer loop
     vertex  1.800000e+02  0.000000e+00  1.340000e+02
     vertex  1.800000e+02  4.600000e+01  1.340000e+02
     vertex  1.670000e+02  1.700000e+01  1.340000e+02
   endloop
 endfacet
 facet normal  0.000000e+00 -0.000000e+00  1.000000e+00
   outer loop
     vertex  1.800000e+02  1.690000e+02  1.340000e+02
     vertex  1.800000e+02  2.150000e+02  1.340000e+02
     vertex  1.670000e+02  1.880000e+02  1.340000e+02
   endloop
 endfacet
endsolid
