solid 
 facet normal  0.000000e+00 -1.000000e+00  0.000000e+00
   outer loop
     vertex  3.330000e+02  0.000000e+00  1.290000e+02
     vertex  1.800000e+02  0.000000e+00  1.340000e+02
     vertex  1.800000e+02  0.000000e+00  1.290000e+02
   endloop
 endfacet
 facet normal  0.000000e+00 -1.000000e+00  0.000000e+00
   outer loop
     vertex  3.330000e+02  0.000000e+00  1.290000e+02
     vertex  3.330000e+02  0.000000e+00  1.340000e+02
     vertex  1.800000e+02  0.000000e+00  1.340000e+02
   endloop
 endfacet
 facet normal -1.000000e+00  0.000000e+00  0.000000e+00
   outer loop
     vertex  1.800000e+02  0.000000e+00  1.340000e+02
     vertex  1.800000e+02  4.672883e+01  1.340000e+02
     vertex  1.800000e+02  4.396921e+01  1.290000e+02
   endloop
 endfacet
 facet normal -1.000000e+00  0.000000e+00  0.000000e+00
   outer loop
     vertex  1.800000e+02  0.000000e+00  1.290000e+02
     vertex  1.800000e+02  0.000000e+00  1.340000e+02
     vertex  1.800000e+02  4.396921e+01  1.290000e+02
   endloop
 endfacet
 facet normal  1.000000e+00  0.000000e+00  0.000000e+00
   outer loop
     vertex  3.330000e+02  1.700000e+01  1.290000e+02
     vertex  3.330000e+02  0.000000e+00  1.340000e+02
     vertex  3.330000e+02  0.000000e+00  1.290000e+02
   endloop
 endfacet
 facet normal  1.000000e+00  0.000000e+00 -0.000000e+00
   outer loop
     vertex  3.330000e+02  1.700000e+01  1.290000e+02
     vertex  3.330000e+02  1.700000e+01  1.340000e+02
     vertex  3.330000e+02  0.000000e+00  1.340000e+02
   endloop
 endfacet
 facet normal  0.000000e+00  0.000000e+00 -1.000000e+00
   outer loop
     vertex  1.900000e+02  4.687407e+01  1.290000e+02
     vertex  1.800000e+02  0.000000e+00  1.290000e+02
     vertex  1.800000e+02  4.396921e+01  1.290000e+02
   endloop
 endfacet
 facet normal  0.000000e+00  0.000000e+00 -1.000000e+00
   outer loop
     vertex  1.800000e+02  1.489692e+02  1.290000e+02
     vertex  1.900000e+02  6.312593e+01  1.290000e+02
     vertex  1.800000e+02  6.603079e+01  1.290000e+02
   endloop
 endfacet
 facet normal  0.000000e+00  0.000000e+00 -1.000000e+00
   outer loop
     vertex  3.330000e+02  0.000000e+00  1.290000e+02
     vertex  1.800000e+02  0.000000e+00  1.290000e+02
     vertex  1.900000e+02  4.687407e+01  1.290000e+02
   endloop
 endfacet
 facet normal  0.000000e+00 -0.000000e+00 -1.000000e+00
   outer loop
     vertex  1.900000e+02  1.518741e+02  1.290000e+02
     vertex  1.900000e+02  6.312593e+01  1.290000e+02
     vertex  1.800000e+02  1.489692e+02  1.290000e+02
   endloop
 endfacet
 facet normal  0.000000e+00  0.000000e+00 -1.000000e+00
   outer loop
     vertex  3.330000e+02  1.700000e+01  1.290000e+02
     vertex  1.900000e+02  4.687407e+01  1.290000e+02
     vertex  1.900000e+02  6.312593e+01  1.290000e+02
   endloop
 endfacet
 facet normal -0.000000e+00 -0.000000e+00 -1.000000e+00
   outer loop
     vertex  3.330000e+02  1.700000e+01  1.290000e+02
     vertex  3.330000e+02  0.000000e+00  1.290000e+02
     vertex  1.900000e+02  4.687407e+01  1.290000e+02
   endloop
 endfacet
 facet normal  0.000000e+00  0.000000e+00 -1.000000e+00
   outer loop
     vertex  3.470000e+02  1.700000e+01  1.290000e+02
     vertex  3.600000e+02  0.000000e+00  1.290000e+02
     vertex  3.470000e+02  0.000000e+00  1.290000e+02
   endloop
 endfacet
 facet normal  0.000000e+00  0.000000e+00 -1.000000e+00
   outer loop
     vertex  1.800000e+02  2.150000e+02  1.290000e+02
     vertex  1.900000e+02  1.681259e+02  1.290000e+02
     vertex  1.800000e+02  1.710308e+02  1.290000e+02
   endloop
 endfacet
 facet normal  0.000000e+00  0.000000e+00 -1.000000e+00
   outer loop
     vertex  3.330000e+02  1.880000e+02  1.290000e+02
     vertex  3.470000e+02  1.700000e+01  1.290000e+02
     vertex  3.330000e+02  1.700000e+01  1.290000e+02
   endloop
 endfacet
 facet normal  0.000000e+00  0.000000e+00 -1.000000e+00
   outer loop
     vertex  3.330000e+02  1.880000e+02  1.290000e+02
     vertex  1.900000e+02  1.518741e+02  1.290000e+02
     vertex  1.900000e+02  1.681259e+02  1.290000e+02
   endloop
 endfacet
 facet normal  0.000000e+00  0.000000e+00 -1.000000e+00
   outer loop
     vertex  3.330000e+02  1.880000e+02  1.290000e+02
     vertex  1.900000e+02  6.312593e+01  1.290000e+02
     vertex  1.900000e+02  1.518741e+02  1.290000e+02
   endloop
 endfacet
 facet normal  0.000000e+00 -0.000000e+00 -1.000000e+00
   outer loop
     vertex  3.330000e+02  1.880000e+02  1.290000e+02
     vertex  3.330000e+02  1.700000e+01  1.290000e+02
     vertex  1.900000e+02  6.312593e+01  1.290000e+02
   endloop
 endfacet
 facet normal  0.000000e+00  0.000000e+00 -1.000000e+00
   outer loop
     vertex  3.470000e+02  1.880000e+02  1.290000e+02
     vertex  3.600000e+02  0.000000e+00  1.290000e+02
     vertex  3.470000e+02  1.700000e+01  1.290000e+02
   endloop
 endfacet
 facet normal -0.000000e+00 -0.000000e+00 -1.000000e+00
   outer loop
     vertex  3.470000e+02  1.880000e+02  1.290000e+02
     vertex  3.470000e+02  1.700000e+01  1.290000e+02
     vertex  3.330000e+02  1.880000e+02  1.290000e+02
   endloop
 endfacet
 facet normal -0.000000e+00  0.000000e+00 -1.000000e+00
   outer loop
     vertex  3.330000e+02  2.150000e+02  1.290000e+02
     vertex  1.900000e+02  1.681259e+02  1.290000e+02
     vertex  1.800000e+02  2.150000e+02  1.290000e+02
   endloop
 endfacet
 facet normal  0.000000e+00 -0.000000e+00 -1.000000e+00
   outer loop
     vertex  3.330000e+02  2.150000e+02  1.290000e+02
     vertex  3.330000e+02  1.880000e+02  1.290000e+02
     vertex  1.900000e+02  1.681259e+02  1.290000e+02
   endloop
 endfacet
 facet normal -0.000000e+00  0.000000e+00 -1.000000e+00
   outer loop
     vertex  3.600000e+02  2.150000e+02  1.290000e+02
     vertex  3.470000e+02  1.880000e+02  1.290000e+02
     vertex  3.470000e+02  2.150000e+02  1.290000e+02
   endloop
 endfacet
 facet normal  0.000000e+00 -0.000000e+00 -1.000000e+00
   outer loop
     vertex  3.600000e+02  2.150000e+02  1.290000e+02
     vertex  3.600000e+02  0.000000e+00  1.290000e+02
     vertex  3.470000e+02  1.880000e+02  1.290000e+02
   endloop
 endfacet
 facet normal  0.000000e+00  0.000000e+00  1.000000e+00
   outer loop
     vertex  1.900000e+02  4.872593e+01  1.340000e+02
     vertex  1.800000e+02  4.672883e+01  1.340000e+02
     vertex  1.800000e+02  0.000000e+00  1.340000e+02
   endloop
 endfacet
 facet normal  0.000000e+00  0.000000e+00  1.000000e+00
   outer loop
     vertex  1.900000e+02  1.537259e+02  1.340000e+02
     vertex  1.800000e+02  1.517288e+02  1.340000e+02
     vertex  1.800000e+02  6.327117e+01  1.340000e+02
   endloop
 endfacet
 facet normal  0.000000e+00  0.000000e+00  1.000000e+00
   outer loop
     vertex  1.900000e+02  1.537259e+02  1.340000e+02
     vertex  1.800000e+02  6.327117e+01  1.340000e+02
     vertex  1.900000e+02  6.127407e+01  1.340000e+02
   endloop
 endfacet
 facet normal  0.000000e+00  0.000000e+00  1.000000e+00
   outer loop
     vertex  3.330000e+02  1.700000e+01  1.340000e+02
     vertex  1.800000e+02  0.000000e+00  1.340000e+02
     vertex  3.330000e+02  0.000000e+00  1.340000e+02
   endloop
 endfacet
 facet normal  0.000000e+00  0.000000e+00  1.000000e+00
   outer loop
     vertex  3.330000e+02  1.700000e+01  1.340000e+02
     vertex  1.900000e+02  6.127407e+01  1.340000e+02
     vertex  1.900000e+02  4.872593e+01  1.340000e+02
   endloop
 endfacet
 facet normal  0.000000e+00  0.000000e+00  1.000000e+00
   outer loop
     vertex  3.330000e+02  1.700000e+01  1.340000e+02
     vertex  1.900000e+02  4.872593e+01  1.340000e+02
     vertex  1.800000e+02  0.000000e+00  1.340000e+02
   endloop
 endfacet
 facet normal  0.000000e+00  0.000000e+00  1.000000e+00
   outer loop
     vertex  3.470000e+02  1.700000e+01  1.340000e+02
     vertex  3.470000e+02  0.000000e+00  1.340000e+02
     vertex  3.600000e+02  0.000000e+00  1.340000e+02
   endloop
 endfacet
 facet normal  0.000000e+00  0.000000e+00  1.000000e+00
   outer loop
     vertex  1.800000e+02  2.150000e+02  1.340000e+02
     vertex  1.800000e+02  1.682712e+02  1.340000e+02
     vertex  1.900000e+02  1.662741e+02  1.340000e+02
   endloop
 endfacet
 facet normal  0.000000e+00  0.000000e+00  1.000000e+00
   outer loop
     vertex  3.330000e+02  1.880000e+02  1.340000e+02
     vertex  3.330000e+02  1.700000e+01  1.340000e+02
     vertex  3.470000e+02  1.700000e+01  1.340000e+02
   endloop
 endfacet
 facet normal  0.000000e+00  0.000000e+00  1.000000e+00
   outer loop
     vertex  3.330000e+02  1.880000e+02  1.340000e+02
     vertex  1.900000e+02  1.662741e+02  1.340000e+02
     vertex  1.900000e+02  1.537259e+02  1.340000e+02
   endloop
 endfacet
 facet normal  0.000000e+00  0.000000e+00  1.000000e+00
   outer loop
     vertex  3.330000e+02  1.880000e+02  1.340000e+02
     vertex  1.900000e+02  1.537259e+02  1.340000e+02
     vertex  1.900000e+02  6.127407e+01  1.340000e+02
   endloop
 endfacet
 facet normal  0.000000e+00  0.000000e+00  1.000000e+00
   outer loop
     vertex  3.330000e+02  1.880000e+02  1.340000e+02
     vertex  1.900000e+02  6.127407e+01  1.340000e+02
     vertex  3.330000e+02  1.700000e+01  1.340000e+02
   endloop
 endfacet
 facet normal  0.000000e+00  0.000000e+00  1.000000e+00
   outer loop
     vertex  3.470000e+02  1.880000e+02  1.340000e+02
     vertex  3.470000e+02  1.700000e+01  1.340000e+02
     vertex  3.600000e+02  0.000000e+00  1.340000e+02
   endloop
 endfacet
 facet normal  0.000000e+00  0.000000e+00  1.000000e+00
   outer loop
     vertex  3.470000e+02  1.880000e+02  1.340000e+02
     vertex  3.330000e+02  1.880000e+02  1.340000e+02
     vertex  3.470000e+02  1.700000e+01  1.340000e+02
   endloop
 endfacet
 facet normal  0.000000e+00  0.000000e+00  1.000000e+00
   outer loop
     vertex  3.330000e+02  2.150000e+02  1.340000e+02
     vertex  1.800000e+02  2.150000e+02  1.340000e+02
     vertex  1.900000e+02  1.662741e+02  1.340000e+02
   endloop
 endfacet
 facet normal  0.000000e+00  0.000000e+00  1.000000e+00
   outer loop
     vertex  3.330000e+02  2.150000e+02  1.340000e+02
     vertex  1.900000e+02  1.662741e+02  1.340000e+02
     vertex  3.330000e+02  1.880000e+02  1.340000e+02
   endloop
 endfacet
 facet normal  0.000000e+00  0.000000e+00  1.000000e+00
   outer loop
     vertex  3.600000e+02  2.150000e+02  1.340000e+02
     vertex  3.470000e+02  2.150000e+02  1.340000e+02
     vertex  3.470000e+02  1.880000e+02  1.340000e+02
   endloop
 endfacet
 facet normal  0.000000e+00  0.000000e+00  1.000000e+00
   outer loop
     vertex  3.600000e+02  2.150000e+02  1.340000e+02
     vertex  3.470000e+02  1.880000e+02  1.340000e+02
     vertex  3.600000e+02  0.000000e+00  1.340000e+02
   endloop
 endfacet
 facet normal -2.255829e-01  8.696770e-01 -4.390607e-01
   outer loop
     vertex  1.825000e+02  4.532859e+01  1.302500e+02
     vertex  1.816667e+02  4.532280e+01  1.306667e+02
     vertex  1.827778e+02  4.575124e+01  1.309444e+02
   endloop
 endfacet
 facet normal -2.219423e-01  8.932712e-01 -3.909068e-01
   outer loop
     vertex  1.861111e+02  4.733681e+01  1.326111e+02
     vertex  1.866667e+02  4.662393e+01  1.306667e+02
     vertex  1.850000e+02  4.657451e+01  1.315000e+02
   endloop
 endfacet
 facet normal -2.125605e-01  8.793089e-01 -4.261854e-01
   outer loop
     vertex  1.838889e+02  4.576738e+01  1.303889e+02
     vertex  1.833333e+02  4.657552e+01  1.323333e+02
     vertex  1.850000e+02  4.657451e+01  1.315000e+02
   endloop
 endfacet
 facet normal -2.268777e-01  8.746685e-01 -4.283474e-01
   outer loop
     vertex  1.838889e+02  4.576738e+01  1.303889e+02
     vertex  1.827778e+02  4.575124e+01  1.309444e+02
     vertex  1.833333e+02  4.657552e+01  1.323333e+02
   endloop
 endfacet
 facet normal -2.364018e-01  8.691404e-01 -4.344066e-01
   outer loop
     vertex  1.833333e+02  4.534700e+01  1.298333e+02
     vertex  1.825000e+02  4.532859e+01  1.302500e+02
     vertex  1.827778e+02  4.575124e+01  1.309444e+02
   endloop
 endfacet
 facet normal -2.285349e-01  8.725751e-01 -4.317227e-01
   outer loop
     vertex  1.833333e+02  4.534700e+01  1.298333e+02
     vertex  1.827778e+02  4.575124e+01  1.309444e+02
     vertex  1.838889e+02  4.576738e+01  1.303889e+02
   endloop
 endfacet
 facet normal -2.072401e-01  8.978856e-01 -3.883979e-01
   outer loop
     vertex  1.872222e+02  4.735295e+01  1.320556e+02
     vertex  1.866667e+02  4.662393e+01  1.306667e+02
     vertex  1.861111e+02  4.733681e+01  1.326111e+02
   endloop
 endfacet
 facet normal -2.054316e-01  8.998812e-01 -3.847229e-01
   outer loop
     vertex  1.872222e+02  4.735295e+01  1.320556e+02
     vertex  1.861111e+02  4.733681e+01  1.326111e+02
     vertex  1.866667e+02  4.770115e+01  1.331667e+02
   endloop
 endfacet
 facet normal -1.970577e-01  9.031011e-01 -3.815450e-01
   outer loop
     vertex  1.872222e+02  4.735295e+01  1.320556e+02
     vertex  1.866667e+02  4.770115e+01  1.331667e+02
     vertex  1.875000e+02  4.770695e+01  1.327500e+02
   endloop
 endfacet
 facet normal -2.083229e-01  9.025767e-01 -3.767716e-01
   outer loop
     vertex  1.883333e+02  4.772536e+01  1.323333e+02
     vertex  1.872222e+02  4.735295e+01  1.320556e+02
     vertex  1.875000e+02  4.770695e+01  1.327500e+02
   endloop
 endfacet
 facet normal -2.258401e-01  8.968232e-01 -3.804003e-01
   outer loop
     vertex  1.888889e+02  4.741918e+01  1.312222e+02
     vertex  1.866667e+02  4.662393e+01  1.306667e+02
     vertex  1.872222e+02  4.735295e+01  1.320556e+02
   endloop
 endfacet
 facet normal -2.150700e-01  9.086462e-01 -3.579204e-01
   outer loop
     vertex  1.888889e+02  4.741918e+01  1.312222e+02
     vertex  1.872222e+02  4.735295e+01  1.320556e+02
     vertex  1.883333e+02  4.772536e+01  1.323333e+02
   endloop
 endfacet
 facet normal -2.336305e-01  9.036305e-01 -3.589828e-01
   outer loop
     vertex  1.883333e+02  4.672379e+01  1.298333e+02
     vertex  1.866667e+02  4.662393e+01  1.306667e+02
     vertex  1.888889e+02  4.741918e+01  1.312222e+02
   endloop
 endfacet
 facet normal -1.802371e-01  8.660466e-01 -4.663453e-01
   outer loop
     vertex  1.811111e+02  4.621219e+01  1.326111e+02
     vertex  1.800000e+02  4.672883e+01  1.340000e+02
     vertex  1.816667e+02  4.662696e+01  1.331667e+02
   endloop
 endfacet
 facet normal -1.867577e-01  8.625421e-01 -4.702582e-01
   outer loop
     vertex  1.808333e+02  4.600060e+01  1.323333e+02
     vertex  1.800000e+02  4.672883e+01  1.340000e+02
     vertex  1.811111e+02  4.621219e+01  1.326111e+02
   endloop
 endfacet
 facet normal -1.790707e-01  8.674486e-01 -4.641838e-01
   outer loop
     vertex  1.827778e+02  4.700497e+01  1.334444e+02
     vertex  1.816667e+02  4.662696e+01  1.331667e+02
     vertex  1.800000e+02  4.672883e+01  1.340000e+02
   endloop
 endfacet
 facet normal -1.774329e-01  8.737453e-01 -4.528651e-01
   outer loop
     vertex  1.833333e+02  4.718978e+01  1.335833e+02
     vertex  1.827778e+02  4.700497e+01  1.334444e+02
     vertex  1.800000e+02  4.672883e+01  1.340000e+02
   endloop
 endfacet
 facet normal -1.850384e-01  8.819925e-01 -4.334168e-01
   outer loop
     vertex  1.833333e+02  4.718978e+01  1.335833e+02
     vertex  1.833333e+02  4.657552e+01  1.323333e+02
     vertex  1.827778e+02  4.700497e+01  1.334444e+02
   endloop
 endfacet
 facet normal -1.986421e-01  8.701400e-01 -4.509964e-01
   outer loop
     vertex  1.822222e+02  4.617789e+01  1.320556e+02
     vertex  1.811111e+02  4.621219e+01  1.326111e+02
     vertex  1.816667e+02  4.662696e+01  1.331667e+02
   endloop
 endfacet
 facet normal -2.232896e-01  8.673940e-01 -4.447127e-01
   outer loop
     vertex  1.822222e+02  4.617789e+01  1.320556e+02
     vertex  1.827778e+02  4.575124e+01  1.309444e+02
     vertex  1.816667e+02  4.532280e+01  1.306667e+02
   endloop
 endfacet
 facet normal -2.037964e-01  8.755258e-01 -4.380886e-01
   outer loop
     vertex  1.822222e+02  4.617789e+01  1.320556e+02
     vertex  1.833333e+02  4.657552e+01  1.323333e+02
     vertex  1.827778e+02  4.575124e+01  1.309444e+02
   endloop
 endfacet
 facet normal -2.020471e-01  8.659262e-01 -4.575465e-01
   outer loop
     vertex  1.822222e+02  4.617789e+01  1.320556e+02
     vertex  1.808333e+02  4.600060e+01  1.323333e+02
     vertex  1.811111e+02  4.621219e+01  1.326111e+02
   endloop
 endfacet
 facet normal -2.015618e-01  8.680154e-01 -4.537864e-01
   outer loop
     vertex  1.822222e+02  4.617789e+01  1.320556e+02
     vertex  1.816667e+02  4.532280e+01  1.306667e+02
     vertex  1.808333e+02  4.600060e+01  1.323333e+02
   endloop
 endfacet
 facet normal -1.860483e-01  8.751196e-01 -4.467121e-01
   outer loop
     vertex  1.822222e+02  4.617789e+01  1.320556e+02
     vertex  1.816667e+02  4.662696e+01  1.331667e+02
     vertex  1.827778e+02  4.700497e+01  1.334444e+02
   endloop
 endfacet
 facet normal -2.031511e-01  8.748596e-01 -4.397162e-01
   outer loop
     vertex  1.822222e+02  4.617789e+01  1.320556e+02
     vertex  1.827778e+02  4.700497e+01  1.334444e+02
     vertex  1.833333e+02  4.657552e+01  1.323333e+02
   endloop
 endfacet
 facet normal -2.411562e-01  8.523776e-01 -4.640000e-01
   outer loop
     vertex  1.812500e+02  4.466309e+01  1.296250e+02
     vertex  1.800000e+02  4.396921e+01  1.290000e+02
     vertex  1.808333e+02  4.465861e+01  1.298333e+02
   endloop
 endfacet
 facet normal -2.348880e-01  8.609145e-01 -4.512802e-01
   outer loop
     vertex  1.812500e+02  4.466309e+01  1.296250e+02
     vertex  1.808333e+02  4.465861e+01  1.298333e+02
     vertex  1.816667e+02  4.532280e+01  1.306667e+02
   endloop
 endfacet
 facet normal -2.044231e-01  8.889179e-01 -4.099222e-01
   outer loop
     vertex  1.850000e+02  4.715094e+01  1.327500e+02
     vertex  1.850000e+02  4.657451e+01  1.315000e+02
     vertex  1.833333e+02  4.657552e+01  1.323333e+02
   endloop
 endfacet
 facet normal -2.001216e-01  8.897247e-01 -4.102942e-01
   outer loop
     vertex  1.850000e+02  4.715094e+01  1.327500e+02
     vertex  1.861111e+02  4.733681e+01  1.326111e+02
     vertex  1.850000e+02  4.657451e+01  1.315000e+02
   endloop
 endfacet
 facet normal -1.957440e-01  8.801290e-01 -4.325011e-01
   outer loop
     vertex  1.850000e+02  4.715094e+01  1.327500e+02
     vertex  1.833333e+02  4.657552e+01  1.323333e+02
     vertex  1.833333e+02  4.718978e+01  1.335833e+02
   endloop
 endfacet
 facet normal -2.449168e-01  8.542491e-01 -4.585566e-01
   outer loop
     vertex  1.816667e+02  4.467071e+01  1.294167e+02
     vertex  1.800000e+02  4.396921e+01  1.290000e+02
     vertex  1.812500e+02  4.466309e+01  1.296250e+02
   endloop
 endfacet
 facet normal -2.310059e-01  8.626309e-01 -4.500047e-01
   outer loop
     vertex  1.816667e+02  4.467071e+01  1.294167e+02
     vertex  1.816667e+02  4.532280e+01  1.306667e+02
     vertex  1.825000e+02  4.532859e+01  1.302500e+02
   endloop
 endfacet
 facet normal -2.401465e-01  8.642136e-01 -4.421136e-01
   outer loop
     vertex  1.816667e+02  4.467071e+01  1.294167e+02
     vertex  1.825000e+02  4.532859e+01  1.302500e+02
     vertex  1.833333e+02  4.534700e+01  1.298333e+02
   endloop
 endfacet
 facet normal -2.402402e-01  8.606459e-01 -4.489692e-01
   outer loop
     vertex  1.816667e+02  4.467071e+01  1.294167e+02
     vertex  1.812500e+02  4.466309e+01  1.296250e+02
     vertex  1.816667e+02  4.532280e+01  1.306667e+02
   endloop
 endfacet
 facet normal -1.939634e-01  9.063774e-01 -3.753108e-01
   outer loop
     vertex  1.880556e+02  4.805588e+01  1.333056e+02
     vertex  1.875000e+02  4.770695e+01  1.327500e+02
     vertex  1.866667e+02  4.770115e+01  1.331667e+02
   endloop
 endfacet
 facet normal -2.034259e-01  9.078077e-01 -3.667466e-01
   outer loop
     vertex  1.880556e+02  4.805588e+01  1.333056e+02
     vertex  1.883333e+02  4.772536e+01  1.323333e+02
     vertex  1.875000e+02  4.770695e+01  1.327500e+02
   endloop
 endfacet
 facet normal -2.299771e-01  8.837539e-01 -4.075408e-01
   outer loop
     vertex  1.850000e+02  4.599808e+01  1.302500e+02
     vertex  1.850000e+02  4.657451e+01  1.315000e+02
     vertex  1.866667e+02  4.662393e+01  1.306667e+02
   endloop
 endfacet
 facet normal -2.341918e-01  8.828407e-01 -4.071197e-01
   outer loop
     vertex  1.850000e+02  4.599808e+01  1.302500e+02
     vertex  1.838889e+02  4.576738e+01  1.303889e+02
     vertex  1.850000e+02  4.657451e+01  1.315000e+02
   endloop
 endfacet
 facet normal -2.346742e-01  8.735871e-01 -4.263492e-01
   outer loop
     vertex  1.850000e+02  4.599808e+01  1.302500e+02
     vertex  1.833333e+02  4.534700e+01  1.298333e+02
     vertex  1.838889e+02  4.576738e+01  1.303889e+02
   endloop
 endfacet
 facet normal -1.865392e-01  9.166911e-01 -3.533843e-01
   outer loop
     vertex  1.887500e+02  4.823062e+01  1.333750e+02
     vertex  1.883333e+02  4.822615e+01  1.335833e+02
     vertex  1.900000e+02  4.872593e+01  1.340000e+02
   endloop
 endfacet
 facet normal -1.906844e-01  9.125605e-01 -3.617634e-01
   outer loop
     vertex  1.886111e+02  4.806395e+01  1.330278e+02
     vertex  1.883333e+02  4.822615e+01  1.335833e+02
     vertex  1.887500e+02  4.823062e+01  1.333750e+02
   endloop
 endfacet
 facet normal -1.958915e-01  9.100260e-01 -3.653481e-01
   outer loop
     vertex  1.886111e+02  4.806395e+01  1.330278e+02
     vertex  1.883333e+02  4.772536e+01  1.323333e+02
     vertex  1.880556e+02  4.805588e+01  1.333056e+02
   endloop
 endfacet
 facet normal -1.949509e-01  9.109920e-01 -3.634387e-01
   outer loop
     vertex  1.886111e+02  4.806395e+01  1.330278e+02
     vertex  1.880556e+02  4.805588e+01  1.333056e+02
     vertex  1.883333e+02  4.822615e+01  1.335833e+02
   endloop
 endfacet
 facet normal -1.752389e-01  9.160219e-01 -3.608258e-01
   outer loop
     vertex  1.891667e+02  4.823825e+01  1.331667e+02
     vertex  1.900000e+02  4.872593e+01  1.340000e+02
     vertex  1.888889e+02  4.741918e+01  1.312222e+02
   endloop
 endfacet
 facet normal -2.066418e-01  9.118972e-01 -3.546022e-01
   outer loop
     vertex  1.891667e+02  4.823825e+01  1.331667e+02
     vertex  1.888889e+02  4.741918e+01  1.312222e+02
     vertex  1.883333e+02  4.772536e+01  1.323333e+02
   endloop
 endfacet
 facet normal -1.903444e-01  9.183214e-01 -3.470659e-01
   outer loop
     vertex  1.891667e+02  4.823825e+01  1.331667e+02
     vertex  1.887500e+02  4.823062e+01  1.333750e+02
     vertex  1.900000e+02  4.872593e+01  1.340000e+02
   endloop
 endfacet
 facet normal -1.963814e-01  9.123017e-01 -3.593604e-01
   outer loop
     vertex  1.891667e+02  4.823825e+01  1.331667e+02
     vertex  1.886111e+02  4.806395e+01  1.330278e+02
     vertex  1.887500e+02  4.823062e+01  1.333750e+02
   endloop
 endfacet
 facet normal -1.939973e-01  9.101106e-01 -3.661470e-01
   outer loop
     vertex  1.891667e+02  4.823825e+01  1.331667e+02
     vertex  1.883333e+02  4.772536e+01  1.323333e+02
     vertex  1.886111e+02  4.806395e+01  1.330278e+02
   endloop
 endfacet
 facet normal -2.577603e-01  8.873400e-01 -3.823445e-01
   outer loop
     vertex  1.866667e+02  4.608532e+01  1.294167e+02
     vertex  1.900000e+02  4.687407e+01  1.290000e+02
     vertex  1.800000e+02  4.396921e+01  1.290000e+02
   endloop
 endfacet
 facet normal -2.404330e-01  8.498212e-01 -4.690371e-01
   outer loop
     vertex  1.866667e+02  4.608532e+01  1.294167e+02
     vertex  1.800000e+02  4.396921e+01  1.290000e+02
     vertex  1.816667e+02  4.467071e+01  1.294167e+02
   endloop
 endfacet
 facet normal -2.388170e-01  8.917994e-01 -3.842660e-01
   outer loop
     vertex  1.866667e+02  4.608532e+01  1.294167e+02
     vertex  1.850000e+02  4.599808e+01  1.302500e+02
     vertex  1.866667e+02  4.662393e+01  1.306667e+02
   endloop
 endfacet
 facet normal -2.461097e-01  8.698859e-01 -4.274675e-01
   outer loop
     vertex  1.866667e+02  4.608532e+01  1.294167e+02
     vertex  1.816667e+02  4.467071e+01  1.294167e+02
     vertex  1.833333e+02  4.534700e+01  1.298333e+02
   endloop
 endfacet
 facet normal -2.455478e-01  8.836513e-01 -3.985807e-01
   outer loop
     vertex  1.866667e+02  4.608532e+01  1.294167e+02
     vertex  1.833333e+02  4.534700e+01  1.298333e+02
     vertex  1.850000e+02  4.599808e+01  1.302500e+02
   endloop
 endfacet
 facet normal -2.440350e-01  8.916931e-01 -3.812222e-01
   outer loop
     vertex  1.872222e+02  4.630095e+01  1.295556e+02
     vertex  1.866667e+02  4.662393e+01  1.306667e+02
     vertex  1.883333e+02  4.672379e+01  1.298333e+02
   endloop
 endfacet
 facet normal -2.572600e-01  8.959877e-01 -3.619714e-01
   outer loop
     vertex  1.872222e+02  4.630095e+01  1.295556e+02
     vertex  1.900000e+02  4.687407e+01  1.290000e+02
     vertex  1.866667e+02  4.608532e+01  1.294167e+02
   endloop
 endfacet
 facet normal -2.558152e-01  9.015120e-01 -3.490483e-01
   outer loop
     vertex  1.872222e+02  4.630095e+01  1.295556e+02
     vertex  1.883333e+02  4.672379e+01  1.298333e+02
     vertex  1.900000e+02  4.687407e+01  1.290000e+02
   endloop
 endfacet
 facet normal -2.493763e-01  8.893584e-01 -3.832142e-01
   outer loop
     vertex  1.872222e+02  4.630095e+01  1.295556e+02
     vertex  1.866667e+02  4.608532e+01  1.294167e+02
     vertex  1.866667e+02  4.662393e+01  1.306667e+02
   endloop
 endfacet
 facet normal -2.457151e-01  9.089993e-01 -3.366664e-01
   outer loop
     vertex  1.894444e+02  4.713542e+01  1.301111e+02
     vertex  1.900000e+02  4.872593e+01  1.340000e+02
     vertex  1.900000e+02  4.687407e+01  1.290000e+02
   endloop
 endfacet
 facet normal -2.183341e-01  9.137835e-01 -3.425346e-01
   outer loop
     vertex  1.894444e+02  4.713542e+01  1.301111e+02
     vertex  1.888889e+02  4.741918e+01  1.312222e+02
     vertex  1.900000e+02  4.872593e+01  1.340000e+02
   endloop
 endfacet
 facet normal -2.511867e-01  9.066865e-01 -3.388582e-01
   outer loop
     vertex  1.894444e+02  4.713542e+01  1.301111e+02
     vertex  1.900000e+02  4.687407e+01  1.290000e+02
     vertex  1.883333e+02  4.672379e+01  1.298333e+02
   endloop
 endfacet
 facet normal -2.459862e-01  9.025187e-01 -3.534838e-01
   outer loop
     vertex  1.894444e+02  4.713542e+01  1.301111e+02
     vertex  1.883333e+02  4.672379e+01  1.298333e+02
     vertex  1.888889e+02  4.741918e+01  1.312222e+02
   endloop
 endfacet
 facet normal -2.221379e-01  8.536293e-01 -4.711389e-01
   outer loop
     vertex  1.804167e+02  4.499751e+01  1.306667e+02
     vertex  1.800000e+02  4.396921e+01  1.290000e+02
     vertex  1.800000e+02  4.672883e+01  1.340000e+02
   endloop
 endfacet
 facet normal -2.388914e-01  8.519657e-01 -4.659241e-01
   outer loop
     vertex  1.804167e+02  4.499751e+01  1.306667e+02
     vertex  1.808333e+02  4.465861e+01  1.298333e+02
     vertex  1.800000e+02  4.396921e+01  1.290000e+02
   endloop
 endfacet
 facet normal -1.894250e-01  8.614842e-01 -4.711296e-01
   outer loop
     vertex  1.804167e+02  4.499751e+01  1.306667e+02
     vertex  1.800000e+02  4.672883e+01  1.340000e+02
     vertex  1.808333e+02  4.600060e+01  1.323333e+02
   endloop
 endfacet
 facet normal -2.234831e-01  8.587988e-01 -4.609989e-01
   outer loop
     vertex  1.804167e+02  4.499751e+01  1.306667e+02
     vertex  1.808333e+02  4.600060e+01  1.323333e+02
     vertex  1.816667e+02  4.532280e+01  1.306667e+02
   endloop
 endfacet
 facet normal -2.234831e-01  8.587988e-01 -4.609989e-01
   outer loop
     vertex  1.804167e+02  4.499751e+01  1.306667e+02
     vertex  1.816667e+02  4.532280e+01  1.306667e+02
     vertex  1.808333e+02  4.465861e+01  1.298333e+02
   endloop
 endfacet
 facet normal -1.803987e-01  9.033056e-01 -3.892239e-01
   outer loop
     vertex  1.866667e+02  4.797046e+01  1.337917e+02
     vertex  1.800000e+02  4.672883e+01  1.340000e+02
     vertex  1.900000e+02  4.872593e+01  1.340000e+02
   endloop
 endfacet
 facet normal -1.851190e-01  9.153836e-01 -3.574967e-01
   outer loop
     vertex  1.866667e+02  4.797046e+01  1.337917e+02
     vertex  1.900000e+02  4.872593e+01  1.340000e+02
     vertex  1.883333e+02  4.822615e+01  1.335833e+02
   endloop
 endfacet
 facet normal -1.771906e-01  8.761787e-01 -4.482347e-01
   outer loop
     vertex  1.866667e+02  4.797046e+01  1.337917e+02
     vertex  1.833333e+02  4.718978e+01  1.335833e+02
     vertex  1.800000e+02  4.672883e+01  1.340000e+02
   endloop
 endfacet
 facet normal -2.022945e-01  8.993852e-01 -3.875347e-01
   outer loop
     vertex  1.866667e+02  4.797046e+01  1.337917e+02
     vertex  1.866667e+02  4.770115e+01  1.331667e+02
     vertex  1.861111e+02  4.733681e+01  1.326111e+02
   endloop
 endfacet
 facet normal -1.990932e-01  8.994371e-01 -3.890690e-01
   outer loop
     vertex  1.866667e+02  4.797046e+01  1.337917e+02
     vertex  1.861111e+02  4.733681e+01  1.326111e+02
     vertex  1.850000e+02  4.715094e+01  1.327500e+02
   endloop
 endfacet
 facet normal -1.837533e-01  8.937711e-01 -4.091553e-01
   outer loop
     vertex  1.866667e+02  4.797046e+01  1.337917e+02
     vertex  1.850000e+02  4.715094e+01  1.327500e+02
     vertex  1.833333e+02  4.718978e+01  1.335833e+02
   endloop
 endfacet
 facet normal -1.913824e-01  9.013972e-01 -3.884016e-01
   outer loop
     vertex  1.866667e+02  4.797046e+01  1.337917e+02
     vertex  1.880556e+02  4.805588e+01  1.333056e+02
     vertex  1.866667e+02  4.770115e+01  1.331667e+02
   endloop
 endfacet
 facet normal -1.859871e-01  9.095946e-01 -3.715460e-01
   outer loop
     vertex  1.866667e+02  4.797046e+01  1.337917e+02
     vertex  1.883333e+02  4.822615e+01  1.335833e+02
     vertex  1.880556e+02  4.805588e+01  1.333056e+02
   endloop
 endfacet
 facet normal  0.000000e+00 -1.000000e+00  0.000000e+00
   outer loop
     vertex  3.470000e+02  1.700000e+01  1.290000e+02
     vertex  3.330000e+02  1.700000e+01  1.340000e+02
     vertex  3.330000e+02  1.700000e+01  1.290000e+02
   endloop
 endfacet
 facet normal  0.000000e+00 -1.000000e+00  0.000000e+00
   outer loop
     vertex  3.470000e+02  1.700000e+01  1.290000e+02
     vertex  3.470000e+02  1.700000e+01  1.340000e+02
     vertex  3.330000e+02  1.700000e+01  1.340000e+02
   endloop
 endfacet
 facet normal -1.000000e+00 -0.000000e+00  0.000000e+00
   outer loop
     vertex  1.900000e+02  6.127407e+01  1.340000e+02
     vertex  1.900000e+02  4.687407e+01  1.290000e+02
     vertex  1.900000e+02  4.872593e+01  1.340000e+02
   endloop
 endfacet
 facet normal -1.000000e+00  0.000000e+00 -0.000000e+00
   outer loop
     vertex  1.900000e+02  6.127407e+01  1.340000e+02
     vertex  1.900000e+02  6.312593e+01  1.290000e+02
     vertex  1.900000e+02  4.687407e+01  1.290000e+02
   endloop
 endfacet
 facet normal -2.018013e-01 -8.743212e-01 -4.414053e-01
   outer loop
     vertex  1.825000e+02  6.340507e+01  1.327500e+02
     vertex  1.816667e+02  6.380776e+01  1.323333e+02
     vertex  1.827778e+02  6.369155e+01  1.320556e+02
   endloop
 endfacet
 facet normal -2.162203e-01 -8.944483e-01 -3.914219e-01
   outer loop
     vertex  1.861111e+02  6.364313e+01  1.303889e+02
     vertex  1.866667e+02  6.265792e+01  1.323333e+02
     vertex  1.850000e+02  6.342549e+01  1.315000e+02
   endloop
 endfacet
 facet normal -2.181953e-01 -8.781905e-01 -4.256433e-01
   outer loop
     vertex  1.838889e+02  6.316302e+01  1.326111e+02
     vertex  1.833333e+02  6.424349e+01  1.306667e+02
     vertex  1.850000e+02  6.342549e+01  1.315000e+02
   endloop
 endfacet
 facet normal -2.029720e-01 -8.793936e-01 -4.306614e-01
   outer loop
     vertex  1.838889e+02  6.316302e+01  1.326111e+02
     vertex  1.827778e+02  6.369155e+01  1.320556e+02
     vertex  1.833333e+02  6.424349e+01  1.306667e+02
   endloop
 endfacet
 facet normal -1.915650e-01 -8.779284e-01 -4.387989e-01
   outer loop
     vertex  1.833333e+02  6.301498e+01  1.331667e+02
     vertex  1.825000e+02  6.340507e+01  1.327500e+02
     vertex  1.827778e+02  6.369155e+01  1.320556e+02
   endloop
 endfacet
 facet normal -2.004597e-01 -8.781019e-01 -4.344572e-01
   outer loop
     vertex  1.833333e+02  6.301498e+01  1.331667e+02
     vertex  1.827778e+02  6.369155e+01  1.320556e+02
     vertex  1.838889e+02  6.316302e+01  1.326111e+02
   endloop
 endfacet
 facet normal -2.315957e-01 -8.928579e-01 -3.862230e-01
   outer loop
     vertex  1.872222e+02  6.311461e+01  1.309444e+02
     vertex  1.866667e+02  6.265792e+01  1.323333e+02
     vertex  1.861111e+02  6.364313e+01  1.303889e+02
   endloop
 endfacet
 facet normal -2.341295e-01 -8.939357e-01 -3.821810e-01
   outer loop
     vertex  1.872222e+02  6.311461e+01  1.309444e+02
     vertex  1.861111e+02  6.364313e+01  1.303889e+02
     vertex  1.866667e+02  6.373514e+01  1.298333e+02
   endloop
 endfacet
 facet normal -2.430394e-01 -8.935436e-01 -3.775071e-01
   outer loop
     vertex  1.872222e+02  6.311461e+01  1.309444e+02
     vertex  1.866667e+02  6.373514e+01  1.298333e+02
     vertex  1.875000e+02  6.333244e+01  1.302500e+02
   endloop
 endfacet
 facet normal -2.327921e-01 -8.974702e-01 -3.746399e-01
   outer loop
     vertex  1.883333e+02  6.294235e+01  1.306667e+02
     vertex  1.872222e+02  6.311461e+01  1.309444e+02
     vertex  1.875000e+02  6.333244e+01  1.302500e+02
   endloop
 endfacet
 facet normal -2.077897e-01 -8.905374e-01 -4.046809e-01
   outer loop
     vertex  1.855556e+02  6.241226e+01  1.334444e+02
     vertex  1.850000e+02  6.342549e+01  1.315000e+02
     vertex  1.866667e+02  6.265792e+01  1.323333e+02
   endloop
 endfacet
 facet normal -1.974895e-01 -8.913457e-01 -4.080450e-01
   outer loop
     vertex  1.855556e+02  6.241226e+01  1.334444e+02
     vertex  1.838889e+02  6.316302e+01  1.326111e+02
     vertex  1.850000e+02  6.342549e+01  1.315000e+02
   endloop
 endfacet
 facet normal -1.874219e-01 -8.862524e-01 -4.235914e-01
   outer loop
     vertex  1.855556e+02  6.241226e+01  1.334444e+02
     vertex  1.833333e+02  6.301498e+01  1.331667e+02
     vertex  1.838889e+02  6.316302e+01  1.326111e+02
   endloop
 endfacet
 facet normal -2.143482e-01 -8.992103e-01 -3.814128e-01
   outer loop
     vertex  1.888889e+02  6.236385e+01  1.317778e+02
     vertex  1.866667e+02  6.265792e+01  1.323333e+02
     vertex  1.872222e+02  6.311461e+01  1.309444e+02
   endloop
 endfacet
 facet normal -2.295652e-01 -9.055708e-01 -3.567090e-01
   outer loop
     vertex  1.888889e+02  6.236385e+01  1.317778e+02
     vertex  1.872222e+02  6.311461e+01  1.309444e+02
     vertex  1.883333e+02  6.294235e+01  1.306667e+02
   endloop
 endfacet
 facet normal -2.104616e-01 -9.085344e-01 -3.609310e-01
   outer loop
     vertex  1.883333e+02  6.194078e+01  1.331667e+02
     vertex  1.866667e+02  6.265792e+01  1.323333e+02
     vertex  1.888889e+02  6.236385e+01  1.317778e+02
   endloop
 endfacet
 facet normal -2.410400e-01 -8.545054e-01 -4.601307e-01
   outer loop
     vertex  1.811111e+02  6.496948e+01  1.303889e+02
     vertex  1.800000e+02  6.603079e+01  1.290000e+02
     vertex  1.816667e+02  6.511193e+01  1.298333e+02
   endloop
 endfacet
 facet normal -2.264884e-01 -8.647612e-01 -4.482086e-01
   outer loop
     vertex  1.811111e+02  6.496948e+01  1.303889e+02
     vertex  1.816667e+02  6.511193e+01  1.298333e+02
     vertex  1.833333e+02  6.424349e+01  1.306667e+02
   endloop
 endfacet
 facet normal -2.050067e-01 -8.649013e-01 -4.581681e-01
   outer loop
     vertex  1.811111e+02  6.496948e+01  1.303889e+02
     vertex  1.827778e+02  6.369155e+01  1.320556e+02
     vertex  1.816667e+02  6.380776e+01  1.323333e+02
   endloop
 endfacet
 facet normal -2.294130e-01 -8.695493e-01 -4.373256e-01
   outer loop
     vertex  1.811111e+02  6.496948e+01  1.303889e+02
     vertex  1.833333e+02  6.424349e+01  1.306667e+02
     vertex  1.827778e+02  6.369155e+01  1.320556e+02
   endloop
 endfacet
 facet normal -2.336346e-01 -8.536906e-01 -4.654323e-01
   outer loop
     vertex  1.808333e+02  6.489406e+01  1.306667e+02
     vertex  1.800000e+02  6.603079e+01  1.290000e+02
     vertex  1.811111e+02  6.496948e+01  1.303889e+02
   endloop
 endfacet
 facet normal -2.190002e-01 -8.638949e-01 -4.535686e-01
   outer loop
     vertex  1.808333e+02  6.489406e+01  1.306667e+02
     vertex  1.811111e+02  6.496948e+01  1.303889e+02
     vertex  1.816667e+02  6.380776e+01  1.323333e+02
   endloop
 endfacet
 facet normal -2.427121e-01 -8.553359e-01 -4.577022e-01
   outer loop
     vertex  1.827778e+02  6.494528e+01  1.295556e+02
     vertex  1.816667e+02  6.511193e+01  1.298333e+02
     vertex  1.800000e+02  6.603079e+01  1.290000e+02
   endloop
 endfacet
 facet normal -2.382320e-01 -8.704890e-01 -4.306906e-01
   outer loop
     vertex  1.827778e+02  6.494528e+01  1.295556e+02
     vertex  1.833333e+02  6.424349e+01  1.306667e+02
     vertex  1.816667e+02  6.511193e+01  1.298333e+02
   endloop
 endfacet
 facet normal -2.470187e-01 -8.603193e-01 -4.459064e-01
   outer loop
     vertex  1.833333e+02  6.485775e+01  1.294167e+02
     vertex  1.827778e+02  6.494528e+01  1.295556e+02
     vertex  1.800000e+02  6.603079e+01  1.290000e+02
   endloop
 endfacet
 facet normal -2.440474e-01 -8.703538e-01 -4.276975e-01
   outer loop
     vertex  1.833333e+02  6.485775e+01  1.294167e+02
     vertex  1.833333e+02  6.424349e+01  1.306667e+02
     vertex  1.827778e+02  6.494528e+01  1.295556e+02
   endloop
 endfacet
 facet normal -1.890437e-01 -8.697238e-01 -4.558980e-01
   outer loop
     vertex  1.812500e+02  6.335230e+01  1.333750e+02
     vertex  1.808333e+02  6.355207e+01  1.331667e+02
     vertex  1.816667e+02  6.380776e+01  1.323333e+02
   endloop
 endfacet
 facet normal -1.791051e-01 -8.640973e-01 -4.703798e-01
   outer loop
     vertex  1.812500e+02  6.335230e+01  1.333750e+02
     vertex  1.800000e+02  6.327117e+01  1.340000e+02
     vertex  1.808333e+02  6.355207e+01  1.331667e+02
   endloop
 endfacet
 facet normal -2.299771e-01 -8.837539e-01 -4.075408e-01
   outer loop
     vertex  1.850000e+02  6.400192e+01  1.302500e+02
     vertex  1.850000e+02  6.342549e+01  1.315000e+02
     vertex  1.833333e+02  6.424349e+01  1.306667e+02
   endloop
 endfacet
 facet normal -2.341918e-01 -8.828407e-01 -4.071197e-01
   outer loop
     vertex  1.850000e+02  6.400192e+01  1.302500e+02
     vertex  1.861111e+02  6.364313e+01  1.303889e+02
     vertex  1.850000e+02  6.342549e+01  1.315000e+02
   endloop
 endfacet
 facet normal -2.336866e-01 -8.726412e-01 -4.288215e-01
   outer loop
     vertex  1.850000e+02  6.400192e+01  1.302500e+02
     vertex  1.833333e+02  6.424349e+01  1.306667e+02
     vertex  1.833333e+02  6.485775e+01  1.294167e+02
   endloop
 endfacet
 facet normal -1.839327e-01 -8.714850e-01 -4.546236e-01
   outer loop
     vertex  1.816667e+02  6.315568e+01  1.335833e+02
     vertex  1.812500e+02  6.335230e+01  1.333750e+02
     vertex  1.816667e+02  6.380776e+01  1.323333e+02
   endloop
 endfacet
 facet normal -1.934606e-01 -8.698618e-01 -4.537769e-01
   outer loop
     vertex  1.816667e+02  6.315568e+01  1.335833e+02
     vertex  1.816667e+02  6.380776e+01  1.323333e+02
     vertex  1.825000e+02  6.340507e+01  1.327500e+02
   endloop
 endfacet
 facet normal -1.764792e-01 -8.672542e-01 -4.655377e-01
   outer loop
     vertex  1.816667e+02  6.315568e+01  1.335833e+02
     vertex  1.800000e+02  6.327117e+01  1.340000e+02
     vertex  1.812500e+02  6.335230e+01  1.333750e+02
   endloop
 endfacet
 facet normal -1.757405e-01 -8.799807e-01 -4.413040e-01
   outer loop
     vertex  1.827778e+02  6.285572e+01  1.337222e+02
     vertex  1.900000e+02  6.127407e+01  1.340000e+02
     vertex  1.800000e+02  6.327117e+01  1.340000e+02
   endloop
 endfacet
 facet normal -1.898959e-01 -8.770361e-01 -4.413016e-01
   outer loop
     vertex  1.827778e+02  6.285572e+01  1.337222e+02
     vertex  1.825000e+02  6.340507e+01  1.327500e+02
     vertex  1.833333e+02  6.301498e+01  1.331667e+02
   endloop
 endfacet
 facet normal -1.842440e-01 -8.805582e-01 -4.366594e-01
   outer loop
     vertex  1.827778e+02  6.285572e+01  1.337222e+02
     vertex  1.833333e+02  6.301498e+01  1.331667e+02
     vertex  1.855556e+02  6.241226e+01  1.334444e+02
   endloop
 endfacet
 facet normal -1.813879e-01 -8.774827e-01 -4.439848e-01
   outer loop
     vertex  1.827778e+02  6.285572e+01  1.337222e+02
     vertex  1.816667e+02  6.315568e+01  1.335833e+02
     vertex  1.825000e+02  6.340507e+01  1.327500e+02
   endloop
 endfacet
 facet normal -1.762455e-01 -8.678983e-01 -4.644244e-01
   outer loop
     vertex  1.827778e+02  6.285572e+01  1.337222e+02
     vertex  1.800000e+02  6.327117e+01  1.340000e+02
     vertex  1.816667e+02  6.315568e+01  1.335833e+02
   endloop
 endfacet
 facet normal -2.472617e-01 -8.952349e-01 -3.706969e-01
   outer loop
     vertex  1.880556e+02  6.340904e+01  1.296944e+02
     vertex  1.875000e+02  6.333244e+01  1.302500e+02
     vertex  1.866667e+02  6.373514e+01  1.298333e+02
   endloop
 endfacet
 facet normal -2.395529e-01 -9.001982e-01 -3.636724e-01
   outer loop
     vertex  1.880556e+02  6.340904e+01  1.296944e+02
     vertex  1.883333e+02  6.294235e+01  1.306667e+02
     vertex  1.875000e+02  6.333244e+01  1.302500e+02
   endloop
 endfacet
 facet normal -2.584274e-01 -9.013731e-01 -3.474792e-01
   outer loop
     vertex  1.887500e+02  6.324337e+01  1.296250e+02
     vertex  1.883333e+02  6.344314e+01  1.294167e+02
     vertex  1.900000e+02  6.312593e+01  1.290000e+02
   endloop
 endfacet
 facet normal -2.529444e-01 -8.993873e-01 -3.565412e-01
   outer loop
     vertex  1.886111e+02  6.314478e+01  1.299722e+02
     vertex  1.883333e+02  6.344314e+01  1.294167e+02
     vertex  1.887500e+02  6.324337e+01  1.296250e+02
   endloop
 endfacet
 facet normal -2.472229e-01 -8.991990e-01 -3.610014e-01
   outer loop
     vertex  1.886111e+02  6.314478e+01  1.299722e+02
     vertex  1.883333e+02  6.294235e+01  1.306667e+02
     vertex  1.880556e+02  6.340904e+01  1.296944e+02
   endloop
 endfacet
 facet normal -2.484896e-01 -8.996805e-01 -3.589260e-01
   outer loop
     vertex  1.886111e+02  6.314478e+01  1.299722e+02
     vertex  1.880556e+02  6.340904e+01  1.296944e+02
     vertex  1.883333e+02  6.344314e+01  1.294167e+02
   endloop
 endfacet
 facet normal -2.558436e-01 -9.042908e-01 -3.417633e-01
   outer loop
     vertex  1.891667e+02  6.304675e+01  1.298333e+02
     vertex  1.887500e+02  6.324337e+01  1.296250e+02
     vertex  1.900000e+02  6.312593e+01  1.290000e+02
   endloop
 endfacet
 facet normal -2.478265e-01 -9.013943e-01 -3.550639e-01
   outer loop
     vertex  1.891667e+02  6.304675e+01  1.298333e+02
     vertex  1.886111e+02  6.314478e+01  1.299722e+02
     vertex  1.887500e+02  6.324337e+01  1.296250e+02
   endloop
 endfacet
 facet normal -2.414004e-01 -9.100154e-01 -3.370427e-01
   outer loop
     vertex  1.894444e+02  6.275890e+01  1.303889e+02
     vertex  1.900000e+02  6.312593e+01  1.290000e+02
     vertex  1.900000e+02  6.127407e+01  1.340000e+02
   endloop
 endfacet
 facet normal -2.375757e-01 -9.051573e-01 -3.524885e-01
   outer loop
     vertex  1.894444e+02  6.275890e+01  1.303889e+02
     vertex  1.888889e+02  6.236385e+01  1.317778e+02
     vertex  1.883333e+02  6.294235e+01  1.306667e+02
   endloop
 endfacet
 facet normal -2.551993e-01 -9.047014e-01 -3.411580e-01
   outer loop
     vertex  1.894444e+02  6.275890e+01  1.303889e+02
     vertex  1.891667e+02  6.304675e+01  1.298333e+02
     vertex  1.900000e+02  6.312593e+01  1.290000e+02
   endloop
 endfacet
 facet normal -2.386476e-01 -9.024974e-01 -3.585327e-01
   outer loop
     vertex  1.894444e+02  6.275890e+01  1.303889e+02
     vertex  1.883333e+02  6.294235e+01  1.306667e+02
     vertex  1.886111e+02  6.314478e+01  1.299722e+02
   endloop
 endfacet
 facet normal -2.462516e-01 -9.053536e-01 -3.459698e-01
   outer loop
     vertex  1.894444e+02  6.275890e+01  1.303889e+02
     vertex  1.886111e+02  6.314478e+01  1.299722e+02
     vertex  1.891667e+02  6.304675e+01  1.298333e+02
   endloop
 endfacet
 facet normal -2.003194e-01 -9.041183e-01 -3.774151e-01
   outer loop
     vertex  1.877778e+02  6.183196e+01  1.337222e+02
     vertex  1.866667e+02  6.265792e+01  1.323333e+02
     vertex  1.883333e+02  6.194078e+01  1.331667e+02
   endloop
 endfacet
 facet normal -1.873882e-01 -9.028385e-01 -3.869990e-01
   outer loop
     vertex  1.877778e+02  6.183196e+01  1.337222e+02
     vertex  1.855556e+02  6.241226e+01  1.334444e+02
     vertex  1.866667e+02  6.265792e+01  1.323333e+02
   endloop
 endfacet
 facet normal -1.834758e-01 -8.960848e-01 -4.041890e-01
   outer loop
     vertex  1.877778e+02  6.183196e+01  1.337222e+02
     vertex  1.827778e+02  6.285572e+01  1.337222e+02
     vertex  1.855556e+02  6.241226e+01  1.334444e+02
   endloop
 endfacet
 facet normal -1.839679e-01 -9.134880e-01 -3.628989e-01
   outer loop
     vertex  1.877778e+02  6.183196e+01  1.337222e+02
     vertex  1.883333e+02  6.194078e+01  1.331667e+02
     vertex  1.900000e+02  6.127407e+01  1.340000e+02
   endloop
 endfacet
 facet normal -1.885622e-01 -9.209267e-01 -3.410840e-01
   outer loop
     vertex  1.877778e+02  6.183196e+01  1.337222e+02
     vertex  1.900000e+02  6.127407e+01  1.340000e+02
     vertex  1.827778e+02  6.285572e+01  1.337222e+02
   endloop
 endfacet
 facet normal -1.834878e-01 -9.187734e-01 -3.495535e-01
   outer loop
     vertex  1.894444e+02  6.180775e+01  1.328889e+02
     vertex  1.894444e+02  6.275890e+01  1.303889e+02
     vertex  1.900000e+02  6.127407e+01  1.340000e+02
   endloop
 endfacet
 facet normal -1.958041e-01 -9.185869e-01 -3.433058e-01
   outer loop
     vertex  1.894444e+02  6.180775e+01  1.328889e+02
     vertex  1.900000e+02  6.127407e+01  1.340000e+02
     vertex  1.883333e+02  6.194078e+01  1.331667e+02
   endloop
 endfacet
 facet normal -1.986144e-01 -9.125789e-01 -3.574241e-01
   outer loop
     vertex  1.894444e+02  6.180775e+01  1.328889e+02
     vertex  1.883333e+02  6.194078e+01  1.331667e+02
     vertex  1.888889e+02  6.236385e+01  1.317778e+02
   endloop
 endfacet
 facet normal -2.189227e-01 -9.119694e-01 -3.469649e-01
   outer loop
     vertex  1.894444e+02  6.180775e+01  1.328889e+02
     vertex  1.888889e+02  6.236385e+01  1.317778e+02
     vertex  1.894444e+02  6.275890e+01  1.303889e+02
   endloop
 endfacet
 facet normal -1.973774e-01 -8.582802e-01 -4.737059e-01
   outer loop
     vertex  1.804167e+02  6.409522e+01  1.323333e+02
     vertex  1.800000e+02  6.327117e+01  1.340000e+02
     vertex  1.800000e+02  6.603079e+01  1.290000e+02
   endloop
 endfacet
 facet normal -1.985859e-01 -8.635352e-01 -4.635413e-01
   outer loop
     vertex  1.804167e+02  6.409522e+01  1.323333e+02
     vertex  1.816667e+02  6.380776e+01  1.323333e+02
     vertex  1.808333e+02  6.355207e+01  1.331667e+02
   endloop
 endfacet
 facet normal -2.307638e-01 -8.536884e-01 -4.668662e-01
   outer loop
     vertex  1.804167e+02  6.409522e+01  1.323333e+02
     vertex  1.800000e+02  6.603079e+01  1.290000e+02
     vertex  1.808333e+02  6.489406e+01  1.306667e+02
   endloop
 endfacet
 facet normal -1.985859e-01 -8.635352e-01 -4.635413e-01
   outer loop
     vertex  1.804167e+02  6.409522e+01  1.323333e+02
     vertex  1.808333e+02  6.489406e+01  1.306667e+02
     vertex  1.816667e+02  6.380776e+01  1.323333e+02
   endloop
 endfacet
 facet normal -1.810272e-01 -8.628730e-01 -4.718891e-01
   outer loop
     vertex  1.804167e+02  6.409522e+01  1.323333e+02
     vertex  1.808333e+02  6.355207e+01  1.331667e+02
     vertex  1.800000e+02  6.327117e+01  1.340000e+02
   endloop
 endfacet
 facet normal -2.577603e-01 -8.873400e-01 -3.823445e-01
   outer loop
     vertex  1.866667e+02  6.400445e+01  1.292083e+02
     vertex  1.800000e+02  6.603079e+01  1.290000e+02
     vertex  1.900000e+02  6.312593e+01  1.290000e+02
   endloop
 endfacet
 facet normal -2.590762e-01 -8.996795e-01 -3.513636e-01
   outer loop
     vertex  1.866667e+02  6.400445e+01  1.292083e+02
     vertex  1.900000e+02  6.312593e+01  1.290000e+02
     vertex  1.883333e+02  6.344314e+01  1.294167e+02
   endloop
 endfacet
 facet normal -2.366948e-01 -8.922764e-01 -3.844716e-01
   outer loop
     vertex  1.866667e+02  6.400445e+01  1.292083e+02
     vertex  1.866667e+02  6.373514e+01  1.298333e+02
     vertex  1.861111e+02  6.364313e+01  1.303889e+02
   endloop
 endfacet
 facet normal -2.483345e-01 -8.623776e-01 -4.411744e-01
   outer loop
     vertex  1.866667e+02  6.400445e+01  1.292083e+02
     vertex  1.833333e+02  6.485775e+01  1.294167e+02
     vertex  1.800000e+02  6.603079e+01  1.290000e+02
   endloop
 endfacet
 facet normal -2.395621e-01 -8.910855e-01 -3.854564e-01
   outer loop
     vertex  1.866667e+02  6.400445e+01  1.292083e+02
     vertex  1.861111e+02  6.364313e+01  1.303889e+02
     vertex  1.850000e+02  6.400192e+01  1.302500e+02
   endloop
 endfacet
 facet normal -2.505239e-01 -8.802578e-01 -4.029691e-01
   outer loop
     vertex  1.866667e+02  6.400445e+01  1.292083e+02
     vertex  1.850000e+02  6.400192e+01  1.302500e+02
     vertex  1.833333e+02  6.485775e+01  1.294167e+02
   endloop
 endfacet
 facet normal -2.472714e-01 -8.898539e-01 -3.834277e-01
   outer loop
     vertex  1.866667e+02  6.400445e+01  1.292083e+02
     vertex  1.880556e+02  6.340904e+01  1.296944e+02
     vertex  1.866667e+02  6.373514e+01  1.298333e+02
   endloop
 endfacet
 facet normal -2.557135e-01 -8.949682e-01 -3.655715e-01
   outer loop
     vertex  1.866667e+02  6.400445e+01  1.292083e+02
     vertex  1.883333e+02  6.344314e+01  1.294167e+02
     vertex  1.880556e+02  6.340904e+01  1.296944e+02
   endloop
 endfacet
 facet normal -1.000000e+00  0.000000e+00  0.000000e+00
   outer loop
     vertex  1.800000e+02  6.327117e+01  1.340000e+02
     vertex  1.800000e+02  1.517288e+02  1.340000e+02
     vertex  1.800000e+02  1.489692e+02  1.290000e+02
   endloop
 endfacet
 facet normal -1.000000e+00  0.000000e+00  0.000000e+00
   outer loop
     vertex  1.800000e+02  6.603079e+01  1.290000e+02
     vertex  1.800000e+02  6.327117e+01  1.340000e+02
     vertex  1.800000e+02  1.489692e+02  1.290000e+02
   endloop
 endfacet
 facet normal -2.255829e-01  8.696770e-01 -4.390607e-01
   outer loop
     vertex  1.825000e+02  1.503286e+02  1.302500e+02
     vertex  1.816667e+02  1.503228e+02  1.306667e+02
     vertex  1.827778e+02  1.507512e+02  1.309444e+02
   endloop
 endfacet
 facet normal -2.219423e-01  8.932712e-01 -3.909068e-01
   outer loop
     vertex  1.861111e+02  1.523368e+02  1.326111e+02
     vertex  1.866667e+02  1.516239e+02  1.306667e+02
     vertex  1.850000e+02  1.515745e+02  1.315000e+02
   endloop
 endfacet
 facet normal -2.125605e-01  8.793089e-01 -4.261854e-01
   outer loop
     vertex  1.838889e+02  1.507674e+02  1.303889e+02
     vertex  1.833333e+02  1.515755e+02  1.323333e+02
     vertex  1.850000e+02  1.515745e+02  1.315000e+02
   endloop
 endfacet
 facet normal -2.268777e-01  8.746685e-01 -4.283474e-01
   outer loop
     vertex  1.838889e+02  1.507674e+02  1.303889e+02
     vertex  1.827778e+02  1.507512e+02  1.309444e+02
     vertex  1.833333e+02  1.515755e+02  1.323333e+02
   endloop
 endfacet
 facet normal -2.364018e-01  8.691404e-01 -4.344066e-01
   outer loop
     vertex  1.833333e+02  1.503470e+02  1.298333e+02
     vertex  1.825000e+02  1.503286e+02  1.302500e+02
     vertex  1.827778e+02  1.507512e+02  1.309444e+02
   endloop
 endfacet
 facet normal -2.285349e-01  8.725751e-01 -4.317227e-01
   outer loop
     vertex  1.833333e+02  1.503470e+02  1.298333e+02
     vertex  1.827778e+02  1.507512e+02  1.309444e+02
     vertex  1.838889e+02  1.507674e+02  1.303889e+02
   endloop
 endfacet
 facet normal -2.072401e-01  8.978856e-01 -3.883979e-01
   outer loop
     vertex  1.872222e+02  1.523530e+02  1.320556e+02
     vertex  1.866667e+02  1.516239e+02  1.306667e+02
     vertex  1.861111e+02  1.523368e+02  1.326111e+02
   endloop
 endfacet
 facet normal -2.054316e-01  8.998812e-01 -3.847229e-01
   outer loop
     vertex  1.872222e+02  1.523530e+02  1.320556e+02
     vertex  1.861111e+02  1.523368e+02  1.326111e+02
     vertex  1.866667e+02  1.527012e+02  1.331667e+02
   endloop
 endfacet
 facet normal -1.970577e-01  9.031011e-01 -3.815450e-01
   outer loop
     vertex  1.872222e+02  1.523530e+02  1.320556e+02
     vertex  1.866667e+02  1.527012e+02  1.331667e+02
     vertex  1.875000e+02  1.527070e+02  1.327500e+02
   endloop
 endfacet
 facet normal -2.083229e-01  9.025767e-01 -3.767716e-01
   outer loop
     vertex  1.883333e+02  1.527254e+02  1.323333e+02
     vertex  1.872222e+02  1.523530e+02  1.320556e+02
     vertex  1.875000e+02  1.527070e+02  1.327500e+02
   endloop
 endfacet
 facet normal -2.258401e-01  8.968232e-01 -3.804003e-01
   outer loop
     vertex  1.888889e+02  1.524192e+02  1.312222e+02
     vertex  1.866667e+02  1.516239e+02  1.306667e+02
     vertex  1.872222e+02  1.523530e+02  1.320556e+02
   endloop
 endfacet
 facet normal -2.150700e-01  9.086462e-01 -3.579204e-01
   outer loop
     vertex  1.888889e+02  1.524192e+02  1.312222e+02
     vertex  1.872222e+02  1.523530e+02  1.320556e+02
     vertex  1.883333e+02  1.527254e+02  1.323333e+02
   endloop
 endfacet
 facet normal -2.336305e-01  9.036305e-01 -3.589828e-01
   outer loop
     vertex  1.883333e+02  1.517238e+02  1.298333e+02
     vertex  1.866667e+02  1.516239e+02  1.306667e+02
     vertex  1.888889e+02  1.524192e+02  1.312222e+02
   endloop
 endfacet
 facet normal -1.802371e-01  8.660466e-01 -4.663453e-01
   outer loop
     vertex  1.811111e+02  1.512122e+02  1.326111e+02
     vertex  1.800000e+02  1.517288e+02  1.340000e+02
     vertex  1.816667e+02  1.516270e+02  1.331667e+02
   endloop
 endfacet
 facet normal -1.867577e-01  8.625421e-01 -4.702582e-01
   outer loop
     vertex  1.808333e+02  1.510006e+02  1.323333e+02
     vertex  1.800000e+02  1.517288e+02  1.340000e+02
     vertex  1.811111e+02  1.512122e+02  1.326111e+02
   endloop
 endfacet
 facet normal -1.790707e-01  8.674486e-01 -4.641838e-01
   outer loop
     vertex  1.827778e+02  1.520050e+02  1.334444e+02
     vertex  1.816667e+02  1.516270e+02  1.331667e+02
     vertex  1.800000e+02  1.517288e+02  1.340000e+02
   endloop
 endfacet
 facet normal -1.774329e-01  8.737453e-01 -4.528651e-01
   outer loop
     vertex  1.833333e+02  1.521898e+02  1.335833e+02
     vertex  1.827778e+02  1.520050e+02  1.334444e+02
     vertex  1.800000e+02  1.517288e+02  1.340000e+02
   endloop
 endfacet
 facet normal -1.850384e-01  8.819925e-01 -4.334168e-01
   outer loop
     vertex  1.833333e+02  1.521898e+02  1.335833e+02
     vertex  1.833333e+02  1.515755e+02  1.323333e+02
     vertex  1.827778e+02  1.520050e+02  1.334444e+02
   endloop
 endfacet
 facet normal -1.986421e-01  8.701400e-01 -4.509964e-01
   outer loop
     vertex  1.822222e+02  1.511779e+02  1.320556e+02
     vertex  1.811111e+02  1.512122e+02  1.326111e+02
     vertex  1.816667e+02  1.516270e+02  1.331667e+02
   endloop
 endfacet
 facet normal -2.232896e-01  8.673940e-01 -4.447127e-01
   outer loop
     vertex  1.822222e+02  1.511779e+02  1.320556e+02
     vertex  1.827778e+02  1.507512e+02  1.309444e+02
     vertex  1.816667e+02  1.503228e+02  1.306667e+02
   endloop
 endfacet
 facet normal -2.037964e-01  8.755258e-01 -4.380886e-01
   outer loop
     vertex  1.822222e+02  1.511779e+02  1.320556e+02
     vertex  1.833333e+02  1.515755e+02  1.323333e+02
     vertex  1.827778e+02  1.507512e+02  1.309444e+02
   endloop
 endfacet
 facet normal -2.020471e-01  8.659262e-01 -4.575465e-01
   outer loop
     vertex  1.822222e+02  1.511779e+02  1.320556e+02
     vertex  1.808333e+02  1.510006e+02  1.323333e+02
     vertex  1.811111e+02  1.512122e+02  1.326111e+02
   endloop
 endfacet
 facet normal -2.015618e-01  8.680154e-01 -4.537864e-01
   outer loop
     vertex  1.822222e+02  1.511779e+02  1.320556e+02
     vertex  1.816667e+02  1.503228e+02  1.306667e+02
     vertex  1.808333e+02  1.510006e+02  1.323333e+02
   endloop
 endfacet
 facet normal -1.860483e-01  8.751196e-01 -4.467121e-01
   outer loop
     vertex  1.822222e+02  1.511779e+02  1.320556e+02
     vertex  1.816667e+02  1.516270e+02  1.331667e+02
     vertex  1.827778e+02  1.520050e+02  1.334444e+02
   endloop
 endfacet
 facet normal -2.031511e-01  8.748596e-01 -4.397162e-01
   outer loop
     vertex  1.822222e+02  1.511779e+02  1.320556e+02
     vertex  1.827778e+02  1.520050e+02  1.334444e+02
     vertex  1.833333e+02  1.515755e+02  1.323333e+02
   endloop
 endfacet
 facet normal -2.411562e-01  8.523776e-01 -4.640000e-01
   outer loop
     vertex  1.812500e+02  1.496631e+02  1.296250e+02
     vertex  1.800000e+02  1.489692e+02  1.290000e+02
     vertex  1.808333e+02  1.496586e+02  1.298333e+02
   endloop
 endfacet
 facet normal -2.348880e-01  8.609145e-01 -4.512802e-01
   outer loop
     vertex  1.812500e+02  1.496631e+02  1.296250e+02
     vertex  1.808333e+02  1.496586e+02  1.298333e+02
     vertex  1.816667e+02  1.503228e+02  1.306667e+02
   endloop
 endfacet
 facet normal -2.044231e-01  8.889179e-01 -4.099222e-01
   outer loop
     vertex  1.850000e+02  1.521509e+02  1.327500e+02
     vertex  1.850000e+02  1.515745e+02  1.315000e+02
     vertex  1.833333e+02  1.515755e+02  1.323333e+02
   endloop
 endfacet
 facet normal -2.001216e-01  8.897247e-01 -4.102942e-01
   outer loop
     vertex  1.850000e+02  1.521509e+02  1.327500e+02
     vertex  1.861111e+02  1.523368e+02  1.326111e+02
     vertex  1.850000e+02  1.515745e+02  1.315000e+02
   endloop
 endfacet
 facet normal -1.957440e-01  8.801290e-01 -4.325011e-01
   outer loop
     vertex  1.850000e+02  1.521509e+02  1.327500e+02
     vertex  1.833333e+02  1.515755e+02  1.323333e+02
     vertex  1.833333e+02  1.521898e+02  1.335833e+02
   endloop
 endfacet
 facet normal -2.310059e-01  8.626309e-01 -4.500047e-01
   outer loop
     vertex  1.816667e+02  1.496707e+02  1.294167e+02
     vertex  1.816667e+02  1.503228e+02  1.306667e+02
     vertex  1.825000e+02  1.503286e+02  1.302500e+02
   endloop
 endfacet
 facet normal -2.401465e-01  8.642136e-01 -4.421136e-01
   outer loop
     vertex  1.816667e+02  1.496707e+02  1.294167e+02
     vertex  1.825000e+02  1.503286e+02  1.302500e+02
     vertex  1.833333e+02  1.503470e+02  1.298333e+02
   endloop
 endfacet
 facet normal -2.449168e-01  8.542491e-01 -4.585566e-01
   outer loop
     vertex  1.816667e+02  1.496707e+02  1.294167e+02
     vertex  1.800000e+02  1.489692e+02  1.290000e+02
     vertex  1.812500e+02  1.496631e+02  1.296250e+02
   endloop
 endfacet
 facet normal -2.402402e-01  8.606459e-01 -4.489692e-01
   outer loop
     vertex  1.816667e+02  1.496707e+02  1.294167e+02
     vertex  1.812500e+02  1.496631e+02  1.296250e+02
     vertex  1.816667e+02  1.503228e+02  1.306667e+02
   endloop
 endfacet
 facet normal -1.939634e-01  9.063774e-01 -3.753108e-01
   outer loop
     vertex  1.880556e+02  1.530559e+02  1.333056e+02
     vertex  1.875000e+02  1.527070e+02  1.327500e+02
     vertex  1.866667e+02  1.527012e+02  1.331667e+02
   endloop
 endfacet
 facet normal -2.034259e-01  9.078077e-01 -3.667466e-01
   outer loop
     vertex  1.880556e+02  1.530559e+02  1.333056e+02
     vertex  1.883333e+02  1.527254e+02  1.323333e+02
     vertex  1.875000e+02  1.527070e+02  1.327500e+02
   endloop
 endfacet
 facet normal -2.299771e-01  8.837539e-01 -4.075408e-01
   outer loop
     vertex  1.850000e+02  1.509981e+02  1.302500e+02
     vertex  1.850000e+02  1.515745e+02  1.315000e+02
     vertex  1.866667e+02  1.516239e+02  1.306667e+02
   endloop
 endfacet
 facet normal -2.341918e-01  8.828407e-01 -4.071197e-01
   outer loop
     vertex  1.850000e+02  1.509981e+02  1.302500e+02
     vertex  1.838889e+02  1.507674e+02  1.303889e+02
     vertex  1.850000e+02  1.515745e+02  1.315000e+02
   endloop
 endfacet
 facet normal -2.346742e-01  8.735871e-01 -4.263492e-01
   outer loop
     vertex  1.850000e+02  1.509981e+02  1.302500e+02
     vertex  1.833333e+02  1.503470e+02  1.298333e+02
     vertex  1.838889e+02  1.507674e+02  1.303889e+02
   endloop
 endfacet
 facet normal -1.958915e-01  9.100260e-01 -3.653481e-01
   outer loop
     vertex  1.886111e+02  1.530640e+02  1.330278e+02
     vertex  1.883333e+02  1.527254e+02  1.323333e+02
     vertex  1.880556e+02  1.530559e+02  1.333056e+02
   endloop
 endfacet
 facet normal -1.935342e-01  9.124355e-01 -3.605634e-01
   outer loop
     vertex  1.886111e+02  1.530640e+02  1.330278e+02
     vertex  1.880556e+02  1.530559e+02  1.333056e+02
     vertex  1.887500e+02  1.532306e+02  1.333750e+02
   endloop
 endfacet
 facet normal -1.903444e-01  9.183214e-01 -3.470659e-01
   outer loop
     vertex  1.891667e+02  1.532383e+02  1.331667e+02
     vertex  1.887500e+02  1.532306e+02  1.333750e+02
     vertex  1.900000e+02  1.537259e+02  1.340000e+02
   endloop
 endfacet
 facet normal -1.963814e-01  9.123017e-01 -3.593604e-01
   outer loop
     vertex  1.891667e+02  1.532383e+02  1.331667e+02
     vertex  1.886111e+02  1.530640e+02  1.330278e+02
     vertex  1.887500e+02  1.532306e+02  1.333750e+02
   endloop
 endfacet
 facet normal -2.063826e-01  9.175603e-01 -3.398372e-01
   outer loop
     vertex  1.894444e+02  1.530866e+02  1.326111e+02
     vertex  1.900000e+02  1.537259e+02  1.340000e+02
     vertex  1.900000e+02  1.518741e+02  1.290000e+02
   endloop
 endfacet
 facet normal -2.075822e-01  9.115390e-01 -3.549737e-01
   outer loop
     vertex  1.894444e+02  1.530866e+02  1.326111e+02
     vertex  1.888889e+02  1.524192e+02  1.312222e+02
     vertex  1.883333e+02  1.527254e+02  1.323333e+02
   endloop
 endfacet
 facet normal -1.911393e-01  9.184320e-01 -3.463357e-01
   outer loop
     vertex  1.894444e+02  1.530866e+02  1.326111e+02
     vertex  1.891667e+02  1.532383e+02  1.331667e+02
     vertex  1.900000e+02  1.537259e+02  1.340000e+02
   endloop
 endfacet
 facet normal -2.053443e-01  9.095452e-01 -3.613326e-01
   outer loop
     vertex  1.894444e+02  1.530866e+02  1.326111e+02
     vertex  1.883333e+02  1.527254e+02  1.323333e+02
     vertex  1.886111e+02  1.530640e+02  1.330278e+02
   endloop
 endfacet
 facet normal -1.997193e-01  9.152993e-01 -3.497704e-01
   outer loop
     vertex  1.894444e+02  1.530866e+02  1.326111e+02
     vertex  1.886111e+02  1.530640e+02  1.330278e+02
     vertex  1.891667e+02  1.532383e+02  1.331667e+02
   endloop
 endfacet
 facet normal -2.577603e-01  8.873400e-01 -3.823445e-01
   outer loop
     vertex  1.866667e+02  1.510853e+02  1.294167e+02
     vertex  1.900000e+02  1.518741e+02  1.290000e+02
     vertex  1.800000e+02  1.489692e+02  1.290000e+02
   endloop
 endfacet
 facet normal -2.388170e-01  8.917994e-01 -3.842660e-01
   outer loop
     vertex  1.866667e+02  1.510853e+02  1.294167e+02
     vertex  1.850000e+02  1.509981e+02  1.302500e+02
     vertex  1.866667e+02  1.516239e+02  1.306667e+02
   endloop
 endfacet
 facet normal -2.404330e-01  8.498212e-01 -4.690371e-01
   outer loop
     vertex  1.866667e+02  1.510853e+02  1.294167e+02
     vertex  1.800000e+02  1.489692e+02  1.290000e+02
     vertex  1.816667e+02  1.496707e+02  1.294167e+02
   endloop
 endfacet
 facet normal -2.461097e-01  8.698859e-01 -4.274675e-01
   outer loop
     vertex  1.866667e+02  1.510853e+02  1.294167e+02
     vertex  1.816667e+02  1.496707e+02  1.294167e+02
     vertex  1.833333e+02  1.503470e+02  1.298333e+02
   endloop
 endfacet
 facet normal -2.455478e-01  8.836513e-01 -3.985807e-01
   outer loop
     vertex  1.866667e+02  1.510853e+02  1.294167e+02
     vertex  1.833333e+02  1.503470e+02  1.298333e+02
     vertex  1.850000e+02  1.509981e+02  1.302500e+02
   endloop
 endfacet
 facet normal -2.440350e-01  8.916931e-01 -3.812222e-01
   outer loop
     vertex  1.872222e+02  1.513009e+02  1.295556e+02
     vertex  1.866667e+02  1.516239e+02  1.306667e+02
     vertex  1.883333e+02  1.517238e+02  1.298333e+02
   endloop
 endfacet
 facet normal -2.572600e-01  8.959877e-01 -3.619714e-01
   outer loop
     vertex  1.872222e+02  1.513009e+02  1.295556e+02
     vertex  1.900000e+02  1.518741e+02  1.290000e+02
     vertex  1.866667e+02  1.510853e+02  1.294167e+02
   endloop
 endfacet
 facet normal -2.493763e-01  8.893584e-01 -3.832142e-01
   outer loop
     vertex  1.872222e+02  1.513009e+02  1.295556e+02
     vertex  1.866667e+02  1.510853e+02  1.294167e+02
     vertex  1.866667e+02  1.516239e+02  1.306667e+02
   endloop
 endfacet
 facet normal -2.558152e-01  9.015120e-01 -3.490483e-01
   outer loop
     vertex  1.872222e+02  1.513009e+02  1.295556e+02
     vertex  1.883333e+02  1.517238e+02  1.298333e+02
     vertex  1.900000e+02  1.518741e+02  1.290000e+02
   endloop
 endfacet
 facet normal -2.276535e-01  9.101001e-01 -3.462537e-01
   outer loop
     vertex  1.894444e+02  1.521354e+02  1.301111e+02
     vertex  1.888889e+02  1.524192e+02  1.312222e+02
     vertex  1.894444e+02  1.530866e+02  1.326111e+02
   endloop
 endfacet
 facet normal -2.511867e-01  9.066865e-01 -3.388582e-01
   outer loop
     vertex  1.894444e+02  1.521354e+02  1.301111e+02
     vertex  1.900000e+02  1.518741e+02  1.290000e+02
     vertex  1.883333e+02  1.517238e+02  1.298333e+02
   endloop
 endfacet
 facet normal -2.459862e-01  9.025187e-01 -3.534838e-01
   outer loop
     vertex  1.894444e+02  1.521354e+02  1.301111e+02
     vertex  1.883333e+02  1.517238e+02  1.298333e+02
     vertex  1.888889e+02  1.524192e+02  1.312222e+02
   endloop
 endfacet
 facet normal -2.620156e-01  9.019888e-01 -3.431677e-01
   outer loop
     vertex  1.894444e+02  1.521354e+02  1.301111e+02
     vertex  1.894444e+02  1.530866e+02  1.326111e+02
     vertex  1.900000e+02  1.518741e+02  1.290000e+02
   endloop
 endfacet
 facet normal -2.221379e-01  8.536293e-01 -4.711389e-01
   outer loop
     vertex  1.804167e+02  1.499975e+02  1.306667e+02
     vertex  1.800000e+02  1.489692e+02  1.290000e+02
     vertex  1.800000e+02  1.517288e+02  1.340000e+02
   endloop
 endfacet
 facet normal -2.388914e-01  8.519657e-01 -4.659241e-01
   outer loop
     vertex  1.804167e+02  1.499975e+02  1.306667e+02
     vertex  1.808333e+02  1.496586e+02  1.298333e+02
     vertex  1.800000e+02  1.489692e+02  1.290000e+02
   endloop
 endfacet
 facet normal -1.894250e-01  8.614842e-01 -4.711296e-01
   outer loop
     vertex  1.804167e+02  1.499975e+02  1.306667e+02
     vertex  1.800000e+02  1.517288e+02  1.340000e+02
     vertex  1.808333e+02  1.510006e+02  1.323333e+02
   endloop
 endfacet
 facet normal -2.234831e-01  8.587988e-01 -4.609989e-01
   outer loop
     vertex  1.804167e+02  1.499975e+02  1.306667e+02
     vertex  1.808333e+02  1.510006e+02  1.323333e+02
     vertex  1.816667e+02  1.503228e+02  1.306667e+02
   endloop
 endfacet
 facet normal -2.234831e-01  8.587988e-01 -4.609989e-01
   outer loop
     vertex  1.804167e+02  1.499975e+02  1.306667e+02
     vertex  1.816667e+02  1.503228e+02  1.306667e+02
     vertex  1.808333e+02  1.496586e+02  1.298333e+02
   endloop
 endfacet
 facet normal -1.803987e-01  9.033056e-01 -3.892239e-01
   outer loop
     vertex  1.866667e+02  1.529705e+02  1.337917e+02
     vertex  1.800000e+02  1.517288e+02  1.340000e+02
     vertex  1.900000e+02  1.537259e+02  1.340000e+02
   endloop
 endfacet
 facet normal -1.771906e-01  8.761787e-01 -4.482347e-01
   outer loop
     vertex  1.866667e+02  1.529705e+02  1.337917e+02
     vertex  1.833333e+02  1.521898e+02  1.335833e+02
     vertex  1.800000e+02  1.517288e+02  1.340000e+02
   endloop
 endfacet
 facet normal -2.022945e-01  8.993852e-01 -3.875347e-01
   outer loop
     vertex  1.866667e+02  1.529705e+02  1.337917e+02
     vertex  1.866667e+02  1.527012e+02  1.331667e+02
     vertex  1.861111e+02  1.523368e+02  1.326111e+02
   endloop
 endfacet
 facet normal -1.854526e-01  9.162168e-01 -3.551817e-01
   outer loop
     vertex  1.866667e+02  1.529705e+02  1.337917e+02
     vertex  1.900000e+02  1.537259e+02  1.340000e+02
     vertex  1.887500e+02  1.532306e+02  1.333750e+02
   endloop
 endfacet
 facet normal -1.990932e-01  8.994371e-01 -3.890690e-01
   outer loop
     vertex  1.866667e+02  1.529705e+02  1.337917e+02
     vertex  1.861111e+02  1.523368e+02  1.326111e+02
     vertex  1.850000e+02  1.521509e+02  1.327500e+02
   endloop
 endfacet
 facet normal -1.837533e-01  8.937711e-01 -4.091553e-01
   outer loop
     vertex  1.866667e+02  1.529705e+02  1.337917e+02
     vertex  1.850000e+02  1.521509e+02  1.327500e+02
     vertex  1.833333e+02  1.521898e+02  1.335833e+02
   endloop
 endfacet
 facet normal -1.913824e-01  9.013972e-01 -3.884016e-01
   outer loop
     vertex  1.866667e+02  1.529705e+02  1.337917e+02
     vertex  1.880556e+02  1.530559e+02  1.333056e+02
     vertex  1.866667e+02  1.527012e+02  1.331667e+02
   endloop
 endfacet
 facet normal -1.893790e-01  9.044941e-01 -3.821335e-01
   outer loop
     vertex  1.866667e+02  1.529705e+02  1.337917e+02
     vertex  1.887500e+02  1.532306e+02  1.333750e+02
     vertex  1.880556e+02  1.530559e+02  1.333056e+02
   endloop
 endfacet
 facet normal -1.000000e+00 -0.000000e+00  0.000000e+00
   outer loop
     vertex  1.900000e+02  1.662741e+02  1.340000e+02
     vertex  1.900000e+02  1.518741e+02  1.290000e+02
     vertex  1.900000e+02  1.537259e+02  1.340000e+02
   endloop
 endfacet
 facet normal -1.000000e+00  0.000000e+00 -0.000000e+00
   outer loop
     vertex  1.900000e+02  1.662741e+02  1.340000e+02
     vertex  1.900000e+02  1.681259e+02  1.290000e+02
     vertex  1.900000e+02  1.518741e+02  1.290000e+02
   endloop
 endfacet
 facet normal -2.018013e-01 -8.743212e-01 -4.414053e-01
   outer loop
     vertex  1.825000e+02  1.684051e+02  1.327500e+02
     vertex  1.816667e+02  1.688078e+02  1.323333e+02
     vertex  1.827778e+02  1.686915e+02  1.320556e+02
   endloop
 endfacet
 facet normal -2.162203e-01 -8.944483e-01 -3.914219e-01
   outer loop
     vertex  1.861111e+02  1.686431e+02  1.303889e+02
     vertex  1.866667e+02  1.676579e+02  1.323333e+02
     vertex  1.850000e+02  1.684255e+02  1.315000e+02
   endloop
 endfacet
 facet normal -2.181953e-01 -8.781905e-01 -4.256433e-01
   outer loop
     vertex  1.838889e+02  1.681630e+02  1.326111e+02
     vertex  1.833333e+02  1.692435e+02  1.306667e+02
     vertex  1.850000e+02  1.684255e+02  1.315000e+02
   endloop
 endfacet
 facet normal -2.029720e-01 -8.793936e-01 -4.306614e-01
   outer loop
     vertex  1.838889e+02  1.681630e+02  1.326111e+02
     vertex  1.827778e+02  1.686915e+02  1.320556e+02
     vertex  1.833333e+02  1.692435e+02  1.306667e+02
   endloop
 endfacet
 facet normal -1.915650e-01 -8.779284e-01 -4.387989e-01
   outer loop
     vertex  1.833333e+02  1.680150e+02  1.331667e+02
     vertex  1.825000e+02  1.684051e+02  1.327500e+02
     vertex  1.827778e+02  1.686915e+02  1.320556e+02
   endloop
 endfacet
 facet normal -2.004597e-01 -8.781019e-01 -4.344572e-01
   outer loop
     vertex  1.833333e+02  1.680150e+02  1.331667e+02
     vertex  1.827778e+02  1.686915e+02  1.320556e+02
     vertex  1.838889e+02  1.681630e+02  1.326111e+02
   endloop
 endfacet
 facet normal -2.315957e-01 -8.928579e-01 -3.862230e-01
   outer loop
     vertex  1.872222e+02  1.681146e+02  1.309444e+02
     vertex  1.866667e+02  1.676579e+02  1.323333e+02
     vertex  1.861111e+02  1.686431e+02  1.303889e+02
   endloop
 endfacet
 facet normal -2.341295e-01 -8.939357e-01 -3.821810e-01
   outer loop
     vertex  1.872222e+02  1.681146e+02  1.309444e+02
     vertex  1.861111e+02  1.686431e+02  1.303889e+02
     vertex  1.866667e+02  1.687351e+02  1.298333e+02
   endloop
 endfacet
 facet normal -2.430394e-01 -8.935436e-01 -3.775071e-01
   outer loop
     vertex  1.872222e+02  1.681146e+02  1.309444e+02
     vertex  1.866667e+02  1.687351e+02  1.298333e+02
     vertex  1.875000e+02  1.683324e+02  1.302500e+02
   endloop
 endfacet
 facet normal -2.327921e-01 -8.974702e-01 -3.746399e-01
   outer loop
     vertex  1.883333e+02  1.679424e+02  1.306667e+02
     vertex  1.872222e+02  1.681146e+02  1.309444e+02
     vertex  1.875000e+02  1.683324e+02  1.302500e+02
   endloop
 endfacet
 facet normal -2.077897e-01 -8.905374e-01 -4.046809e-01
   outer loop
     vertex  1.855556e+02  1.674123e+02  1.334444e+02
     vertex  1.850000e+02  1.684255e+02  1.315000e+02
     vertex  1.866667e+02  1.676579e+02  1.323333e+02
   endloop
 endfacet
 facet normal -1.974895e-01 -8.913457e-01 -4.080450e-01
   outer loop
     vertex  1.855556e+02  1.674123e+02  1.334444e+02
     vertex  1.838889e+02  1.681630e+02  1.326111e+02
     vertex  1.850000e+02  1.684255e+02  1.315000e+02
   endloop
 endfacet
 facet normal -1.874219e-01 -8.862524e-01 -4.235914e-01
   outer loop
     vertex  1.855556e+02  1.674123e+02  1.334444e+02
     vertex  1.833333e+02  1.680150e+02  1.331667e+02
     vertex  1.838889e+02  1.681630e+02  1.326111e+02
   endloop
 endfacet
 facet normal -2.143482e-01 -8.992103e-01 -3.814128e-01
   outer loop
     vertex  1.888889e+02  1.673638e+02  1.317778e+02
     vertex  1.866667e+02  1.676579e+02  1.323333e+02
     vertex  1.872222e+02  1.681146e+02  1.309444e+02
   endloop
 endfacet
 facet normal -2.295652e-01 -9.055708e-01 -3.567090e-01
   outer loop
     vertex  1.888889e+02  1.673638e+02  1.317778e+02
     vertex  1.872222e+02  1.681146e+02  1.309444e+02
     vertex  1.883333e+02  1.679424e+02  1.306667e+02
   endloop
 endfacet
 facet normal -2.104616e-01 -9.085344e-01 -3.609310e-01
   outer loop
     vertex  1.883333e+02  1.669408e+02  1.331667e+02
     vertex  1.866667e+02  1.676579e+02  1.323333e+02
     vertex  1.888889e+02  1.673638e+02  1.317778e+02
   endloop
 endfacet
 facet normal -2.410400e-01 -8.545054e-01 -4.601307e-01
   outer loop
     vertex  1.811111e+02  1.699695e+02  1.303889e+02
     vertex  1.800000e+02  1.710308e+02  1.290000e+02
     vertex  1.816667e+02  1.701119e+02  1.298333e+02
   endloop
 endfacet
 facet normal -2.336346e-01 -8.536906e-01 -4.654323e-01
   outer loop
     vertex  1.808333e+02  1.698941e+02  1.306667e+02
     vertex  1.800000e+02  1.710308e+02  1.290000e+02
     vertex  1.811111e+02  1.699695e+02  1.303889e+02
   endloop
 endfacet
 facet normal -2.427121e-01 -8.553359e-01 -4.577022e-01
   outer loop
     vertex  1.827778e+02  1.699453e+02  1.295556e+02
     vertex  1.816667e+02  1.701119e+02  1.298333e+02
     vertex  1.800000e+02  1.710308e+02  1.290000e+02
   endloop
 endfacet
 facet normal -2.382320e-01 -8.704890e-01 -4.306906e-01
   outer loop
     vertex  1.827778e+02  1.699453e+02  1.295556e+02
     vertex  1.833333e+02  1.692435e+02  1.306667e+02
     vertex  1.816667e+02  1.701119e+02  1.298333e+02
   endloop
 endfacet
 facet normal -2.470187e-01 -8.603193e-01 -4.459064e-01
   outer loop
     vertex  1.833333e+02  1.698578e+02  1.294167e+02
     vertex  1.827778e+02  1.699453e+02  1.295556e+02
     vertex  1.800000e+02  1.710308e+02  1.290000e+02
   endloop
 endfacet
 facet normal -2.440474e-01 -8.703538e-01 -4.276975e-01
   outer loop
     vertex  1.833333e+02  1.698578e+02  1.294167e+02
     vertex  1.833333e+02  1.692435e+02  1.306667e+02
     vertex  1.827778e+02  1.699453e+02  1.295556e+02
   endloop
 endfacet
 facet normal -1.791051e-01 -8.640973e-01 -4.703798e-01
   outer loop
     vertex  1.812500e+02  1.683523e+02  1.333750e+02
     vertex  1.800000e+02  1.682712e+02  1.340000e+02
     vertex  1.808333e+02  1.685521e+02  1.331667e+02
   endloop
 endfacet
 facet normal -1.890437e-01 -8.697238e-01 -4.558980e-01
   outer loop
     vertex  1.812500e+02  1.683523e+02  1.333750e+02
     vertex  1.808333e+02  1.685521e+02  1.331667e+02
     vertex  1.816667e+02  1.688078e+02  1.323333e+02
   endloop
 endfacet
 facet normal -2.299771e-01 -8.837539e-01 -4.075408e-01
   outer loop
     vertex  1.850000e+02  1.690019e+02  1.302500e+02
     vertex  1.850000e+02  1.684255e+02  1.315000e+02
     vertex  1.833333e+02  1.692435e+02  1.306667e+02
   endloop
 endfacet
 facet normal -2.341918e-01 -8.828407e-01 -4.071197e-01
   outer loop
     vertex  1.850000e+02  1.690019e+02  1.302500e+02
     vertex  1.861111e+02  1.686431e+02  1.303889e+02
     vertex  1.850000e+02  1.684255e+02  1.315000e+02
   endloop
 endfacet
 facet normal -2.336866e-01 -8.726412e-01 -4.288215e-01
   outer loop
     vertex  1.850000e+02  1.690019e+02  1.302500e+02
     vertex  1.833333e+02  1.692435e+02  1.306667e+02
     vertex  1.833333e+02  1.698578e+02  1.294167e+02
   endloop
 endfacet
 facet normal -1.934606e-01 -8.698618e-01 -4.537769e-01
   outer loop
     vertex  1.816667e+02  1.681557e+02  1.335833e+02
     vertex  1.816667e+02  1.688078e+02  1.323333e+02
     vertex  1.825000e+02  1.684051e+02  1.327500e+02
   endloop
 endfacet
 facet normal -1.764792e-01 -8.672542e-01 -4.655377e-01
   outer loop
     vertex  1.816667e+02  1.681557e+02  1.335833e+02
     vertex  1.800000e+02  1.682712e+02  1.340000e+02
     vertex  1.812500e+02  1.683523e+02  1.333750e+02
   endloop
 endfacet
 facet normal -1.839327e-01 -8.714850e-01 -4.546236e-01
   outer loop
     vertex  1.816667e+02  1.681557e+02  1.335833e+02
     vertex  1.812500e+02  1.683523e+02  1.333750e+02
     vertex  1.816667e+02  1.688078e+02  1.323333e+02
   endloop
 endfacet
 facet normal -1.757405e-01 -8.799807e-01 -4.413040e-01
   outer loop
     vertex  1.827778e+02  1.678557e+02  1.337222e+02
     vertex  1.900000e+02  1.662741e+02  1.340000e+02
     vertex  1.800000e+02  1.682712e+02  1.340000e+02
   endloop
 endfacet
 facet normal -1.813879e-01 -8.774827e-01 -4.439848e-01
   outer loop
     vertex  1.827778e+02  1.678557e+02  1.337222e+02
     vertex  1.816667e+02  1.681557e+02  1.335833e+02
     vertex  1.825000e+02  1.684051e+02  1.327500e+02
   endloop
 endfacet
 facet normal -1.898959e-01 -8.770361e-01 -4.413016e-01
   outer loop
     vertex  1.827778e+02  1.678557e+02  1.337222e+02
     vertex  1.825000e+02  1.684051e+02  1.327500e+02
     vertex  1.833333e+02  1.680150e+02  1.331667e+02
   endloop
 endfacet
 facet normal -1.842440e-01 -8.805582e-01 -4.366594e-01
   outer loop
     vertex  1.827778e+02  1.678557e+02  1.337222e+02
     vertex  1.833333e+02  1.680150e+02  1.331667e+02
     vertex  1.855556e+02  1.674123e+02  1.334444e+02
   endloop
 endfacet
 facet normal -1.762455e-01 -8.678983e-01 -4.644244e-01
   outer loop
     vertex  1.827778e+02  1.678557e+02  1.337222e+02
     vertex  1.800000e+02  1.682712e+02  1.340000e+02
     vertex  1.816667e+02  1.681557e+02  1.335833e+02
   endloop
 endfacet
 facet normal -2.472617e-01 -8.952349e-01 -3.706969e-01
   outer loop
     vertex  1.880556e+02  1.684090e+02  1.296944e+02
     vertex  1.875000e+02  1.683324e+02  1.302500e+02
     vertex  1.866667e+02  1.687351e+02  1.298333e+02
   endloop
 endfacet
 facet normal -2.395529e-01 -9.001982e-01 -3.636724e-01
   outer loop
     vertex  1.880556e+02  1.684090e+02  1.296944e+02
     vertex  1.883333e+02  1.679424e+02  1.306667e+02
     vertex  1.875000e+02  1.683324e+02  1.302500e+02
   endloop
 endfacet
 facet normal -2.472229e-01 -8.991990e-01 -3.610014e-01
   outer loop
     vertex  1.886111e+02  1.681448e+02  1.299722e+02
     vertex  1.883333e+02  1.679424e+02  1.306667e+02
     vertex  1.880556e+02  1.684090e+02  1.296944e+02
   endloop
 endfacet
 facet normal -2.503893e-01 -9.003933e-01 -3.558048e-01
   outer loop
     vertex  1.886111e+02  1.681448e+02  1.299722e+02
     vertex  1.880556e+02  1.684090e+02  1.296944e+02
     vertex  1.887500e+02  1.682434e+02  1.296250e+02
   endloop
 endfacet
 facet normal -2.558436e-01 -9.042908e-01 -3.417633e-01
   outer loop
     vertex  1.891667e+02  1.680467e+02  1.298333e+02
     vertex  1.887500e+02  1.682434e+02  1.296250e+02
     vertex  1.900000e+02  1.681259e+02  1.290000e+02
   endloop
 endfacet
 facet normal -2.478265e-01 -9.013943e-01 -3.550639e-01
   outer loop
     vertex  1.891667e+02  1.680467e+02  1.298333e+02
     vertex  1.886111e+02  1.681448e+02  1.299722e+02
     vertex  1.887500e+02  1.682434e+02  1.296250e+02
   endloop
 endfacet
 facet normal -2.414004e-01 -9.100154e-01 -3.370427e-01
   outer loop
     vertex  1.894444e+02  1.677589e+02  1.303889e+02
     vertex  1.900000e+02  1.681259e+02  1.290000e+02
     vertex  1.900000e+02  1.662741e+02  1.340000e+02
   endloop
 endfacet
 facet normal -2.375757e-01 -9.051573e-01 -3.524885e-01
   outer loop
     vertex  1.894444e+02  1.677589e+02  1.303889e+02
     vertex  1.888889e+02  1.673638e+02  1.317778e+02
     vertex  1.883333e+02  1.679424e+02  1.306667e+02
   endloop
 endfacet
 facet normal -2.551993e-01 -9.047014e-01 -3.411580e-01
   outer loop
     vertex  1.894444e+02  1.677589e+02  1.303889e+02
     vertex  1.891667e+02  1.680467e+02  1.298333e+02
     vertex  1.900000e+02  1.681259e+02  1.290000e+02
   endloop
 endfacet
 facet normal -2.386476e-01 -9.024974e-01 -3.585327e-01
   outer loop
     vertex  1.894444e+02  1.677589e+02  1.303889e+02
     vertex  1.883333e+02  1.679424e+02  1.306667e+02
     vertex  1.886111e+02  1.681448e+02  1.299722e+02
   endloop
 endfacet
 facet normal -2.462516e-01 -9.053536e-01 -3.459698e-01
   outer loop
     vertex  1.894444e+02  1.677589e+02  1.303889e+02
     vertex  1.886111e+02  1.681448e+02  1.299722e+02
     vertex  1.891667e+02  1.680467e+02  1.298333e+02
   endloop
 endfacet
 facet normal -2.003194e-01 -9.041183e-01 -3.774151e-01
   outer loop
     vertex  1.877778e+02  1.668320e+02  1.337222e+02
     vertex  1.866667e+02  1.676579e+02  1.323333e+02
     vertex  1.883333e+02  1.669408e+02  1.331667e+02
   endloop
 endfacet
 facet normal -1.873882e-01 -9.028385e-01 -3.869990e-01
   outer loop
     vertex  1.877778e+02  1.668320e+02  1.337222e+02
     vertex  1.855556e+02  1.674123e+02  1.334444e+02
     vertex  1.866667e+02  1.676579e+02  1.323333e+02
   endloop
 endfacet
 facet normal -1.839679e-01 -9.134880e-01 -3.628989e-01
   outer loop
     vertex  1.877778e+02  1.668320e+02  1.337222e+02
     vertex  1.883333e+02  1.669408e+02  1.331667e+02
     vertex  1.900000e+02  1.662741e+02  1.340000e+02
   endloop
 endfacet
 facet normal -1.885622e-01 -9.209267e-01 -3.410840e-01
   outer loop
     vertex  1.877778e+02  1.668320e+02  1.337222e+02
     vertex  1.900000e+02  1.662741e+02  1.340000e+02
     vertex  1.827778e+02  1.678557e+02  1.337222e+02
   endloop
 endfacet
 facet normal -1.834758e-01 -8.960848e-01 -4.041890e-01
   outer loop
     vertex  1.877778e+02  1.668320e+02  1.337222e+02
     vertex  1.827778e+02  1.678557e+02  1.337222e+02
     vertex  1.855556e+02  1.674123e+02  1.334444e+02
   endloop
 endfacet
 facet normal -2.189227e-01 -9.119694e-01 -3.469649e-01
   outer loop
     vertex  1.894444e+02  1.668078e+02  1.328889e+02
     vertex  1.888889e+02  1.673638e+02  1.317778e+02
     vertex  1.894444e+02  1.677589e+02  1.303889e+02
   endloop
 endfacet
 facet normal -1.958041e-01 -9.185869e-01 -3.433058e-01
   outer loop
     vertex  1.894444e+02  1.668078e+02  1.328889e+02
     vertex  1.900000e+02  1.662741e+02  1.340000e+02
     vertex  1.883333e+02  1.669408e+02  1.331667e+02
   endloop
 endfacet
 facet normal -1.986144e-01 -9.125789e-01 -3.574241e-01
   outer loop
     vertex  1.894444e+02  1.668078e+02  1.328889e+02
     vertex  1.883333e+02  1.669408e+02  1.331667e+02
     vertex  1.888889e+02  1.673638e+02  1.317778e+02
   endloop
 endfacet
 facet normal -1.834878e-01 -9.187734e-01 -3.495535e-01
   outer loop
     vertex  1.894444e+02  1.668078e+02  1.328889e+02
     vertex  1.894444e+02  1.677589e+02  1.303889e+02
     vertex  1.900000e+02  1.662741e+02  1.340000e+02
   endloop
 endfacet
 facet normal -1.973774e-01 -8.582802e-01 -4.737059e-01
   outer loop
     vertex  1.804167e+02  1.690952e+02  1.323333e+02
     vertex  1.800000e+02  1.682712e+02  1.340000e+02
     vertex  1.800000e+02  1.710308e+02  1.290000e+02
   endloop
 endfacet
 facet normal -1.810272e-01 -8.628730e-01 -4.718891e-01
   outer loop
     vertex  1.804167e+02  1.690952e+02  1.323333e+02
     vertex  1.808333e+02  1.685521e+02  1.331667e+02
     vertex  1.800000e+02  1.682712e+02  1.340000e+02
   endloop
 endfacet
 facet normal -2.307638e-01 -8.536884e-01 -4.668662e-01
   outer loop
     vertex  1.804167e+02  1.690952e+02  1.323333e+02
     vertex  1.800000e+02  1.710308e+02  1.290000e+02
     vertex  1.808333e+02  1.698941e+02  1.306667e+02
   endloop
 endfacet
 facet normal -1.985859e-01 -8.635352e-01 -4.635413e-01
   outer loop
     vertex  1.804167e+02  1.690952e+02  1.323333e+02
     vertex  1.816667e+02  1.688078e+02  1.323333e+02
     vertex  1.808333e+02  1.685521e+02  1.331667e+02
   endloop
 endfacet
 facet normal -2.130085e-01 -8.592524e-01 -4.650942e-01
   outer loop
     vertex  1.819444e+02  1.693179e+02  1.312222e+02
     vertex  1.804167e+02  1.690952e+02  1.323333e+02
     vertex  1.808333e+02  1.698941e+02  1.306667e+02
   endloop
 endfacet
 facet normal -2.001783e-01 -8.704595e-01 -4.496988e-01
   outer loop
     vertex  1.819444e+02  1.693179e+02  1.312222e+02
     vertex  1.816667e+02  1.688078e+02  1.323333e+02
     vertex  1.804167e+02  1.690952e+02  1.323333e+02
   endloop
 endfacet
 facet normal -2.271038e-01 -8.643370e-01 -4.487153e-01
   outer loop
     vertex  1.819444e+02  1.693179e+02  1.312222e+02
     vertex  1.811111e+02  1.699695e+02  1.303889e+02
     vertex  1.816667e+02  1.701119e+02  1.298333e+02
   endloop
 endfacet
 facet normal -2.259304e-01 -8.644801e-01 -4.490318e-01
   outer loop
     vertex  1.819444e+02  1.693179e+02  1.312222e+02
     vertex  1.816667e+02  1.701119e+02  1.298333e+02
     vertex  1.833333e+02  1.692435e+02  1.306667e+02
   endloop
 endfacet
 facet normal -2.034656e-01 -8.694997e-01 -4.500799e-01
   outer loop
     vertex  1.819444e+02  1.693179e+02  1.312222e+02
     vertex  1.827778e+02  1.686915e+02  1.320556e+02
     vertex  1.816667e+02  1.688078e+02  1.323333e+02
   endloop
 endfacet
 facet normal -2.208454e-01 -8.728272e-01 -4.352012e-01
   outer loop
     vertex  1.819444e+02  1.693179e+02  1.312222e+02
     vertex  1.833333e+02  1.692435e+02  1.306667e+02
     vertex  1.827778e+02  1.686915e+02  1.320556e+02
   endloop
 endfacet
 facet normal -2.202370e-01 -8.630505e-01 -4.545761e-01
   outer loop
     vertex  1.819444e+02  1.693179e+02  1.312222e+02
     vertex  1.808333e+02  1.698941e+02  1.306667e+02
     vertex  1.811111e+02  1.699695e+02  1.303889e+02
   endloop
 endfacet
 facet normal -2.577603e-01 -8.873400e-01 -3.823445e-01
   outer loop
     vertex  1.866667e+02  1.690044e+02  1.292083e+02
     vertex  1.800000e+02  1.710308e+02  1.290000e+02
     vertex  1.900000e+02  1.681259e+02  1.290000e+02
   endloop
 endfacet
 facet normal -2.483345e-01 -8.623776e-01 -4.411744e-01
   outer loop
     vertex  1.866667e+02  1.690044e+02  1.292083e+02
     vertex  1.833333e+02  1.698578e+02  1.294167e+02
     vertex  1.800000e+02  1.710308e+02  1.290000e+02
   endloop
 endfacet
 facet normal -2.366948e-01 -8.922764e-01 -3.844716e-01
   outer loop
     vertex  1.866667e+02  1.690044e+02  1.292083e+02
     vertex  1.866667e+02  1.687351e+02  1.298333e+02
     vertex  1.861111e+02  1.686431e+02  1.303889e+02
   endloop
 endfacet
 facet normal -2.591604e-01 -9.005350e-01 -3.491025e-01
   outer loop
     vertex  1.866667e+02  1.690044e+02  1.292083e+02
     vertex  1.900000e+02  1.681259e+02  1.290000e+02
     vertex  1.887500e+02  1.682434e+02  1.296250e+02
   endloop
 endfacet
 facet normal -2.395621e-01 -8.910855e-01 -3.854564e-01
   outer loop
     vertex  1.866667e+02  1.690044e+02  1.292083e+02
     vertex  1.861111e+02  1.686431e+02  1.303889e+02
     vertex  1.850000e+02  1.690019e+02  1.302500e+02
   endloop
 endfacet
 facet normal -2.505239e-01 -8.802578e-01 -4.029691e-01
   outer loop
     vertex  1.866667e+02  1.690044e+02  1.292083e+02
     vertex  1.850000e+02  1.690019e+02  1.302500e+02
     vertex  1.833333e+02  1.698578e+02  1.294167e+02
   endloop
 endfacet
 facet normal -2.472714e-01 -8.898539e-01 -3.834277e-01
   outer loop
     vertex  1.866667e+02  1.690044e+02  1.292083e+02
     vertex  1.880556e+02  1.684090e+02  1.296944e+02
     vertex  1.866667e+02  1.687351e+02  1.298333e+02
   endloop
 endfacet
 facet normal -2.504381e-01 -8.918084e-01 -3.767740e-01
   outer loop
     vertex  1.866667e+02  1.690044e+02  1.292083e+02
     vertex  1.887500e+02  1.682434e+02  1.296250e+02
     vertex  1.880556e+02  1.684090e+02  1.296944e+02
   endloop
 endfacet
 facet normal -1.000000e+00  0.000000e+00  0.000000e+00
   outer loop
     vertex  1.800000e+02  1.710308e+02  1.290000e+02
     vertex  1.800000e+02  2.150000e+02  1.340000e+02
     vertex  1.800000e+02  2.150000e+02  1.290000e+02
   endloop
 endfacet
 facet normal -1.000000e+00  0.000000e+00  0.000000e+00
   outer loop
     vertex  1.800000e+02  1.710308e+02  1.290000e+02
     vertex  1.800000e+02  1.682712e+02  1.340000e+02
     vertex  1.800000e+02  2.150000e+02  1.340000e+02
   endloop
 endfacet
 facet normal  0.000000e+00  1.000000e+00  0.000000e+00
   outer loop
     vertex  1.800000e+02  2.150000e+02  1.290000e+02
     vertex  3.330000e+02  2.150000e+02  1.340000e+02
     vertex  3.330000e+02  2.150000e+02  1.290000e+02
   endloop
 endfacet
 facet normal  0.000000e+00  1.000000e+00  0.000000e+00
   outer loop
     vertex  1.800000e+02  2.150000e+02  1.290000e+02
     vertex  1.800000e+02  2.150000e+02  1.340000e+02
     vertex  3.330000e+02  2.150000e+02  1.340000e+02
   endloop
 endfacet
 facet normal  1.000000e+00  0.000000e+00  0.000000e+00
   outer loop
     vertex  3.330000e+02  2.150000e+02  1.290000e+02
     vertex  3.330000e+02  1.880000e+02  1.340000e+02
     vertex  3.330000e+02  1.880000e+02  1.290000e+02
   endloop
 endfacet
 facet normal  1.000000e+00  0.000000e+00 -0.000000e+00
   outer loop
     vertex  3.330000e+02  2.150000e+02  1.290000e+02
     vertex  3.330000e+02  2.150000e+02  1.340000e+02
     vertex  3.330000e+02  1.880000e+02  1.340000e+02
   endloop
 endfacet
 facet normal  0.000000e+00  1.000000e+00  0.000000e+00
   outer loop
     vertex  3.330000e+02  1.880000e+02  1.290000e+02
     vertex  3.470000e+02  1.880000e+02  1.340000e+02
     vertex  3.470000e+02  1.880000e+02  1.290000e+02
   endloop
 endfacet
 facet normal  0.000000e+00  1.000000e+00  0.000000e+00
   outer loop
     vertex  3.330000e+02  1.880000e+02  1.290000e+02
     vertex  3.330000e+02  1.880000e+02  1.340000e+02
     vertex  3.470000e+02  1.880000e+02  1.340000e+02
   endloop
 endfacet
 facet normal -1.000000e+00  0.000000e+00  0.000000e+00
   outer loop
     vertex  3.470000e+02  1.880000e+02  1.290000e+02
     vertex  3.470000e+02  2.150000e+02  1.340000e+02
     vertex  3.470000e+02  2.150000e+02  1.290000e+02
   endloop
 endfacet
 facet normal -1.000000e+00  0.000000e+00  0.000000e+00
   outer loop
     vertex  3.470000e+02  1.880000e+02  1.290000e+02
     vertex  3.470000e+02  1.880000e+02  1.340000e+02
     vertex  3.470000e+02  2.150000e+02  1.340000e+02
   endloop
 endfacet
 facet normal -0.000000e+00  1.000000e+00  0.000000e+00
   outer loop
     vertex  3.470000e+02  2.150000e+02  1.340000e+02
     vertex  3.600000e+02  2.150000e+02  1.340000e+02
     vertex  3.600000e+02  2.150000e+02  1.290000e+02
   endloop
 endfacet
 facet normal  0.000000e+00  1.000000e+00  0.000000e+00
   outer loop
     vertex  3.470000e+02  2.150000e+02  1.290000e+02
     vertex  3.470000e+02  2.150000e+02  1.340000e+02
     vertex  3.600000e+02  2.150000e+02  1.290000e+02
   endloop
 endfacet
 facet normal  1.000000e+00  0.000000e+00  0.000000e+00
   outer loop
     vertex  3.600000e+02  2.150000e+02  1.290000e+02
     vertex  3.600000e+02  0.000000e+00  1.340000e+02
     vertex  3.600000e+02  0.000000e+00  1.290000e+02
   endloop
 endfacet
 facet normal  1.000000e+00  0.000000e+00 -0.000000e+00
   outer loop
     vertex  3.600000e+02  2.150000e+02  1.290000e+02
     vertex  3.600000e+02  2.150000e+02  1.340000e+02
     vertex  3.600000e+02  0.000000e+00  1.340000e+02
   endloop
 endfacet
 facet normal -0.000000e+00 -1.000000e+00  0.000000e+00
   outer loop
     vertex  3.600000e+02  0.000000e+00  1.340000e+02
     vertex  3.470000e+02  0.000000e+00  1.340000e+02
     vertex  3.470000e+02  0.000000e+00  1.290000e+02
   endloop
 endfacet
 facet normal  0.000000e+00 -1.000000e+00  0.000000e+00
   outer loop
     vertex  3.600000e+02  0.000000e+00  1.290000e+02
     vertex  3.600000e+02  0.000000e+00  1.340000e+02
     vertex  3.470000e+02  0.000000e+00  1.290000e+02
   endloop
 endfacet
 facet normal -1.000000e+00  0.000000e+00  0.000000e+00
   outer loop
     vertex  3.470000e+02  0.000000e+00  1.290000e+02
     vertex  3.470000e+02  1.700000e+01  1.340000e+02
     vertex  3.470000e+02  1.700000e+01  1.290000e+02
   endloop
 endfacet
 facet normal -1.000000e+00  0.000000e+00  0.000000e+00
   outer loop
     vertex  3.470000e+02  0.000000e+00  1.290000e+02
     vertex  3.470000e+02  0.000000e+00  1.340000e+02
     vertex  3.470000e+02  1.700000e+01  1.340000e+02
   endloop
 endfacet
endsolid
