solid 
 facet normal -0.000000e+00 -1.000000e+00  0.000000e+00
   outer loop
     vertex  6.048000e+02  2.150000e+02  5.251429e+01
     vertex  5.900000e+02  2.150000e+02  5.251429e+01
     vertex  5.900000e+02  2.150000e+02  8.000000e+00
   endloop
 endfacet
 facet normal  0.000000e+00 -1.000000e+00 -0.000000e+00
   outer loop
     vertex  6.048000e+02  2.150000e+02  1.665143e+02
     vertex  5.900000e+02  2.150000e+02  7.948571e+01
     vertex  6.048000e+02  2.150000e+02  7.948571e+01
   endloop
 endfacet
 facet normal -0.000000e+00 -1.000000e+00  0.000000e+00
   outer loop
     vertex  6.048000e+02  2.150000e+02  1.665143e+02
     vertex  5.900000e+02  2.150000e+02  1.665143e+02
     vertex  5.900000e+02  2.150000e+02  7.948571e+01
   endloop
 endfacet
 facet normal  0.000000e+00 -1.000000e+00  0.000000e+00
   outer loop
     vertex  7.700000e+02  2.150000e+02  8.000000e+00
     vertex  6.048000e+02  2.150000e+02  5.251429e+01
     vertex  5.900000e+02  2.150000e+02  8.000000e+00
   endloop
 endfacet
 facet normal  0.000000e+00 -1.000000e+00 -0.000000e+00
   outer loop
     vertex  7.698000e+02  2.150000e+02  5.284615e+01
     vertex  6.048000e+02  2.150000e+02  5.251429e+01
     vertex  7.700000e+02  2.150000e+02  8.000000e+00
   endloop
 endfacet
 facet normal  0.000000e+00 -1.000000e+00 -0.000000e+00
   outer loop
     vertex  7.700000e+02  2.150000e+02  5.284615e+01
     vertex  7.698000e+02  2.150000e+02  5.284615e+01
     vertex  7.700000e+02  2.150000e+02  8.000000e+00
   endloop
 endfacet
 facet normal  0.000000e+00 -1.000000e+00  0.000000e+00
   outer loop
     vertex  5.900000e+02  2.150000e+02  2.380000e+02
     vertex  5.900000e+02  2.150000e+02  1.934857e+02
     vertex  6.048000e+02  2.150000e+02  1.934857e+02
   endloop
 endfacet
 facet normal -0.000000e+00 -1.000000e+00  0.000000e+00
   outer loop
     vertex  7.698000e+02  2.150000e+02  7.915385e+01
     vertex  6.048000e+02  2.150000e+02  7.948571e+01
     vertex  6.048000e+02  2.150000e+02  5.251429e+01
   endloop
 endfacet
 facet normal  0.000000e+00 -1.000000e+00  0.000000e+00
   outer loop
     vertex  7.698000e+02  2.150000e+02  7.915385e+01
     vertex  6.048000e+02  2.150000e+02  1.665143e+02
     vertex  6.048000e+02  2.150000e+02  7.948571e+01
   endloop
 endfacet
 facet normal  0.000000e+00 -1.000000e+00 -0.000000e+00
   outer loop
     vertex  7.698000e+02  2.150000e+02  7.915385e+01
     vertex  6.048000e+02  2.150000e+02  5.251429e+01
     vertex  7.698000e+02  2.150000e+02  5.284615e+01
   endloop
 endfacet
 facet normal -0.000000e+00 -1.000000e+00  0.000000e+00
   outer loop
     vertex  7.698000e+02  2.150000e+02  1.668462e+02
     vertex  6.048000e+02  2.150000e+02  1.934857e+02
     vertex  6.048000e+02  2.150000e+02  1.665143e+02
   endloop
 endfacet
 facet normal  0.000000e+00 -1.000000e+00  0.000000e+00
   outer loop
     vertex  7.698000e+02  2.150000e+02  1.668462e+02
     vertex  7.698000e+02  2.150000e+02  7.915385e+01
     vertex  7.700000e+02  2.150000e+02  7.915385e+01
   endloop
 endfacet
 facet normal  0.000000e+00 -1.000000e+00 -0.000000e+00
   outer loop
     vertex  7.698000e+02  2.150000e+02  1.668462e+02
     vertex  6.048000e+02  2.150000e+02  1.665143e+02
     vertex  7.698000e+02  2.150000e+02  7.915385e+01
   endloop
 endfacet
 facet normal -0.000000e+00 -1.000000e+00 -0.000000e+00
   outer loop
     vertex  7.700000e+02  2.150000e+02  1.668462e+02
     vertex  7.698000e+02  2.150000e+02  1.668462e+02
     vertex  7.700000e+02  2.150000e+02  7.915385e+01
   endloop
 endfacet
 facet normal -0.000000e+00 -1.000000e+00 -0.000000e+00
   outer loop
     vertex  7.698000e+02  2.150000e+02  1.931538e+02
     vertex  6.048000e+02  2.150000e+02  1.934857e+02
     vertex  7.698000e+02  2.150000e+02  1.668462e+02
   endloop
 endfacet
 facet normal  0.000000e+00 -1.000000e+00 -0.000000e+00
   outer loop
     vertex  7.700000e+02  2.150000e+02  2.380000e+02
     vertex  7.698000e+02  2.150000e+02  1.931538e+02
     vertex  7.700000e+02  2.150000e+02  1.931538e+02
   endloop
 endfacet
 facet normal -0.000000e+00 -1.000000e+00  0.000000e+00
   outer loop
     vertex  7.700000e+02  2.150000e+02  2.380000e+02
     vertex  5.900000e+02  2.150000e+02  2.380000e+02
     vertex  6.048000e+02  2.150000e+02  1.934857e+02
   endloop
 endfacet
 facet normal  0.000000e+00 -1.000000e+00  0.000000e+00
   outer loop
     vertex  7.700000e+02  2.150000e+02  2.380000e+02
     vertex  6.048000e+02  2.150000e+02  1.934857e+02
     vertex  7.698000e+02  2.150000e+02  1.931538e+02
   endloop
 endfacet
 facet normal  0.000000e+00 -6.097108e-01 -7.926240e-01
   outer loop
     vertex  7.700000e+02  2.150000e+02  5.284615e+01
     vertex  7.700000e+02  2.200000e+02  4.900000e+01
     vertex  7.838000e+02  2.200000e+02  4.900000e+01
   endloop
 endfacet
 facet normal -3.642097e-16 -6.097108e-01 -7.926240e-01
   outer loop
     vertex  7.700000e+02  2.150000e+02  5.284615e+01
     vertex  7.838000e+02  2.200000e+02  4.900000e+01
     vertex  7.838000e+02  2.148000e+02  5.300000e+01
   endloop
 endfacet
 facet normal  5.632778e-14 -6.097108e-01 -7.926240e-01
   outer loop
     vertex  7.698000e+02  2.148000e+02  5.300000e+01
     vertex  7.698000e+02  2.150000e+02  5.284615e+01
     vertex  7.700000e+02  2.150000e+02  5.284615e+01
   endloop
 endfacet
 facet normal  0.000000e+00 -6.097108e-01 -7.926240e-01
   outer loop
     vertex  7.698000e+02  2.148000e+02  5.300000e+01
     vertex  7.700000e+02  2.150000e+02  5.284615e+01
     vertex  7.838000e+02  2.148000e+02  5.300000e+01
   endloop
 endfacet
 facet normal -1.000000e+00  0.000000e+00  0.000000e+00
   outer loop
     vertex  7.698000e+02  2.148000e+02  5.300000e+01
     vertex  7.698000e+02  2.148000e+02  7.900000e+01
     vertex  7.698000e+02  2.150000e+02  7.915385e+01
   endloop
 endfacet
 facet normal -1.000000e+00  0.000000e+00  0.000000e+00
   outer loop
     vertex  7.698000e+02  2.148000e+02  5.300000e+01
     vertex  7.698000e+02  2.150000e+02  7.915385e+01
     vertex  7.698000e+02  2.150000e+02  5.284615e+01
   endloop
 endfacet
 facet normal  2.719747e-19 -6.097108e-01  7.926240e-01
   outer loop
     vertex  7.700000e+02  2.150000e+02  7.915385e+01
     vertex  7.698000e+02  2.148000e+02  7.900000e+01
     vertex  7.838000e+02  2.148000e+02  7.900000e+01
   endloop
 endfacet
 facet normal  4.346745e-17 -6.097108e-01  7.926240e-01
   outer loop
     vertex  7.700000e+02  2.150000e+02  7.915385e+01
     vertex  7.838000e+02  2.148000e+02  7.900000e+01
     vertex  7.838000e+02  2.200000e+02  8.300000e+01
   endloop
 endfacet
 facet normal  0.000000e+00 -6.097108e-01  7.926240e-01
   outer loop
     vertex  7.698000e+02  2.150000e+02  7.915385e+01
     vertex  7.698000e+02  2.148000e+02  7.900000e+01
     vertex  7.700000e+02  2.150000e+02  7.915385e+01
   endloop
 endfacet
 facet normal  0.000000e+00 -6.097108e-01  7.926240e-01
   outer loop
     vertex  7.700000e+02  2.200000e+02  8.300000e+01
     vertex  7.700000e+02  2.150000e+02  7.915385e+01
     vertex  7.838000e+02  2.200000e+02  8.300000e+01
   endloop
 endfacet
 facet normal  1.000000e+00  0.000000e+00  0.000000e+00
   outer loop
     vertex  7.700000e+02  2.200000e+02  1.630000e+02
     vertex  7.700000e+02  2.150000e+02  7.915385e+01
     vertex  7.700000e+02  2.200000e+02  8.300000e+01
   endloop
 endfacet
 facet normal  1.000000e+00  0.000000e+00  0.000000e+00
   outer loop
     vertex  7.700000e+02  2.150000e+02  1.668462e+02
     vertex  7.700000e+02  2.150000e+02  7.915385e+01
     vertex  7.700000e+02  2.200000e+02  1.630000e+02
   endloop
 endfacet
 facet normal  0.000000e+00 -6.097108e-01 -7.926240e-01
   outer loop
     vertex  7.700000e+02  2.150000e+02  1.668462e+02
     vertex  7.700000e+02  2.200000e+02  1.630000e+02
     vertex  7.838000e+02  2.200000e+02  1.630000e+02
   endloop
 endfacet
 facet normal -7.725659e-16 -6.097108e-01 -7.926240e-01
   outer loop
     vertex  7.700000e+02  2.150000e+02  1.668462e+02
     vertex  7.838000e+02  2.200000e+02  1.630000e+02
     vertex  7.838000e+02  2.148000e+02  1.670000e+02
   endloop
 endfacet
 facet normal -5.288398e-18 -6.097108e-01 -7.926240e-01
   outer loop
     vertex  7.698000e+02  2.148000e+02  1.670000e+02
     vertex  7.698000e+02  2.150000e+02  1.668462e+02
     vertex  7.700000e+02  2.150000e+02  1.668462e+02
   endloop
 endfacet
 facet normal  0.000000e+00 -6.097108e-01 -7.926240e-01
   outer loop
     vertex  7.698000e+02  2.148000e+02  1.670000e+02
     vertex  7.700000e+02  2.150000e+02  1.668462e+02
     vertex  7.838000e+02  2.148000e+02  1.670000e+02
   endloop
 endfacet
 facet normal -1.000000e+00  0.000000e+00  0.000000e+00
   outer loop
     vertex  7.698000e+02  2.148000e+02  1.670000e+02
     vertex  7.698000e+02  2.148000e+02  1.930000e+02
     vertex  7.698000e+02  2.150000e+02  1.931538e+02
   endloop
 endfacet
 facet normal -1.000000e+00  0.000000e+00  0.000000e+00
   outer loop
     vertex  7.698000e+02  2.148000e+02  1.670000e+02
     vertex  7.698000e+02  2.150000e+02  1.931538e+02
     vertex  7.698000e+02  2.150000e+02  1.668462e+02
   endloop
 endfacet
 facet normal  7.554854e-20 -6.097108e-01  7.926240e-01
   outer loop
     vertex  7.700000e+02  2.150000e+02  1.931538e+02
     vertex  7.698000e+02  2.148000e+02  1.930000e+02
     vertex  7.838000e+02  2.148000e+02  1.930000e+02
   endloop
 endfacet
 facet normal -7.727546e-16 -6.097108e-01  7.926240e-01
   outer loop
     vertex  7.700000e+02  2.150000e+02  1.931538e+02
     vertex  7.838000e+02  2.148000e+02  1.930000e+02
     vertex  7.838000e+02  2.200000e+02  1.970000e+02
   endloop
 endfacet
 facet normal  0.000000e+00 -6.097108e-01  7.926240e-01
   outer loop
     vertex  7.698000e+02  2.150000e+02  1.931538e+02
     vertex  7.698000e+02  2.148000e+02  1.930000e+02
     vertex  7.700000e+02  2.150000e+02  1.931538e+02
   endloop
 endfacet
 facet normal  0.000000e+00 -6.097108e-01  7.926240e-01
   outer loop
     vertex  7.700000e+02  2.200000e+02  1.970000e+02
     vertex  7.700000e+02  2.150000e+02  1.931538e+02
     vertex  7.838000e+02  2.200000e+02  1.970000e+02
   endloop
 endfacet
 facet normal  1.000000e+00  0.000000e+00  0.000000e+00
   outer loop
     vertex  7.700000e+02  2.150000e+02  2.380000e+02
     vertex  7.700000e+02  2.150000e+02  1.931538e+02
     vertex  7.700000e+02  2.200000e+02  1.970000e+02
   endloop
 endfacet
 facet normal  1.000000e+00 -0.000000e+00  0.000000e+00
   outer loop
     vertex  7.700000e+02  2.150000e+02  2.380000e+02
     vertex  7.700000e+02  2.200000e+02  1.970000e+02
     vertex  7.700000e+02  2.200000e+02  2.380000e+02
   endloop
 endfacet
 facet normal  0.000000e+00  0.000000e+00  1.000000e+00
   outer loop
     vertex  7.700000e+02  2.150000e+02  2.380000e+02
     vertex  5.900000e+02  2.200000e+02  2.380000e+02
     vertex  5.900000e+02  2.150000e+02  2.380000e+02
   endloop
 endfacet
 facet normal  0.000000e+00  0.000000e+00  1.000000e+00
   outer loop
     vertex  7.700000e+02  2.200000e+02  2.380000e+02
     vertex  5.900000e+02  2.200000e+02  2.380000e+02
     vertex  7.700000e+02  2.150000e+02  2.380000e+02
   endloop
 endfacet
 facet normal -1.000000e+00  0.000000e+00  0.000000e+00
   outer loop
     vertex  5.900000e+02  2.150000e+02  2.380000e+02
     vertex  5.900000e+02  2.200000e+02  1.970571e+02
     vertex  5.900000e+02  2.150000e+02  1.934857e+02
   endloop
 endfacet
 facet normal -1.000000e+00  0.000000e+00  0.000000e+00
   outer loop
     vertex  5.900000e+02  2.150000e+02  2.380000e+02
     vertex  5.900000e+02  2.200000e+02  2.380000e+02
     vertex  5.900000e+02  2.200000e+02  1.970571e+02
   endloop
 endfacet
 facet normal  0.000000e+00  5.812382e-01 -8.137335e-01
   outer loop
     vertex  5.900000e+02  2.200000e+02  1.970571e+02
     vertex  6.048000e+02  2.150000e+02  1.934857e+02
     vertex  5.900000e+02  2.150000e+02  1.934857e+02
   endloop
 endfacet
 facet normal  0.000000e+00  5.812382e-01 -8.137335e-01
   outer loop
     vertex  5.900000e+02  2.200000e+02  1.970571e+02
     vertex  6.048000e+02  2.200000e+02  1.970571e+02
     vertex  6.048000e+02  2.150000e+02  1.934857e+02
   endloop
 endfacet
 facet normal -1.000000e+00  0.000000e+00  0.000000e+00
   outer loop
     vertex  6.048000e+02  2.200000e+02  1.629429e+02
     vertex  6.048000e+02  2.150000e+02  1.934857e+02
     vertex  6.048000e+02  2.200000e+02  1.970571e+02
   endloop
 endfacet
 facet normal -1.000000e+00  0.000000e+00  0.000000e+00
   outer loop
     vertex  6.048000e+02  2.150000e+02  1.665143e+02
     vertex  6.048000e+02  2.150000e+02  1.934857e+02
     vertex  6.048000e+02  2.200000e+02  1.629429e+02
   endloop
 endfacet
 facet normal  0.000000e+00  5.812382e-01  8.137335e-01
   outer loop
     vertex  5.900000e+02  2.150000e+02  1.665143e+02
     vertex  6.048000e+02  2.200000e+02  1.629429e+02
     vertex  5.900000e+02  2.200000e+02  1.629429e+02
   endloop
 endfacet
 facet normal -0.000000e+00  5.812382e-01  8.137335e-01
   outer loop
     vertex  5.900000e+02  2.150000e+02  1.665143e+02
     vertex  6.048000e+02  2.150000e+02  1.665143e+02
     vertex  6.048000e+02  2.200000e+02  1.629429e+02
   endloop
 endfacet
 facet normal -1.000000e+00  0.000000e+00  0.000000e+00
   outer loop
     vertex  5.900000e+02  2.150000e+02  1.665143e+02
     vertex  5.900000e+02  2.200000e+02  8.305714e+01
     vertex  5.900000e+02  2.150000e+02  7.948571e+01
   endloop
 endfacet
 facet normal -1.000000e+00  0.000000e+00  0.000000e+00
   outer loop
     vertex  5.900000e+02  2.150000e+02  1.665143e+02
     vertex  5.900000e+02  2.200000e+02  1.629429e+02
     vertex  5.900000e+02  2.200000e+02  8.305714e+01
   endloop
 endfacet
 facet normal  0.000000e+00  5.812382e-01 -8.137335e-01
   outer loop
     vertex  5.900000e+02  2.200000e+02  8.305714e+01
     vertex  6.048000e+02  2.150000e+02  7.948571e+01
     vertex  5.900000e+02  2.150000e+02  7.948571e+01
   endloop
 endfacet
 facet normal  0.000000e+00  5.812382e-01 -8.137335e-01
   outer loop
     vertex  5.900000e+02  2.200000e+02  8.305714e+01
     vertex  6.048000e+02  2.200000e+02  8.305714e+01
     vertex  6.048000e+02  2.150000e+02  7.948571e+01
   endloop
 endfacet
 facet normal -1.000000e+00  0.000000e+00  0.000000e+00
   outer loop
     vertex  6.048000e+02  2.150000e+02  5.251429e+01
     vertex  6.048000e+02  2.150000e+02  7.948571e+01
     vertex  6.048000e+02  2.200000e+02  8.305714e+01
   endloop
 endfacet
 facet normal -1.000000e+00  0.000000e+00  0.000000e+00
   outer loop
     vertex  6.048000e+02  2.150000e+02  5.251429e+01
     vertex  6.048000e+02  2.200000e+02  8.305714e+01
     vertex  6.048000e+02  2.200000e+02  4.894286e+01
   endloop
 endfacet
 facet normal  3.906705e-16  5.812382e-01  8.137335e-01
   outer loop
     vertex  5.900000e+02  2.150000e+02  5.251429e+01
     vertex  6.048000e+02  2.200000e+02  4.894286e+01
     vertex  5.900000e+02  2.200000e+02  4.894286e+01
   endloop
 endfacet
 facet normal -0.000000e+00  5.812382e-01  8.137335e-01
   outer loop
     vertex  5.900000e+02  2.150000e+02  5.251429e+01
     vertex  6.048000e+02  2.150000e+02  5.251429e+01
     vertex  6.048000e+02  2.200000e+02  4.894286e+01
   endloop
 endfacet
 facet normal  0.000000e+00 -1.000000e+00  0.000000e+00
   outer loop
     vertex  7.698000e+02  2.148000e+02  7.900000e+01
     vertex  7.698000e+02  2.148000e+02  5.300000e+01
     vertex  7.838000e+02  2.148000e+02  5.300000e+01
   endloop
 endfacet
 facet normal  0.000000e+00 -1.000000e+00  0.000000e+00
   outer loop
     vertex  7.698000e+02  2.148000e+02  7.900000e+01
     vertex  7.838000e+02  2.148000e+02  5.300000e+01
     vertex  7.838000e+02  2.148000e+02  7.900000e+01
   endloop
 endfacet
 facet normal  1.000000e+00  0.000000e+00  0.000000e+00
   outer loop
     vertex  7.838000e+02  2.148000e+02  5.300000e+01
     vertex  7.838000e+02  2.200000e+02  8.300000e+01
     vertex  7.838000e+02  2.148000e+02  7.900000e+01
   endloop
 endfacet
 facet normal  1.000000e+00 -0.000000e+00  0.000000e+00
   outer loop
     vertex  7.838000e+02  2.148000e+02  5.300000e+01
     vertex  7.838000e+02  2.200000e+02  4.900000e+01
     vertex  7.838000e+02  2.200000e+02  8.300000e+01
   endloop
 endfacet
 facet normal  0.000000e+00 -1.000000e+00  0.000000e+00
   outer loop
     vertex  7.698000e+02  2.148000e+02  1.930000e+02
     vertex  7.698000e+02  2.148000e+02  1.670000e+02
     vertex  7.838000e+02  2.148000e+02  1.670000e+02
   endloop
 endfacet
 facet normal  0.000000e+00 -1.000000e+00  0.000000e+00
   outer loop
     vertex  7.698000e+02  2.148000e+02  1.930000e+02
     vertex  7.838000e+02  2.148000e+02  1.670000e+02
     vertex  7.838000e+02  2.148000e+02  1.930000e+02
   endloop
 endfacet
 facet normal  1.000000e+00  0.000000e+00  0.000000e+00
   outer loop
     vertex  7.838000e+02  2.148000e+02  1.670000e+02
     vertex  7.838000e+02  2.200000e+02  1.970000e+02
     vertex  7.838000e+02  2.148000e+02  1.930000e+02
   endloop
 endfacet
 facet normal  1.000000e+00 -0.000000e+00  0.000000e+00
   outer loop
     vertex  7.838000e+02  2.148000e+02  1.670000e+02
     vertex  7.838000e+02  2.200000e+02  1.630000e+02
     vertex  7.838000e+02  2.200000e+02  1.970000e+02
   endloop
 endfacet
 facet normal -1.000000e+00  0.000000e+00  0.000000e+00
   outer loop
     vertex  5.900000e+02  2.150000e+02  8.000000e+00
     vertex  5.900000e+02  2.150000e+02  5.251429e+01
     vertex  5.900000e+02  2.200000e+02  4.894286e+01
   endloop
 endfacet
 facet normal -1.000000e+00  0.000000e+00  0.000000e+00
   outer loop
     vertex  5.900000e+02  2.200000e+02  0.000000e+00
     vertex  5.900000e+02  2.150000e+02  8.000000e+00
     vertex  5.900000e+02  2.200000e+02  4.894286e+01
   endloop
 endfacet
 facet normal -1.000000e+00  0.000000e+00  0.000000e+00
   outer loop
     vertex  5.900000e+02  1.831286e+02  0.000000e+00
     vertex  5.900000e+02  1.802714e+02  8.000000e+00
     vertex  5.900000e+02  2.150000e+02  8.000000e+00
   endloop
 endfacet
 facet normal -1.000000e+00  0.000000e+00  0.000000e+00
   outer loop
     vertex  5.900000e+02  1.831286e+02  0.000000e+00
     vertex  5.900000e+02  2.150000e+02  8.000000e+00
     vertex  5.900000e+02  2.200000e+02  0.000000e+00
   endloop
 endfacet
 facet normal  0.000000e+00  9.363292e-01  3.511234e-01
   outer loop
     vertex  7.700000e+02  1.800000e+02  8.000000e+00
     vertex  7.838000e+02  1.830000e+02  0.000000e+00
     vertex  7.700000e+02  1.830000e+02  0.000000e+00
   endloop
 endfacet
 facet normal -0.000000e+00  9.363292e-01  3.511234e-01
   outer loop
     vertex  7.700000e+02  1.800000e+02  8.000000e+00
     vertex  7.838000e+02  1.800000e+02  8.000000e+00
     vertex  7.838000e+02  1.830000e+02  0.000000e+00
   endloop
 endfacet
 facet normal  1.000000e+00  0.000000e+00  0.000000e+00
   outer loop
     vertex  7.838000e+02  1.560000e+02  8.000000e+00
     vertex  7.838000e+02  1.530000e+02  0.000000e+00
     vertex  7.838000e+02  1.830000e+02  0.000000e+00
   endloop
 endfacet
 facet normal  1.000000e+00 -0.000000e+00  0.000000e+00
   outer loop
     vertex  7.838000e+02  1.560000e+02  8.000000e+00
     vertex  7.838000e+02  1.830000e+02  0.000000e+00
     vertex  7.838000e+02  1.800000e+02  8.000000e+00
   endloop
 endfacet
 facet normal  1.000000e+00  0.000000e+00  0.000000e+00
   outer loop
     vertex  7.700000e+02  6.400000e+01  8.000000e+00
     vertex  7.700000e+02  6.700000e+01  0.000000e+00
     vertex  7.700000e+02  1.530000e+02  0.000000e+00
   endloop
 endfacet
 facet normal  1.000000e+00 -0.000000e+00  0.000000e+00
   outer loop
     vertex  7.700000e+02  6.400000e+01  8.000000e+00
     vertex  7.700000e+02  1.530000e+02  0.000000e+00
     vertex  7.700000e+02  1.560000e+02  8.000000e+00
   endloop
 endfacet
 facet normal  0.000000e+00 -9.363292e-01  3.511234e-01
   outer loop
     vertex  7.700000e+02  1.530000e+02  0.000000e+00
     vertex  7.838000e+02  1.560000e+02  8.000000e+00
     vertex  7.700000e+02  1.560000e+02  8.000000e+00
   endloop
 endfacet
 facet normal  0.000000e+00 -9.363292e-01  3.511234e-01
   outer loop
     vertex  7.700000e+02  1.530000e+02  0.000000e+00
     vertex  7.838000e+02  1.530000e+02  0.000000e+00
     vertex  7.838000e+02  1.560000e+02  8.000000e+00
   endloop
 endfacet
 facet normal  0.000000e+00  9.363292e-01  3.511234e-01
   outer loop
     vertex  7.700000e+02  6.400000e+01  8.000000e+00
     vertex  7.838000e+02  6.700000e+01  0.000000e+00
     vertex  7.700000e+02  6.700000e+01  0.000000e+00
   endloop
 endfacet
 facet normal -0.000000e+00  9.363292e-01  3.511234e-01
   outer loop
     vertex  7.700000e+02  6.400000e+01  8.000000e+00
     vertex  7.838000e+02  6.400000e+01  8.000000e+00
     vertex  7.838000e+02  6.700000e+01  0.000000e+00
   endloop
 endfacet
 facet normal  1.000000e+00  0.000000e+00  0.000000e+00
   outer loop
     vertex  7.838000e+02  4.000000e+01  8.000000e+00
     vertex  7.838000e+02  3.700000e+01  0.000000e+00
     vertex  7.838000e+02  6.700000e+01  0.000000e+00
   endloop
 endfacet
 facet normal  1.000000e+00 -0.000000e+00  0.000000e+00
   outer loop
     vertex  7.838000e+02  4.000000e+01  8.000000e+00
     vertex  7.838000e+02  6.700000e+01  0.000000e+00
     vertex  7.838000e+02  6.400000e+01  8.000000e+00
   endloop
 endfacet
 facet normal -1.000000e+00  0.000000e+00  0.000000e+00
   outer loop
     vertex  5.900000e+02  0.000000e+00  8.000000e+00
     vertex  5.900000e+02  3.687143e+01  0.000000e+00
     vertex  5.900000e+02  0.000000e+00  0.000000e+00
   endloop
 endfacet
 facet normal -1.000000e+00  0.000000e+00  0.000000e+00
   outer loop
     vertex  5.900000e+02  0.000000e+00  8.000000e+00
     vertex  5.900000e+02  3.972857e+01  8.000000e+00
     vertex  5.900000e+02  3.687143e+01  0.000000e+00
   endloop
 endfacet
 facet normal  0.000000e+00  9.417419e-01 -3.363364e-01
   outer loop
     vertex  5.900000e+02  3.687143e+01  0.000000e+00
     vertex  5.900000e+02  3.972857e+01  8.000000e+00
     vertex  6.048000e+02  3.972857e+01  8.000000e+00
   endloop
 endfacet
 facet normal -1.782639e-17  9.417419e-01 -3.363364e-01
   outer loop
     vertex  5.900000e+02  3.687143e+01  0.000000e+00
     vertex  6.048000e+02  3.972857e+01  8.000000e+00
     vertex  6.048000e+02  3.687143e+01 -7.844246e-16
   endloop
 endfacet
 facet normal  0.000000e+00 -1.000000e+00 -0.000000e+00
   outer loop
     vertex  7.700000e+02  0.000000e+00  8.000000e+00
     vertex  5.900000e+02  0.000000e+00  0.000000e+00
     vertex  7.700000e+02  0.000000e+00  0.000000e+00
   endloop
 endfacet
 facet normal -0.000000e+00 -1.000000e+00  0.000000e+00
   outer loop
     vertex  7.700000e+02  0.000000e+00  8.000000e+00
     vertex  5.900000e+02  0.000000e+00  8.000000e+00
     vertex  5.900000e+02  0.000000e+00  0.000000e+00
   endloop
 endfacet
 facet normal -1.000000e+00  0.000000e+00  0.000000e+00
   outer loop
     vertex  6.048000e+02  3.687143e+01 -7.844246e-16
     vertex  6.048000e+02  6.427143e+01  8.000000e+00
     vertex  6.048000e+02  6.712857e+01  8.550510e-18
   endloop
 endfacet
 facet normal -1.000000e+00  0.000000e+00 -0.000000e+00
   outer loop
     vertex  6.048000e+02  3.972857e+01  8.000000e+00
     vertex  6.048000e+02  6.427143e+01  8.000000e+00
     vertex  6.048000e+02  3.687143e+01 -7.844246e-16
   endloop
 endfacet
 facet normal  0.000000e+00 -9.417419e-01 -3.363364e-01
   outer loop
     vertex  5.900000e+02  6.427143e+01  8.000000e+00
     vertex  5.900000e+02  6.712857e+01  0.000000e+00
     vertex  6.048000e+02  6.712857e+01  8.550510e-18
   endloop
 endfacet
 facet normal  0.000000e+00 -9.417419e-01 -3.363364e-01
   outer loop
     vertex  5.900000e+02  6.427143e+01  8.000000e+00
     vertex  6.048000e+02  6.712857e+01  8.550510e-18
     vertex  6.048000e+02  6.427143e+01  8.000000e+00
   endloop
 endfacet
 facet normal -1.000000e+00  0.000000e+00  0.000000e+00
   outer loop
     vertex  5.900000e+02  6.712857e+01  0.000000e+00
     vertex  5.900000e+02  1.557286e+02  8.000000e+00
     vertex  5.900000e+02  1.528714e+02  0.000000e+00
   endloop
 endfacet
 facet normal -1.000000e+00  0.000000e+00  0.000000e+00
   outer loop
     vertex  5.900000e+02  6.427143e+01  8.000000e+00
     vertex  5.900000e+02  1.557286e+02  8.000000e+00
     vertex  5.900000e+02  6.712857e+01  0.000000e+00
   endloop
 endfacet
 facet normal  0.000000e+00  9.417419e-01 -3.363364e-01
   outer loop
     vertex  5.900000e+02  1.557286e+02  8.000000e+00
     vertex  6.048000e+02  1.557286e+02  8.000000e+00
     vertex  6.048000e+02  1.528714e+02 -7.844246e-16
   endloop
 endfacet
 facet normal -1.826334e-15  9.417419e-01 -3.363364e-01
   outer loop
     vertex  5.900000e+02  1.528714e+02  0.000000e+00
     vertex  5.900000e+02  1.557286e+02  8.000000e+00
     vertex  6.048000e+02  1.528714e+02 -7.844246e-16
   endloop
 endfacet
 facet normal -1.000000e+00  0.000000e+00  0.000000e+00
   outer loop
     vertex  6.048000e+02  1.528714e+02 -7.844246e-16
     vertex  6.048000e+02  1.802714e+02  8.000000e+00
     vertex  6.048000e+02  1.831286e+02  8.550510e-18
   endloop
 endfacet
 facet normal -1.000000e+00  0.000000e+00 -0.000000e+00
   outer loop
     vertex  6.048000e+02  1.557286e+02  8.000000e+00
     vertex  6.048000e+02  1.802714e+02  8.000000e+00
     vertex  6.048000e+02  1.528714e+02 -7.844246e-16
   endloop
 endfacet
 facet normal  1.943140e-19 -9.417419e-01 -3.363364e-01
   outer loop
     vertex  5.900000e+02  1.831286e+02  0.000000e+00
     vertex  6.048000e+02  1.831286e+02  8.550510e-18
     vertex  6.048000e+02  1.802714e+02  8.000000e+00
   endloop
 endfacet
 facet normal  1.808508e-15 -9.417419e-01 -3.363364e-01
   outer loop
     vertex  5.900000e+02  1.802714e+02  8.000000e+00
     vertex  5.900000e+02  1.831286e+02  0.000000e+00
     vertex  6.048000e+02  1.802714e+02  8.000000e+00
   endloop
 endfacet
 facet normal  1.000000e+00  0.000000e+00  0.000000e+00
   outer loop
     vertex  7.700000e+02  0.000000e+00  8.000000e+00
     vertex  7.700000e+02  0.000000e+00  0.000000e+00
     vertex  7.700000e+02  3.700000e+01  0.000000e+00
   endloop
 endfacet
 facet normal  1.000000e+00 -0.000000e+00  0.000000e+00
   outer loop
     vertex  7.700000e+02  0.000000e+00  8.000000e+00
     vertex  7.700000e+02  3.700000e+01  0.000000e+00
     vertex  7.700000e+02  4.000000e+01  8.000000e+00
   endloop
 endfacet
 facet normal  0.000000e+00 -9.363292e-01  3.511234e-01
   outer loop
     vertex  7.700000e+02  3.700000e+01  0.000000e+00
     vertex  7.838000e+02  4.000000e+01  8.000000e+00
     vertex  7.700000e+02  4.000000e+01  8.000000e+00
   endloop
 endfacet
 facet normal  0.000000e+00 -9.363292e-01  3.511234e-01
   outer loop
     vertex  7.700000e+02  3.700000e+01  0.000000e+00
     vertex  7.838000e+02  3.700000e+01  0.000000e+00
     vertex  7.838000e+02  4.000000e+01  8.000000e+00
   endloop
 endfacet
 facet normal  0.000000e+00  0.000000e+00  1.000000e+00
   outer loop
     vertex  6.048000e+02  3.972857e+01  8.000000e+00
     vertex  5.900000e+02  3.972857e+01  8.000000e+00
     vertex  5.900000e+02  0.000000e+00  8.000000e+00
   endloop
 endfacet
 facet normal  0.000000e+00  0.000000e+00  1.000000e+00
   outer loop
     vertex  6.048000e+02  1.557286e+02  8.000000e+00
     vertex  5.900000e+02  1.557286e+02  8.000000e+00
     vertex  5.900000e+02  6.427143e+01  8.000000e+00
   endloop
 endfacet
 facet normal  0.000000e+00  0.000000e+00  1.000000e+00
   outer loop
     vertex  6.048000e+02  1.557286e+02  8.000000e+00
     vertex  5.900000e+02  6.427143e+01  8.000000e+00
     vertex  6.048000e+02  6.427143e+01  8.000000e+00
   endloop
 endfacet
 facet normal  0.000000e+00  0.000000e+00  1.000000e+00
   outer loop
     vertex  7.700000e+02  0.000000e+00  8.000000e+00
     vertex  6.048000e+02  3.972857e+01  8.000000e+00
     vertex  5.900000e+02  0.000000e+00  8.000000e+00
   endloop
 endfacet
 facet normal  0.000000e+00  0.000000e+00  1.000000e+00
   outer loop
     vertex  5.900000e+02  2.150000e+02  8.000000e+00
     vertex  5.900000e+02  1.802714e+02  8.000000e+00
     vertex  6.048000e+02  1.802714e+02  8.000000e+00
   endloop
 endfacet
 facet normal  0.000000e+00  0.000000e+00  1.000000e+00
   outer loop
     vertex  7.700000e+02  4.000000e+01  8.000000e+00
     vertex  6.048000e+02  6.427143e+01  8.000000e+00
     vertex  6.048000e+02  3.972857e+01  8.000000e+00
   endloop
 endfacet
 facet normal  0.000000e+00  0.000000e+00  1.000000e+00
   outer loop
     vertex  7.700000e+02  4.000000e+01  8.000000e+00
     vertex  6.048000e+02  3.972857e+01  8.000000e+00
     vertex  7.700000e+02  0.000000e+00  8.000000e+00
   endloop
 endfacet
 facet normal  0.000000e+00  0.000000e+00  1.000000e+00
   outer loop
     vertex  7.700000e+02  6.400000e+01  8.000000e+00
     vertex  6.048000e+02  6.427143e+01  8.000000e+00
     vertex  7.700000e+02  4.000000e+01  8.000000e+00
   endloop
 endfacet
 facet normal  0.000000e+00  0.000000e+00  1.000000e+00
   outer loop
     vertex  7.838000e+02  6.400000e+01  8.000000e+00
     vertex  7.700000e+02  4.000000e+01  8.000000e+00
     vertex  7.838000e+02  4.000000e+01  8.000000e+00
   endloop
 endfacet
 facet normal  0.000000e+00  0.000000e+00  1.000000e+00
   outer loop
     vertex  7.838000e+02  6.400000e+01  8.000000e+00
     vertex  7.700000e+02  6.400000e+01  8.000000e+00
     vertex  7.700000e+02  4.000000e+01  8.000000e+00
   endloop
 endfacet
 facet normal  0.000000e+00  0.000000e+00  1.000000e+00
   outer loop
     vertex  7.700000e+02  1.560000e+02  8.000000e+00
     vertex  6.048000e+02  1.802714e+02  8.000000e+00
     vertex  6.048000e+02  1.557286e+02  8.000000e+00
   endloop
 endfacet
 facet normal  0.000000e+00  0.000000e+00  1.000000e+00
   outer loop
     vertex  7.700000e+02  1.560000e+02  8.000000e+00
     vertex  6.048000e+02  1.557286e+02  8.000000e+00
     vertex  6.048000e+02  6.427143e+01  8.000000e+00
   endloop
 endfacet
 facet normal  0.000000e+00  0.000000e+00  1.000000e+00
   outer loop
     vertex  7.700000e+02  1.560000e+02  8.000000e+00
     vertex  6.048000e+02  6.427143e+01  8.000000e+00
     vertex  7.700000e+02  6.400000e+01  8.000000e+00
   endloop
 endfacet
 facet normal  0.000000e+00  0.000000e+00  1.000000e+00
   outer loop
     vertex  7.700000e+02  1.800000e+02  8.000000e+00
     vertex  6.048000e+02  1.802714e+02  8.000000e+00
     vertex  7.700000e+02  1.560000e+02  8.000000e+00
   endloop
 endfacet
 facet normal  0.000000e+00  0.000000e+00  1.000000e+00
   outer loop
     vertex  7.838000e+02  1.800000e+02  8.000000e+00
     vertex  7.700000e+02  1.560000e+02  8.000000e+00
     vertex  7.838000e+02  1.560000e+02  8.000000e+00
   endloop
 endfacet
 facet normal  0.000000e+00  0.000000e+00  1.000000e+00
   outer loop
     vertex  7.838000e+02  1.800000e+02  8.000000e+00
     vertex  7.700000e+02  1.800000e+02  8.000000e+00
     vertex  7.700000e+02  1.560000e+02  8.000000e+00
   endloop
 endfacet
 facet normal  0.000000e+00  0.000000e+00  1.000000e+00
   outer loop
     vertex  7.700000e+02  2.150000e+02  8.000000e+00
     vertex  5.900000e+02  2.150000e+02  8.000000e+00
     vertex  6.048000e+02  1.802714e+02  8.000000e+00
   endloop
 endfacet
 facet normal  0.000000e+00  0.000000e+00  1.000000e+00
   outer loop
     vertex  7.700000e+02  2.150000e+02  8.000000e+00
     vertex  6.048000e+02  1.802714e+02  8.000000e+00
     vertex  7.700000e+02  1.800000e+02  8.000000e+00
   endloop
 endfacet
 facet normal  0.000000e+00  0.000000e+00 -1.000000e+00
   outer loop
     vertex  7.700000e+02  6.700000e+01  0.000000e+00
     vertex  7.838000e+02  6.700000e+01  0.000000e+00
     vertex  7.838000e+02  3.700000e+01  0.000000e+00
   endloop
 endfacet
 facet normal  0.000000e+00  0.000000e+00 -1.000000e+00
   outer loop
     vertex  7.700000e+02  6.700000e+01  0.000000e+00
     vertex  7.838000e+02  3.700000e+01  0.000000e+00
     vertex  7.700000e+02  3.700000e+01  0.000000e+00
   endloop
 endfacet
 facet normal  0.000000e+00  0.000000e+00 -1.000000e+00
   outer loop
     vertex  7.700000e+02  1.830000e+02  0.000000e+00
     vertex  7.838000e+02  1.830000e+02  0.000000e+00
     vertex  7.838000e+02  1.530000e+02  0.000000e+00
   endloop
 endfacet
 facet normal  0.000000e+00  0.000000e+00 -1.000000e+00
   outer loop
     vertex  7.700000e+02  1.830000e+02  0.000000e+00
     vertex  7.838000e+02  1.530000e+02  0.000000e+00
     vertex  7.700000e+02  1.530000e+02  0.000000e+00
   endloop
 endfacet
 facet normal  4.748333e-18 -5.783140e-34 -1.000000e+00
   outer loop
     vertex  6.048000e+02  3.687143e+01 -7.844246e-16
     vertex  7.700000e+02  3.700000e+01  0.000000e+00
     vertex  7.700000e+02  0.000000e+00  0.000000e+00
   endloop
 endfacet
 facet normal -3.711975e-34 -2.127459e-17 -1.000000e+00
   outer loop
     vertex  6.048000e+02  3.687143e+01 -7.844246e-16
     vertex  7.700000e+02  0.000000e+00  0.000000e+00
     vertex  5.900000e+02  0.000000e+00  0.000000e+00
   endloop
 endfacet
 facet normal  4.748333e-18 -7.132539e-34 -1.000000e+00
   outer loop
     vertex  6.048000e+02  3.687143e+01 -7.844246e-16
     vertex  7.700000e+02  6.700000e+01  0.000000e+00
     vertex  7.700000e+02  3.700000e+01  0.000000e+00
   endloop
 endfacet
 facet normal -5.300166e-17 -0.000000e+00 -1.000000e+00
   outer loop
     vertex  5.900000e+02  3.687143e+01  0.000000e+00
     vertex  6.048000e+02  3.687143e+01 -7.844246e-16
     vertex  5.900000e+02  0.000000e+00  0.000000e+00
   endloop
 endfacet
 facet normal -3.136155e-20  2.620786e-17 -1.000000e+00
   outer loop
     vertex  6.048000e+02  6.712857e+01  8.550510e-18
     vertex  7.700000e+02  6.700000e+01  0.000000e+00
     vertex  6.048000e+02  3.687143e+01 -7.844246e-16
   endloop
 endfacet
 facet normal  4.748333e-18 -2.488095e-34 -1.000000e+00
   outer loop
     vertex  6.048000e+02  1.528714e+02 -7.844246e-16
     vertex  7.700000e+02  1.530000e+02  0.000000e+00
     vertex  7.700000e+02  6.700000e+01  0.000000e+00
   endloop
 endfacet
 facet normal  4.748333e-18 -7.132539e-34 -1.000000e+00
   outer loop
     vertex  6.048000e+02  1.528714e+02 -7.844246e-16
     vertex  7.700000e+02  1.830000e+02  0.000000e+00
     vertex  7.700000e+02  1.530000e+02  0.000000e+00
   endloop
 endfacet
 facet normal -5.895627e-20 -9.248293e-18 -1.000000e+00
   outer loop
     vertex  6.048000e+02  1.528714e+02 -7.844246e-16
     vertex  7.700000e+02  6.700000e+01  0.000000e+00
     vertex  6.048000e+02  6.712857e+01  8.550510e-18
   endloop
 endfacet
 facet normal  5.777372e-19  0.000000e+00 -1.000000e+00
   outer loop
     vertex  5.900000e+02  1.528714e+02  0.000000e+00
     vertex  6.048000e+02  6.712857e+01  8.550510e-18
     vertex  5.900000e+02  6.712857e+01  0.000000e+00
   endloop
 endfacet
 facet normal -5.300166e-17 -9.248293e-18 -1.000000e+00
   outer loop
     vertex  5.900000e+02  1.528714e+02  0.000000e+00
     vertex  6.048000e+02  1.528714e+02 -7.844246e-16
     vertex  6.048000e+02  6.712857e+01  8.550510e-18
   endloop
 endfacet
 facet normal -5.175853e-20  1.140194e-35 -1.000000e+00
   outer loop
     vertex  6.048000e+02  1.831286e+02  8.550510e-18
     vertex  7.700000e+02  2.200000e+02  0.000000e+00
     vertex  7.700000e+02  1.830000e+02  0.000000e+00
   endloop
 endfacet
 facet normal -3.136155e-20  2.620786e-17 -1.000000e+00
   outer loop
     vertex  6.048000e+02  1.831286e+02  8.550510e-18
     vertex  7.700000e+02  1.830000e+02  0.000000e+00
     vertex  6.048000e+02  1.528714e+02 -7.844246e-16
   endloop
 endfacet
 facet normal  5.777372e-19  0.000000e+00 -1.000000e+00
   outer loop
     vertex  5.900000e+02  2.200000e+02  0.000000e+00
     vertex  6.048000e+02  1.831286e+02  8.550510e-18
     vertex  5.900000e+02  1.831286e+02  0.000000e+00
   endloop
 endfacet
 facet normal  0.000000e+00 -2.319007e-19 -1.000000e+00
   outer loop
     vertex  5.900000e+02  2.200000e+02  0.000000e+00
     vertex  7.700000e+02  2.200000e+02  0.000000e+00
     vertex  6.048000e+02  1.831286e+02  8.550510e-18
   endloop
 endfacet
 facet normal  1.000000e+00  0.000000e+00  0.000000e+00
   outer loop
     vertex  7.700000e+02  1.830000e+02  0.000000e+00
     vertex  7.700000e+02  2.200000e+02  0.000000e+00
     vertex  7.700000e+02  2.150000e+02  8.000000e+00
   endloop
 endfacet
 facet normal  1.000000e+00 -0.000000e+00  0.000000e+00
   outer loop
     vertex  7.700000e+02  1.800000e+02  8.000000e+00
     vertex  7.700000e+02  1.830000e+02  0.000000e+00
     vertex  7.700000e+02  2.150000e+02  8.000000e+00
   endloop
 endfacet
 facet normal  1.000000e+00  0.000000e+00  0.000000e+00
   outer loop
     vertex  7.700000e+02  2.200000e+02  4.900000e+01
     vertex  7.700000e+02  2.150000e+02  8.000000e+00
     vertex  7.700000e+02  2.200000e+02  0.000000e+00
   endloop
 endfacet
 facet normal  1.000000e+00  0.000000e+00  0.000000e+00
   outer loop
     vertex  7.700000e+02  2.150000e+02  5.284615e+01
     vertex  7.700000e+02  2.150000e+02  8.000000e+00
     vertex  7.700000e+02  2.200000e+02  4.900000e+01
   endloop
 endfacet
 facet normal  0.000000e+00  1.000000e+00  0.000000e+00
   outer loop
     vertex  6.048000e+02  2.200000e+02  4.894286e+01
     vertex  5.900000e+02  2.200000e+02  0.000000e+00
     vertex  5.900000e+02  2.200000e+02  4.894286e+01
   endloop
 endfacet
 facet normal  0.000000e+00  1.000000e+00  0.000000e+00
   outer loop
     vertex  6.048000e+02  2.200000e+02  1.629429e+02
     vertex  6.048000e+02  2.200000e+02  8.305714e+01
     vertex  5.900000e+02  2.200000e+02  8.305714e+01
   endloop
 endfacet
 facet normal  0.000000e+00  1.000000e+00  0.000000e+00
   outer loop
     vertex  6.048000e+02  2.200000e+02  1.629429e+02
     vertex  5.900000e+02  2.200000e+02  8.305714e+01
     vertex  5.900000e+02  2.200000e+02  1.629429e+02
   endloop
 endfacet
 facet normal  0.000000e+00  1.000000e+00  0.000000e+00
   outer loop
     vertex  7.700000e+02  2.200000e+02  0.000000e+00
     vertex  5.900000e+02  2.200000e+02  0.000000e+00
     vertex  6.048000e+02  2.200000e+02  4.894286e+01
   endloop
 endfacet
 facet normal  0.000000e+00  1.000000e+00  0.000000e+00
   outer loop
     vertex  7.700000e+02  2.200000e+02  4.900000e+01
     vertex  7.700000e+02  2.200000e+02  0.000000e+00
     vertex  6.048000e+02  2.200000e+02  4.894286e+01
   endloop
 endfacet
 facet normal  0.000000e+00  1.000000e+00  0.000000e+00
   outer loop
     vertex  5.900000e+02  2.200000e+02  2.380000e+02
     vertex  6.048000e+02  2.200000e+02  1.970571e+02
     vertex  5.900000e+02  2.200000e+02  1.970571e+02
   endloop
 endfacet
 facet normal  0.000000e+00  1.000000e+00  0.000000e+00
   outer loop
     vertex  7.700000e+02  2.200000e+02  8.300000e+01
     vertex  6.048000e+02  2.200000e+02  4.894286e+01
     vertex  6.048000e+02  2.200000e+02  8.305714e+01
   endloop
 endfacet
 facet normal  0.000000e+00  1.000000e+00  0.000000e+00
   outer loop
     vertex  7.700000e+02  2.200000e+02  8.300000e+01
     vertex  6.048000e+02  2.200000e+02  8.305714e+01
     vertex  6.048000e+02  2.200000e+02  1.629429e+02
   endloop
 endfacet
 facet normal  0.000000e+00  1.000000e+00  0.000000e+00
   outer loop
     vertex  7.700000e+02  2.200000e+02  8.300000e+01
     vertex  7.700000e+02  2.200000e+02  4.900000e+01
     vertex  6.048000e+02  2.200000e+02  4.894286e+01
   endloop
 endfacet
 facet normal  0.000000e+00  1.000000e+00  0.000000e+00
   outer loop
     vertex  7.838000e+02  2.200000e+02  8.300000e+01
     vertex  7.838000e+02  2.200000e+02  4.900000e+01
     vertex  7.700000e+02  2.200000e+02  4.900000e+01
   endloop
 endfacet
 facet normal  0.000000e+00  1.000000e+00  0.000000e+00
   outer loop
     vertex  7.838000e+02  2.200000e+02  8.300000e+01
     vertex  7.700000e+02  2.200000e+02  4.900000e+01
     vertex  7.700000e+02  2.200000e+02  8.300000e+01
   endloop
 endfacet
 facet normal  0.000000e+00  1.000000e+00  0.000000e+00
   outer loop
     vertex  7.700000e+02  2.200000e+02  1.630000e+02
     vertex  7.700000e+02  2.200000e+02  8.300000e+01
     vertex  6.048000e+02  2.200000e+02  1.629429e+02
   endloop
 endfacet
 facet normal  0.000000e+00  1.000000e+00  0.000000e+00
   outer loop
     vertex  7.700000e+02  2.200000e+02  1.970000e+02
     vertex  6.048000e+02  2.200000e+02  1.629429e+02
     vertex  6.048000e+02  2.200000e+02  1.970571e+02
   endloop
 endfacet
 facet normal  0.000000e+00  1.000000e+00  0.000000e+00
   outer loop
     vertex  7.700000e+02  2.200000e+02  1.970000e+02
     vertex  7.700000e+02  2.200000e+02  1.630000e+02
     vertex  6.048000e+02  2.200000e+02  1.629429e+02
   endloop
 endfacet
 facet normal  0.000000e+00  1.000000e+00  0.000000e+00
   outer loop
     vertex  7.838000e+02  2.200000e+02  1.970000e+02
     vertex  7.838000e+02  2.200000e+02  1.630000e+02
     vertex  7.700000e+02  2.200000e+02  1.630000e+02
   endloop
 endfacet
 facet normal  0.000000e+00  1.000000e+00  0.000000e+00
   outer loop
     vertex  7.838000e+02  2.200000e+02  1.970000e+02
     vertex  7.700000e+02  2.200000e+02  1.630000e+02
     vertex  7.700000e+02  2.200000e+02  1.970000e+02
   endloop
 endfacet
 facet normal  0.000000e+00  1.000000e+00  0.000000e+00
   outer loop
     vertex  7.700000e+02  2.200000e+02  2.380000e+02
     vertex  6.048000e+02  2.200000e+02  1.970571e+02
     vertex  5.900000e+02  2.200000e+02  2.380000e+02
   endloop
 endfacet
 facet normal  0.000000e+00  1.000000e+00  0.000000e+00
   outer loop
     vertex  7.700000e+02  2.200000e+02  2.380000e+02
     vertex  7.700000e+02  2.200000e+02  1.970000e+02
     vertex  6.048000e+02  2.200000e+02  1.970571e+02
   endloop
 endfacet
endsolid
