solid 01_base_04
facet normal 0 0 -1
outer loop
vertex 0 20 0
vertex 230 0 0
vertex 0 0 0
endloop
endfacet
facet normal 0 0 1
outer loop
vertex 0 20 4
vertex 0 0 4
vertex 230 0 4
endloop
endfacet
facet normal 0 0 -1
outer loop
vertex 230 0 0
vertex 0 220 0
vertex 230 220 0
endloop
endfacet
facet normal 0 0 1
outer loop
vertex 230 0 4
vertex 230 220 4
vertex 0 220 4
endloop
endfacet
facet normal 0 0 -1
outer loop
vertex 0 220 0
vertex 8 200 0
vertex 0 200 0
endloop
endfacet
facet normal 0 0 1
outer loop
vertex 0 220 4
vertex 0 200 4
vertex 8 200 4
endloop
endfacet
facet normal 0 0 -1
outer loop
vertex 230 0 0
vertex 8 200 0
vertex 0 220 0
endloop
endfacet
facet normal 0 0 1
outer loop
vertex 230 0 4
vertex 0 220 4
vertex 8 200 4
endloop
endfacet
facet normal 0 0 -1
outer loop
vertex 230 0 0
vertex 8 140 0
vertex 8 200 0
endloop
endfacet
facet normal 0 0 1
outer loop
vertex 230 0 4
vertex 8 200 4
vertex 8 140 4
endloop
endfacet
facet normal 0 0 -1
outer loop
vertex 230 0 0
vertex 0 140 0
vertex 8 140 0
endloop
endfacet
facet normal 0 0 1
outer loop
vertex 230 0 4
vertex 8 140 4
vertex 0 140 4
endloop
endfacet
facet normal 0 0 -1
outer loop
vertex 0 140 0
vertex 8 80 0
vertex 0 80 0
endloop
endfacet
facet normal 0 0 1
outer loop
vertex 0 140 4
vertex 0 80 4
vertex 8 80 4
endloop
endfacet
facet normal 0 0 -1
outer loop
vertex 230 0 0
vertex 8 80 0
vertex 0 140 0
endloop
endfacet
facet normal 0 0 1
outer loop
vertex 230 0 4
vertex 0 140 4
vertex 8 80 4
endloop
endfacet
facet normal 0 0 -1
outer loop
vertex 230 0 0
vertex 8 20 0
vertex 8 80 0
endloop
endfacet
facet normal 0 0 1
outer loop
vertex 230 0 4
vertex 8 80 4
vertex 8 20 4
endloop
endfacet
facet normal 0 0 -1
outer loop
vertex 230 0 0
vertex 0 20 0
vertex 8 20 0
endloop
endfacet
facet normal 0 0 1
outer loop
vertex 230 0 4
vertex 8 20 4
vertex 0 20 4
endloop
endfacet
facet normal 0 -1 0
outer loop
vertex 0 0 0
vertex 230 0 0
vertex 230 0 4
endloop
endfacet
facet normal 0 -1 0
outer loop
vertex 0 0 0
vertex 230 0 4
vertex 0 0 4
endloop
endfacet
facet normal 1 0 0
outer loop
vertex 230 0 0
vertex 230 220 0
vertex 230 220 4
endloop
endfacet
facet normal 1 0 0
outer loop
vertex 230 0 0
vertex 230 220 4
vertex 230 0 4
endloop
endfacet
facet normal 0 1 0
outer loop
vertex 230 220 0
vertex 0 220 0
vertex 0 220 4
endloop
endfacet
facet normal 0 1 0
outer loop
vertex 230 220 0
vertex 0 220 4
vertex 230 220 4
endloop
endfacet
facet normal -1 0 0
outer loop
vertex 0 220 0
vertex 0 200 0
vertex 0 200 4
endloop
endfacet
facet normal -1 0 0
outer loop
vertex 0 220 0
vertex 0 200 4
vertex 0 220 4
endloop
endfacet
facet normal 0 -1 0
outer loop
vertex 0 200 0
vertex 8 200 0
vertex 8 200 4
endloop
endfacet
facet normal 0 -1 0
outer loop
vertex 0 200 0
vertex 8 200 4
vertex 0 200 4
endloop
endfacet
facet normal -1 0 0
outer loop
vertex 8 200 0
vertex 8 140 0
vertex 8 140 4
endloop
endfacet
facet normal -1 0 0
outer loop
vertex 8 200 0
vertex 8 140 4
vertex 8 200 4
endloop
endfacet
facet normal 0 1 0
outer loop
vertex 8 140 0
vertex 0 140 0
vertex 0 140 4
endloop
endfacet
facet normal 0 1 0
outer loop
vertex 8 140 0
vertex 0 140 4
vertex 8 140 4
endloop
endfacet
facet normal -1 0 0
outer loop
vertex 0 140 0
vertex 0 80 0
vertex 0 80 4
endloop
endfacet
facet normal -1 0 0
outer loop
vertex 0 140 0
vertex 0 80 4
vertex 0 140 4
endloop
endfacet
facet normal 0 -1 0
outer loop
vertex 0 80 0
vertex 8 80 0
vertex 8 80 4
endloop
endfacet
facet normal 0 -1 0
outer loop
vertex 0 80 0
vertex 8 80 4
vertex 0 80 4
endloop
endfacet
facet normal -1 0 0
outer loop
vertex 8 80 0
vertex 8 20 0
vertex 8 20 4
endloop
endfacet
facet normal -1 0 0
outer loop
vertex 8 80 0
vertex 8 20 4
vertex 8 80 4
endloop
endfacet
facet normal 0 1 0
outer loop
vertex 8 20 0
vertex 0 20 0
vertex 0 20 4
endloop
endfacet
facet normal 0 1 0
outer loop
vertex 8 20 0
vertex 0 20 4
vertex 8 20 4
endloop
endfacet
facet normal -1 0 0
outer loop
vertex 0 20 0
vertex 0 0 0
vertex 0 0 4
endloop
endfacet
facet normal -1 0 0
outer loop
vertex 0 20 0
vertex 0 0 4
vertex 0 20 4
endloop
endfacet
facet normal 0 0 -1
outer loop
vertex 0 0 4
vertex 224 220 4
vertex 224 0 4
endloop
endfacet
facet normal 0 0 -1
outer loop
vertex 0 0 4
vertex 0 220 4
vertex 224 220 4
endloop
endfacet
facet normal 0 0 1
outer loop
vertex 0 0 8
vertex 224 0 8
vertex 224 220 8
endloop
endfacet
facet normal 0 0 1
outer loop
vertex 0 0 8
vertex 224 220 8
vertex 0 220 8
endloop
endfacet
facet normal 0 -1 0
outer loop
vertex 0 0 4
vertex 224 0 4
vertex 224 0 8
endloop
endfacet
facet normal 0 -1 0
outer loop
vertex 0 0 4
vertex 224 0 8
vertex 0 0 8
endloop
endfacet
facet normal 1 0 0
outer loop
vertex 224 0 4
vertex 224 220 4
vertex 224 220 8
endloop
endfacet
facet normal 1 0 0
outer loop
vertex 224 0 4
vertex 224 220 8
vertex 224 0 8
endloop
endfacet
facet normal 0 1 0
outer loop
vertex 224 220 4
vertex 0 220 4
vertex 0 220 8
endloop
endfacet
facet normal 0 1 0
outer loop
vertex 224 220 4
vertex 0 220 8
vertex 224 220 8
endloop
endfacet
facet normal -1 0 0
outer loop
vertex 0 220 4
vertex 0 0 4
vertex 0 0 8
endloop
endfacet
facet normal -1 0 0
outer loop
vertex 0 220 4
vertex 0 0 8
vertex 0 220 8
endloop
endfacet
endsolid 01_base_04
