solid 01_base_02
facet normal 0 0 -1
outer loop
vertex 0 20 0
vertex 230 0 0
vertex 0 0 0
endloop
endfacet
facet normal 0 0 1
outer loop
vertex 0 20 4
vertex 0 0 4
vertex 230 0 4
endloop
endfacet
facet normal 0 0 -1
outer loop
vertex 230 20 0
vertex 238 80 0
vertex 238 20 0
endloop
endfacet
facet normal 0 0 1
outer loop
vertex 230 20 4
vertex 238 20 4
vertex 238 80 4
endloop
endfacet
facet normal 0 0 -1
outer loop
vertex 230 20 0
vertex 230 80 0
vertex 238 80 0
endloop
endfacet
facet normal 0 0 1
outer loop
vertex 230 20 4
vertex 238 80 4
vertex 230 80 4
endloop
endfacet
facet normal 0 0 -1
outer loop
vertex 230 140 0
vertex 238 200 0
vertex 238 140 0
endloop
endfacet
facet normal 0 0 1
outer loop
vertex 230 140 4
vertex 238 140 4
vertex 238 200 4
endloop
endfacet
facet normal 0 0 -1
outer loop
vertex 230 140 0
vertex 230 200 0
vertex 238 200 0
endloop
endfacet
facet normal 0 0 1
outer loop
vertex 230 140 4
vertex 238 200 4
vertex 230 200 4
endloop
endfacet
facet normal 0 0 -1
outer loop
vertex 230 200 0
vertex 0 220 0
vertex 230 220 0
endloop
endfacet
facet normal 0 0 1
outer loop
vertex 230 200 4
vertex 230 220 4
vertex 0 220 4
endloop
endfacet
facet normal 0 0 -1
outer loop
vertex 230 140 0
vertex 0 220 0
vertex 230 200 0
endloop
endfacet
facet normal 0 0 1
outer loop
vertex 230 140 4
vertex 230 200 4
vertex 0 220 4
endloop
endfacet
facet normal 0 0 -1
outer loop
vertex 230 80 0
vertex 0 220 0
vertex 230 140 0
endloop
endfacet
facet normal 0 0 1
outer loop
vertex 230 80 4
vertex 230 140 4
vertex 0 220 4
endloop
endfacet
facet normal 0 0 -1
outer loop
vertex 230 20 0
vertex 0 220 0
vertex 230 80 0
endloop
endfacet
facet normal 0 0 1
outer loop
vertex 230 20 4
vertex 230 80 4
vertex 0 220 4
endloop
endfacet
facet normal 0 0 -1
outer loop
vertex 230 0 0
vertex 0 220 0
vertex 230 20 0
endloop
endfacet
facet normal 0 0 1
outer loop
vertex 230 0 4
vertex 230 20 4
vertex 0 220 4
endloop
endfacet
facet normal 0 0 -1
outer loop
vertex 0 220 0
vertex 8 200 0
vertex 0 200 0
endloop
endfacet
facet normal 0 0 1
outer loop
vertex 0 220 4
vertex 0 200 4
vertex 8 200 4
endloop
endfacet
facet normal 0 0 -1
outer loop
vertex 230 0 0
vertex 8 200 0
vertex 0 220 0
endloop
endfacet
facet normal 0 0 1
outer loop
vertex 230 0 4
vertex 0 220 4
vertex 8 200 4
endloop
endfacet
facet normal 0 0 -1
outer loop
vertex 230 0 0
vertex 8 140 0
vertex 8 200 0
endloop
endfacet
facet normal 0 0 1
outer loop
vertex 230 0 4
vertex 8 200 4
vertex 8 140 4
endloop
endfacet
facet normal 0 0 -1
outer loop
vertex 230 0 0
vertex 0 140 0
vertex 8 140 0
endloop
endfacet
facet normal 0 0 1
outer loop
vertex 230 0 4
vertex 8 140 4
vertex 0 140 4
endloop
endfacet
facet normal 0 0 -1
outer loop
vertex 0 140 0
vertex 8 80 0
vertex 0 80 0
endloop
endfacet
facet normal 0 0 1
outer loop
vertex 0 140 4
vertex 0 80 4
vertex 8 80 4
endloop
endfacet
facet normal 0 0 -1
outer loop
vertex 230 0 0
vertex 8 80 0
vertex 0 140 0
endloop
endfacet
facet normal 0 0 1
outer loop
vertex 230 0 4
vertex 0 140 4
vertex 8 80 4
endloop
endfacet
facet normal 0 0 -1
outer loop
vertex 230 0 0
vertex 8 20 0
vertex 8 80 0
endloop
endfacet
facet normal 0 0 1
outer loop
vertex 230 0 4
vertex 8 80 4
vertex 8 20 4
endloop
endfacet
facet normal 0 0 -1
outer loop
vertex 230 0 0
vertex 0 20 0
vertex 8 20 0
endloop
endfacet
facet normal 0 0 1
outer loop
vertex 230 0 4
vertex 8 20 4
vertex 0 20 4
endloop
endfacet
facet normal 0 -1 0
outer loop
vertex 0 0 0
vertex 230 0 0
vertex 230 0 4
endloop
endfacet
facet normal 0 -1 0
outer loop
vertex 0 0 0
vertex 230 0 4
vertex 0 0 4
endloop
endfacet
facet normal 1 0 0
outer loop
vertex 230 0 0
vertex 230 20 0
vertex 230 20 4
endloop
endfacet
facet normal 1 0 0
outer loop
vertex 230 0 0
vertex 230 20 4
vertex 230 0 4
endloop
endfacet
facet normal 0 -1 0
outer loop
vertex 230 20 0
vertex 238 20 0
vertex 238 20 4
endloop
endfacet
facet normal 0 -1 0
outer loop
vertex 230 20 0
vertex 238 20 4
vertex 230 20 4
endloop
endfacet
facet normal 1 0 0
outer loop
vertex 238 20 0
vertex 238 80 0
vertex 238 80 4
endloop
endfacet
facet normal 1 0 0
outer loop
vertex 238 20 0
vertex 238 80 4
vertex 238 20 4
endloop
endfacet
facet normal 0 1 0
outer loop
vertex 238 80 0
vertex 230 80 0
vertex 230 80 4
endloop
endfacet
facet normal 0 1 0
outer loop
vertex 238 80 0
vertex 230 80 4
vertex 238 80 4
endloop
endfacet
facet normal 1 0 0
outer loop
vertex 230 80 0
vertex 230 140 0
vertex 230 140 4
endloop
endfacet
facet normal 1 0 0
outer loop
vertex 230 80 0
vertex 230 140 4
vertex 230 80 4
endloop
endfacet
facet normal 0 -1 0
outer loop
vertex 230 140 0
vertex 238 140 0
vertex 238 140 4
endloop
endfacet
facet normal 0 -1 0
outer loop
vertex 230 140 0
vertex 238 140 4
vertex 230 140 4
endloop
endfacet
facet normal 1 0 0
outer loop
vertex 238 140 0
vertex 238 200 0
vertex 238 200 4
endloop
endfacet
facet normal 1 0 0
outer loop
vertex 238 140 0
vertex 238 200 4
vertex 238 140 4
endloop
endfacet
facet normal 0 1 0
outer loop
vertex 238 200 0
vertex 230 200 0
vertex 230 200 4
endloop
endfacet
facet normal 0 1 0
outer loop
vertex 238 200 0
vertex 230 200 4
vertex 238 200 4
endloop
endfacet
facet normal 1 0 0
outer loop
vertex 230 200 0
vertex 230 220 0
vertex 230 220 4
endloop
endfacet
facet normal 1 0 0
outer loop
vertex 230 200 0
vertex 230 220 4
vertex 230 200 4
endloop
endfacet
facet normal 0 1 0
outer loop
vertex 230 220 0
vertex 0 220 0
vertex 0 220 4
endloop
endfacet
facet normal 0 1 0
outer loop
vertex 230 220 0
vertex 0 220 4
vertex 230 220 4
endloop
endfacet
facet normal -1 0 0
outer loop
vertex 0 220 0
vertex 0 200 0
vertex 0 200 4
endloop
endfacet
facet normal -1 0 0
outer loop
vertex 0 220 0
vertex 0 200 4
vertex 0 220 4
endloop
endfacet
facet normal 0 -1 0
outer loop
vertex 0 200 0
vertex 8 200 0
vertex 8 200 4
endloop
endfacet
facet normal 0 -1 0
outer loop
vertex 0 200 0
vertex 8 200 4
vertex 0 200 4
endloop
endfacet
facet normal -1 0 0
outer loop
vertex 8 200 0
vertex 8 140 0
vertex 8 140 4
endloop
endfacet
facet normal -1 0 0
outer loop
vertex 8 200 0
vertex 8 140 4
vertex 8 200 4
endloop
endfacet
facet normal 0 1 0
outer loop
vertex 8 140 0
vertex 0 140 0
vertex 0 140 4
endloop
endfacet
facet normal 0 1 0
outer loop
vertex 8 140 0
vertex 0 140 4
vertex 8 140 4
endloop
endfacet
facet normal -1 0 0
outer loop
vertex 0 140 0
vertex 0 80 0
vertex 0 80 4
endloop
endfacet
facet normal -1 0 0
outer loop
vertex 0 140 0
vertex 0 80 4
vertex 0 140 4
endloop
endfacet
facet normal 0 -1 0
outer loop
vertex 0 80 0
vertex 8 80 0
vertex 8 80 4
endloop
endfacet
facet normal 0 -1 0
outer loop
vertex 0 80 0
vertex 8 80 4
vertex 0 80 4
endloop
endfacet
facet normal -1 0 0
outer loop
vertex 8 80 0
vertex 8 20 0
vertex 8 20 4
endloop
endfacet
facet normal -1 0 0
outer loop
vertex 8 80 0
vertex 8 20 4
vertex 8 80 4
endloop
endfacet
facet normal 0 1 0
outer loop
vertex 8 20 0
vertex 0 20 0
vertex 0 20 4
endloop
endfacet
facet normal 0 1 0
outer loop
vertex 8 20 0
vertex 0 20 4
vertex 8 20 4
endloop
endfacet
facet normal -1 0 0
outer loop
vertex 0 20 0
vertex 0 0 0
vertex 0 0 4
endloop
endfacet
facet normal -1 0 0
outer loop
vertex 0 20 0
vertex 0 0 4
vertex 0 20 4
endloop
endfacet
facet normal 0 0 -1
outer loop
vertex 0 0 4
vertex 130 220 4
vertex 130 0 4
endloop
endfacet
facet normal 0 0 -1
outer loop
vertex 0 0 4
vertex 0 220 4
vertex 130 220 4
endloop
endfacet
facet normal 0 0 1
outer loop
vertex 0 0 8
vertex 130 0 8
vertex 130 220 8
endloop
endfacet
facet normal 0 0 1
outer loop
vertex 0 0 8
vertex 130 220 8
vertex 0 220 8
endloop
endfacet
facet normal 0 -1 0
outer loop
vertex 0 0 4
vertex 130 0 4
vertex 130 0 8
endloop
endfacet
facet normal 0 -1 0
outer loop
vertex 0 0 4
vertex 130 0 8
vertex 0 0 8
endloop
endfacet
facet normal 1 0 0
outer loop
vertex 130 0 4
vertex 130 220 4
vertex 130 220 8
endloop
endfacet
facet normal 1 0 0
outer loop
vertex 130 0 4
vertex 130 220 8
vertex 130 0 8
endloop
endfacet
facet normal 0 1 0
outer loop
vertex 130 220 4
vertex 0 220 4
vertex 0 220 8
endloop
endfacet
facet normal 0 1 0
outer loop
vertex 130 220 4
vertex 0 220 8
vertex 130 220 8
endloop
endfacet
facet normal -1 0 0
outer loop
vertex 0 220 4
vertex 0 0 4
vertex 0 0 8
endloop
endfacet
facet normal -1 0 0
outer loop
vertex 0 220 4
vertex 0 0 8
vertex 0 220 8
endloop
endfacet
facet normal 0 0 -1
outer loop
vertex 136.2 0 4
vertex 230 220 4
vertex 230 0 4
endloop
endfacet
facet normal 0 0 -1
outer loop
vertex 136.2 0 4
vertex 136.2 220 4
vertex 230 220 4
endloop
endfacet
facet normal 0 0 1
outer loop
vertex 136.2 0 8
vertex 230 0 8
vertex 230 220 8
endloop
endfacet
facet normal 0 0 1
outer loop
vertex 136.2 0 8
vertex 230 220 8
vertex 136.2 220 8
endloop
endfacet
facet normal 0 -1 0
outer loop
vertex 136.2 0 4
vertex 230 0 4
vertex 230 0 8
endloop
endfacet
facet normal 0 -1 0
outer loop
vertex 136.2 0 4
vertex 230 0 8
vertex 136.2 0 8
endloop
endfacet
facet normal 1 0 0
outer loop
vertex 230 0 4
vertex 230 220 4
vertex 230 220 8
endloop
endfacet
facet normal 1 0 0
outer loop
vertex 230 0 4
vertex 230 220 8
vertex 230 0 8
endloop
endfacet
facet normal 0 1 0
outer loop
vertex 230 220 4
vertex 136.2 220 4
vertex 136.2 220 8
endloop
endfacet
facet normal 0 1 0
outer loop
vertex 230 220 4
vertex 136.2 220 8
vertex 230 220 8
endloop
endfacet
facet normal -1 0 0
outer loop
vertex 136.2 220 4
vertex 136.2 0 4
vertex 136.2 0 8
endloop
endfacet
facet normal -1 0 0
outer loop
vertex 136.2 220 4
vertex 136.2 0 8
vertex 136.2 220 8
endloop
endfacet
endsolid 01_base_02
