solid 03_back_join_plate_05
facet normal 0 0 -1
outer loop
vertex 0 0 0
vertex 50 35 0
vertex 50 0 0
endloop
endfacet
facet normal 0 0 -1
outer loop
vertex 0 0 0
vertex 0 35 0
vertex 50 35 0
endloop
endfacet
facet normal 0 0 1
outer loop
vertex 0 0 3
vertex 50 0 3
vertex 50 35 3
endloop
endfacet
facet normal 0 0 1
outer loop
vertex 0 0 3
vertex 50 35 3
vertex 0 35 3
endloop
endfacet
facet normal 0 -1 0
outer loop
vertex 0 0 0
vertex 50 0 0
vertex 50 0 3
endloop
endfacet
facet normal 0 -1 0
outer loop
vertex 0 0 0
vertex 50 0 3
vertex 0 0 3
endloop
endfacet
facet normal 1 0 0
outer loop
vertex 50 0 0
vertex 50 35 0
vertex 50 35 3
endloop
endfacet
facet normal 1 0 0
outer loop
vertex 50 0 0
vertex 50 35 3
vertex 50 0 3
endloop
endfacet
facet normal 0 1 0
outer loop
vertex 50 35 0
vertex 0 35 0
vertex 0 35 3
endloop
endfacet
facet normal 0 1 0
outer loop
vertex 50 35 0
vertex 0 35 3
vertex 50 35 3
endloop
endfacet
facet normal -1 0 0
outer loop
vertex 0 35 0
vertex 0 0 0
vertex 0 0 3
endloop
endfacet
facet normal -1 0 0
outer loop
vertex 0 35 0
vertex 0 0 3
vertex 0 35 3
endloop
endfacet
endsolid 03_back_join_plate_05
