solid 04_divider_vertical_join_plate
facet normal 0 0 -1
outer loop
vertex 0 0 0
vertex 45 70 0
vertex 45 0 0
endloop
endfacet
facet normal 0 0 -1
outer loop
vertex 0 0 0
vertex 0 70 0
vertex 45 70 0
endloop
endfacet
facet normal 0 0 1
outer loop
vertex 0 0 3
vertex 45 0 3
vertex 45 70 3
endloop
endfacet
facet normal 0 0 1
outer loop
vertex 0 0 3
vertex 45 70 3
vertex 0 70 3
endloop
endfacet
facet normal 0 -1 0
outer loop
vertex 0 0 0
vertex 45 0 0
vertex 45 0 3
endloop
endfacet
facet normal 0 -1 0
outer loop
vertex 0 0 0
vertex 45 0 3
vertex 0 0 3
endloop
endfacet
facet normal 1 0 0
outer loop
vertex 45 0 0
vertex 45 70 0
vertex 45 70 3
endloop
endfacet
facet normal 1 0 0
outer loop
vertex 45 0 0
vertex 45 70 3
vertex 45 0 3
endloop
endfacet
facet normal 0 1 0
outer loop
vertex 45 70 0
vertex 0 70 0
vertex 0 70 3
endloop
endfacet
facet normal 0 1 0
outer loop
vertex 45 70 0
vertex 0 70 3
vertex 45 70 3
endloop
endfacet
facet normal -1 0 0
outer loop
vertex 0 70 0
vertex 0 0 0
vertex 0 0 3
endloop
endfacet
facet normal -1 0 0
outer loop
vertex 0 70 0
vertex 0 0 3
vertex 0 70 3
endloop
endfacet
endsolid 04_divider_vertical_join_plate
