solid 04_divider_upper
facet normal 0 0 -1
outer loop
vertex 0 0 0
vertex 220 150 0
vertex 220 0 0
endloop
endfacet
facet normal 0 0 -1
outer loop
vertex 0 0 0
vertex 0 150 0
vertex 220 150 0
endloop
endfacet
facet normal 0 0 1
outer loop
vertex 0 0 6
vertex 220 0 6
vertex 220 150 6
endloop
endfacet
facet normal 0 0 1
outer loop
vertex 0 0 6
vertex 220 150 6
vertex 0 150 6
endloop
endfacet
facet normal 0 -1 0
outer loop
vertex 0 0 0
vertex 220 0 0
vertex 220 0 6
endloop
endfacet
facet normal 0 -1 0
outer loop
vertex 0 0 0
vertex 220 0 6
vertex 0 0 6
endloop
endfacet
facet normal 1 0 0
outer loop
vertex 220 0 0
vertex 220 150 0
vertex 220 150 6
endloop
endfacet
facet normal 1 0 0
outer loop
vertex 220 0 0
vertex 220 150 6
vertex 220 0 6
endloop
endfacet
facet normal 0 1 0
outer loop
vertex 220 150 0
vertex 0 150 0
vertex 0 150 6
endloop
endfacet
facet normal 0 1 0
outer loop
vertex 220 150 0
vertex 0 150 6
vertex 220 150 6
endloop
endfacet
facet normal -1 0 0
outer loop
vertex 0 150 0
vertex 0 0 0
vertex 0 0 6
endloop
endfacet
facet normal -1 0 0
outer loop
vertex 0 150 0
vertex 0 0 6
vertex 0 150 6
endloop
endfacet
endsolid 04_divider_upper
