solid 05_right_panel_lower_with_tongue
facet normal 0 0 -1
outer loop
vertex 0 0 0
vertex 220 156 0
vertex 220 0 0
endloop
endfacet
facet normal 0 0 -1
outer loop
vertex 0 0 0
vertex 0 156 0
vertex 220 156 0
endloop
endfacet
facet normal 0 0 1
outer loop
vertex 0 0 6
vertex 220 0 6
vertex 220 156 6
endloop
endfacet
facet normal 0 0 1
outer loop
vertex 0 0 6
vertex 220 156 6
vertex 0 156 6
endloop
endfacet
facet normal 0 -1 0
outer loop
vertex 0 0 0
vertex 220 0 0
vertex 220 0 6
endloop
endfacet
facet normal 0 -1 0
outer loop
vertex 0 0 0
vertex 220 0 6
vertex 0 0 6
endloop
endfacet
facet normal 1 0 0
outer loop
vertex 220 0 0
vertex 220 156 0
vertex 220 156 6
endloop
endfacet
facet normal 1 0 0
outer loop
vertex 220 0 0
vertex 220 156 6
vertex 220 0 6
endloop
endfacet
facet normal 0 1 0
outer loop
vertex 220 156 0
vertex 0 156 0
vertex 0 156 6
endloop
endfacet
facet normal 0 1 0
outer loop
vertex 220 156 0
vertex 0 156 6
vertex 220 156 6
endloop
endfacet
facet normal -1 0 0
outer loop
vertex 0 156 0
vertex 0 0 0
vertex 0 0 6
endloop
endfacet
facet normal -1 0 0
outer loop
vertex 0 156 0
vertex 0 0 6
vertex 0 156 6
endloop
endfacet
endsolid 05_right_panel_lower_with_tongue
