solid 06_garage_deck_2_join_plate
facet normal 0 0 -1
outer loop
vertex 0 0 0
vertex 42 50 0
vertex 42 0 0
endloop
endfacet
facet normal 0 0 -1
outer loop
vertex 0 0 0
vertex 0 50 0
vertex 42 50 0
endloop
endfacet
facet normal 0 0 1
outer loop
vertex 0 0 3
vertex 42 0 3
vertex 42 50 3
endloop
endfacet
facet normal 0 0 1
outer loop
vertex 0 0 3
vertex 42 50 3
vertex 0 50 3
endloop
endfacet
facet normal 0 -1 0
outer loop
vertex 0 0 0
vertex 42 0 0
vertex 42 0 3
endloop
endfacet
facet normal 0 -1 0
outer loop
vertex 0 0 0
vertex 42 0 3
vertex 0 0 3
endloop
endfacet
facet normal 1 0 0
outer loop
vertex 42 0 0
vertex 42 50 0
vertex 42 50 3
endloop
endfacet
facet normal 1 0 0
outer loop
vertex 42 0 0
vertex 42 50 3
vertex 42 0 3
endloop
endfacet
facet normal 0 1 0
outer loop
vertex 42 50 0
vertex 0 50 0
vertex 0 50 3
endloop
endfacet
facet normal 0 1 0
outer loop
vertex 42 50 0
vertex 0 50 3
vertex 42 50 3
endloop
endfacet
facet normal -1 0 0
outer loop
vertex 0 50 0
vertex 0 0 0
vertex 0 0 3
endloop
endfacet
facet normal -1 0 0
outer loop
vertex 0 50 0
vertex 0 0 3
vertex 0 50 3
endloop
endfacet
endsolid 06_garage_deck_2_join_plate
