solid 06_garage_deck_1_left
facet normal 0 0 -1
outer loop
vertex 0 0 0
vertex 180 150 0
vertex 180 0 0
endloop
endfacet
facet normal 0 0 -1
outer loop
vertex 0 0 0
vertex 0 150 0
vertex 180 150 0
endloop
endfacet
facet normal 0 0 1
outer loop
vertex 0 0 5
vertex 180 0 5
vertex 180 150 5
endloop
endfacet
facet normal 0 0 1
outer loop
vertex 0 0 5
vertex 180 150 5
vertex 0 150 5
endloop
endfacet
facet normal 0 -1 0
outer loop
vertex 0 0 0
vertex 180 0 0
vertex 180 0 5
endloop
endfacet
facet normal 0 -1 0
outer loop
vertex 0 0 0
vertex 180 0 5
vertex 0 0 5
endloop
endfacet
facet normal 1 0 0
outer loop
vertex 180 0 0
vertex 180 150 0
vertex 180 150 5
endloop
endfacet
facet normal 1 0 0
outer loop
vertex 180 0 0
vertex 180 150 5
vertex 180 0 5
endloop
endfacet
facet normal 0 1 0
outer loop
vertex 180 150 0
vertex 0 150 0
vertex 0 150 5
endloop
endfacet
facet normal 0 1 0
outer loop
vertex 180 150 0
vertex 0 150 5
vertex 180 150 5
endloop
endfacet
facet normal -1 0 0
outer loop
vertex 0 150 0
vertex 0 0 0
vertex 0 0 5
endloop
endfacet
facet normal -1 0 0
outer loop
vertex 0 150 0
vertex 0 0 5
vertex 0 150 5
endloop
endfacet
endsolid 06_garage_deck_1_left
