solid 07_yellow_column_3
facet normal 0 0 -1
outer loop
vertex 6 6 0
vertex 11.706339097770922 7.854101966249685 0
vertex 12 6 0
endloop
endfacet
facet normal 0 0 1
outer loop
vertex 6 6 250
vertex 12 6 250
vertex 11.706339097770922 7.854101966249685 250
endloop
endfacet
facet normal 0.9876883405951379 0.15643446504023065 0
outer loop
vertex 12 6 0
vertex 11.706339097770922 7.854101966249685 0
vertex 11.706339097770922 7.854101966249685 250
endloop
endfacet
facet normal 0.9876883405951379 0.15643446504023065 0
outer loop
vertex 12 6 0
vertex 11.706339097770922 7.854101966249685 250
vertex 12 6 250
endloop
endfacet
facet normal 0 0 -1
outer loop
vertex 6 6 0
vertex 10.854101966249685 9.526711513754838 0
vertex 11.706339097770922 7.854101966249685 0
endloop
endfacet
facet normal 0 0 1
outer loop
vertex 6 6 250
vertex 11.706339097770922 7.854101966249685 250
vertex 10.854101966249685 9.526711513754838 250
endloop
endfacet
facet normal 0.8910065241883677 0.453990499739547 0
outer loop
vertex 11.706339097770922 7.854101966249685 0
vertex 10.854101966249685 9.526711513754838 0
vertex 10.854101966249685 9.526711513754838 250
endloop
endfacet
facet normal 0.8910065241883677 0.453990499739547 0
outer loop
vertex 11.706339097770922 7.854101966249685 0
vertex 10.854101966249685 9.526711513754838 250
vertex 11.706339097770922 7.854101966249685 250
endloop
endfacet
facet normal 0 0 -1
outer loop
vertex 6 6 0
vertex 9.526711513754838 10.854101966249685 0
vertex 10.854101966249685 9.526711513754838 0
endloop
endfacet
facet normal 0 0 1
outer loop
vertex 6 6 250
vertex 10.854101966249685 9.526711513754838 250
vertex 9.526711513754838 10.854101966249685 250
endloop
endfacet
facet normal 0.7071067811865475 0.7071067811865475 0
outer loop
vertex 10.854101966249685 9.526711513754838 0
vertex 9.526711513754838 10.854101966249685 0
vertex 9.526711513754838 10.854101966249685 250
endloop
endfacet
facet normal 0.7071067811865475 0.7071067811865475 0
outer loop
vertex 10.854101966249685 9.526711513754838 0
vertex 9.526711513754838 10.854101966249685 250
vertex 10.854101966249685 9.526711513754838 250
endloop
endfacet
facet normal 0 0 -1
outer loop
vertex 6 6 0
vertex 7.854101966249685 11.706339097770922 0
vertex 9.526711513754838 10.854101966249685 0
endloop
endfacet
facet normal 0 0 1
outer loop
vertex 6 6 250
vertex 9.526711513754838 10.854101966249685 250
vertex 7.854101966249685 11.706339097770922 250
endloop
endfacet
facet normal 0.453990499739547 0.8910065241883677 0
outer loop
vertex 9.526711513754838 10.854101966249685 0
vertex 7.854101966249685 11.706339097770922 0
vertex 7.854101966249685 11.706339097770922 250
endloop
endfacet
facet normal 0.453990499739547 0.8910065241883677 0
outer loop
vertex 9.526711513754838 10.854101966249685 0
vertex 7.854101966249685 11.706339097770922 250
vertex 9.526711513754838 10.854101966249685 250
endloop
endfacet
facet normal 0 0 -1
outer loop
vertex 6 6 0
vertex 6 12 0
vertex 7.854101966249685 11.706339097770922 0
endloop
endfacet
facet normal 0 0 1
outer loop
vertex 6 6 250
vertex 7.854101966249685 11.706339097770922 250
vertex 6 12 250
endloop
endfacet
facet normal 0.15643446504023065 0.9876883405951379 0
outer loop
vertex 7.854101966249685 11.706339097770922 0
vertex 6 12 0
vertex 6 12 250
endloop
endfacet
facet normal 0.15643446504023065 0.9876883405951379 0
outer loop
vertex 7.854101966249685 11.706339097770922 0
vertex 6 12 250
vertex 7.854101966249685 11.706339097770922 250
endloop
endfacet
facet normal 0 0 -1
outer loop
vertex 6 6 0
vertex 4.145898033750316 11.706339097770922 0
vertex 6 12 0
endloop
endfacet
facet normal 0 0 1
outer loop
vertex 6 6 250
vertex 6 12 250
vertex 4.145898033750316 11.706339097770922 250
endloop
endfacet
facet normal -0.15643446504023073 0.9876883405951379 0
outer loop
vertex 6 12 0
vertex 4.145898033750316 11.706339097770922 0
vertex 4.145898033750316 11.706339097770922 250
endloop
endfacet
facet normal -0.15643446504023073 0.9876883405951379 0
outer loop
vertex 6 12 0
vertex 4.145898033750316 11.706339097770922 250
vertex 6 12 250
endloop
endfacet
facet normal 0 0 -1
outer loop
vertex 6 6 0
vertex 2.4732884862451616 10.854101966249685 0
vertex 4.145898033750316 11.706339097770922 0
endloop
endfacet
facet normal 0 0 1
outer loop
vertex 6 6 250
vertex 4.145898033750316 11.706339097770922 250
vertex 2.4732884862451616 10.854101966249685 250
endloop
endfacet
facet normal -0.45399049973954686 0.8910065241883679 0
outer loop
vertex 4.145898033750316 11.706339097770922 0
vertex 2.4732884862451616 10.854101966249685 0
vertex 2.4732884862451616 10.854101966249685 250
endloop
endfacet
facet normal -0.45399049973954686 0.8910065241883679 0
outer loop
vertex 4.145898033750316 11.706339097770922 0
vertex 2.4732884862451616 10.854101966249685 250
vertex 4.145898033750316 11.706339097770922 250
endloop
endfacet
facet normal 0 0 -1
outer loop
vertex 6 6 0
vertex 1.1458980337503162 9.52671151375484 0
vertex 2.4732884862451616 10.854101966249685 0
endloop
endfacet
facet normal 0 0 1
outer loop
vertex 6 6 250
vertex 2.4732884862451616 10.854101966249685 250
vertex 1.1458980337503162 9.52671151375484 250
endloop
endfacet
facet normal -0.7071067811865474 0.7071067811865478 0
outer loop
vertex 2.4732884862451616 10.854101966249685 0
vertex 1.1458980337503162 9.52671151375484 0
vertex 1.1458980337503162 9.52671151375484 250
endloop
endfacet
facet normal -0.7071067811865474 0.7071067811865478 0
outer loop
vertex 2.4732884862451616 10.854101966249685 0
vertex 1.1458980337503162 9.52671151375484 250
vertex 2.4732884862451616 10.854101966249685 250
endloop
endfacet
facet normal 0 0 -1
outer loop
vertex 6 6 0
vertex 0.29366090222907903 7.854101966249685 0
vertex 1.1458980337503162 9.52671151375484 0
endloop
endfacet
facet normal 0 0 1
outer loop
vertex 6 6 250
vertex 1.1458980337503162 9.52671151375484 250
vertex 0.29366090222907903 7.854101966249685 250
endloop
endfacet
facet normal -0.8910065241883679 0.45399049973954664 0
outer loop
vertex 1.1458980337503162 9.52671151375484 0
vertex 0.29366090222907903 7.854101966249685 0
vertex 0.29366090222907903 7.854101966249685 250
endloop
endfacet
facet normal -0.8910065241883679 0.45399049973954664 0
outer loop
vertex 1.1458980337503162 9.52671151375484 0
vertex 0.29366090222907903 7.854101966249685 250
vertex 1.1458980337503162 9.52671151375484 250
endloop
endfacet
facet normal 0 0 -1
outer loop
vertex 6 6 0
vertex 0 6.000000000000001 0
vertex 0.29366090222907903 7.854101966249685 0
endloop
endfacet
facet normal 0 0 1
outer loop
vertex 6 6 250
vertex 0.29366090222907903 7.854101966249685 250
vertex 0 6.000000000000001 250
endloop
endfacet
facet normal -0.9876883405951375 0.15643446504023117 0
outer loop
vertex 0.29366090222907903 7.854101966249685 0
vertex 0 6.000000000000001 0
vertex 0 6.000000000000001 250
endloop
endfacet
facet normal -0.9876883405951375 0.15643446504023117 0
outer loop
vertex 0.29366090222907903 7.854101966249685 0
vertex 0 6.000000000000001 250
vertex 0.29366090222907903 7.854101966249685 250
endloop
endfacet
facet normal 0 0 -1
outer loop
vertex 6 6 0
vertex 0.29366090222907726 4.145898033750319 0
vertex 0 6.000000000000001 0
endloop
endfacet
facet normal 0 0 1
outer loop
vertex 6 6 250
vertex 0 6.000000000000001 250
vertex 0.29366090222907726 4.145898033750319 250
endloop
endfacet
facet normal -0.9876883405951378 -0.1564344650402304 0
outer loop
vertex 0 6.000000000000001 0
vertex 0.29366090222907726 4.145898033750319 0
vertex 0.29366090222907726 4.145898033750319 250
endloop
endfacet
facet normal -0.9876883405951378 -0.1564344650402304 0
outer loop
vertex 0 6.000000000000001 0
vertex 0.29366090222907726 4.145898033750319 250
vertex 0 6.000000000000001 250
endloop
endfacet
facet normal 0 0 -1
outer loop
vertex 6 6 0
vertex 1.1458980337503153 2.4732884862451616 0
vertex 0.29366090222907726 4.145898033750319 0
endloop
endfacet
facet normal 0 0 1
outer loop
vertex 6 6 250
vertex 0.29366090222907726 4.145898033750319 250
vertex 1.1458980337503153 2.4732884862451616 250
endloop
endfacet
facet normal -0.8910065241883679 -0.4539904997395466 0
outer loop
vertex 0.29366090222907726 4.145898033750319 0
vertex 1.1458980337503153 2.4732884862451616 0
vertex 1.1458980337503153 2.4732884862451616 250
endloop
endfacet
facet normal -0.8910065241883679 -0.4539904997395466 0
outer loop
vertex 0.29366090222907726 4.145898033750319 0
vertex 1.1458980337503153 2.4732884862451616 250
vertex 0.29366090222907726 4.145898033750319 250
endloop
endfacet
facet normal 0 0 -1
outer loop
vertex 6 6 0
vertex 2.4732884862451607 1.1458980337503162 0
vertex 1.1458980337503153 2.4732884862451616 0
endloop
endfacet
facet normal 0 0 1
outer loop
vertex 6 6 250
vertex 1.1458980337503153 2.4732884862451616 250
vertex 2.4732884862451607 1.1458980337503162 250
endloop
endfacet
facet normal -0.7071067811865475 -0.7071067811865475 0
outer loop
vertex 1.1458980337503153 2.4732884862451616 0
vertex 2.4732884862451607 1.1458980337503162 0
vertex 2.4732884862451607 1.1458980337503162 250
endloop
endfacet
facet normal -0.7071067811865475 -0.7071067811865475 0
outer loop
vertex 1.1458980337503153 2.4732884862451616 0
vertex 2.4732884862451607 1.1458980337503162 250
vertex 1.1458980337503153 2.4732884862451616 250
endloop
endfacet
facet normal 0 0 -1
outer loop
vertex 6 6 0
vertex 4.145898033750314 0.29366090222907903 0
vertex 2.4732884862451607 1.1458980337503162 0
endloop
endfacet
facet normal 0 0 1
outer loop
vertex 6 6 250
vertex 2.4732884862451607 1.1458980337503162 250
vertex 4.145898033750314 0.29366090222907903 250
endloop
endfacet
facet normal -0.453990499739547 -0.8910065241883677 0
outer loop
vertex 2.4732884862451607 1.1458980337503162 0
vertex 4.145898033750314 0.29366090222907903 0
vertex 4.145898033750314 0.29366090222907903 250
endloop
endfacet
facet normal -0.453990499739547 -0.8910065241883677 0
outer loop
vertex 2.4732884862451607 1.1458980337503162 0
vertex 4.145898033750314 0.29366090222907903 250
vertex 2.4732884862451607 1.1458980337503162 250
endloop
endfacet
facet normal 0 0 -1
outer loop
vertex 6 6 0
vertex 5.999999999999999 0 0
vertex 4.145898033750314 0.29366090222907903 0
endloop
endfacet
facet normal 0 0 1
outer loop
vertex 6 6 250
vertex 4.145898033750314 0.29366090222907903 250
vertex 5.999999999999999 0 250
endloop
endfacet
facet normal -0.1564344650402311 -0.9876883405951375 0
outer loop
vertex 4.145898033750314 0.29366090222907903 0
vertex 5.999999999999999 0 0
vertex 5.999999999999999 0 250
endloop
endfacet
facet normal -0.1564344650402311 -0.9876883405951375 0
outer loop
vertex 4.145898033750314 0.29366090222907903 0
vertex 5.999999999999999 0 250
vertex 4.145898033750314 0.29366090222907903 250
endloop
endfacet
facet normal 0 0 -1
outer loop
vertex 6 6 0
vertex 7.854101966249683 0.29366090222907815 0
vertex 5.999999999999999 0 0
endloop
endfacet
facet normal 0 0 1
outer loop
vertex 6 6 250
vertex 5.999999999999999 0 250
vertex 7.854101966249683 0.29366090222907815 250
endloop
endfacet
facet normal 0.15643446504023073 -0.9876883405951379 0
outer loop
vertex 5.999999999999999 0 0
vertex 7.854101966249683 0.29366090222907815 0
vertex 7.854101966249683 0.29366090222907815 250
endloop
endfacet
facet normal 0.15643446504023073 -0.9876883405951379 0
outer loop
vertex 5.999999999999999 0 0
vertex 7.854101966249683 0.29366090222907815 250
vertex 5.999999999999999 0 250
endloop
endfacet
facet normal 0 0 -1
outer loop
vertex 6 6 0
vertex 9.526711513754837 1.1458980337503144 0
vertex 7.854101966249683 0.29366090222907815 0
endloop
endfacet
facet normal 0 0 1
outer loop
vertex 6 6 250
vertex 7.854101966249683 0.29366090222907815 250
vertex 9.526711513754837 1.1458980337503144 250
endloop
endfacet
facet normal 0.45399049973954664 -0.8910065241883679 0
outer loop
vertex 7.854101966249683 0.29366090222907815 0
vertex 9.526711513754837 1.1458980337503144 0
vertex 9.526711513754837 1.1458980337503144 250
endloop
endfacet
facet normal 0.45399049973954664 -0.8910065241883679 0
outer loop
vertex 7.854101966249683 0.29366090222907815 0
vertex 9.526711513754837 1.1458980337503144 250
vertex 7.854101966249683 0.29366090222907815 250
endloop
endfacet
facet normal 0 0 -1
outer loop
vertex 6 6 0
vertex 10.854101966249683 2.47328848624516 0
vertex 9.526711513754837 1.1458980337503144 0
endloop
endfacet
facet normal 0 0 1
outer loop
vertex 6 6 250
vertex 9.526711513754837 1.1458980337503144 250
vertex 10.854101966249683 2.47328848624516 250
endloop
endfacet
facet normal 0.7071067811865474 -0.7071067811865478 0
outer loop
vertex 9.526711513754837 1.1458980337503144 0
vertex 10.854101966249683 2.47328848624516 0
vertex 10.854101966249683 2.47328848624516 250
endloop
endfacet
facet normal 0.7071067811865474 -0.7071067811865478 0
outer loop
vertex 9.526711513754837 1.1458980337503144 0
vertex 10.854101966249683 2.47328848624516 250
vertex 9.526711513754837 1.1458980337503144 250
endloop
endfacet
facet normal 0 0 -1
outer loop
vertex 6 6 0
vertex 11.706339097770922 4.145898033750314 0
vertex 10.854101966249683 2.47328848624516 0
endloop
endfacet
facet normal 0 0 1
outer loop
vertex 6 6 250
vertex 10.854101966249683 2.47328848624516 250
vertex 11.706339097770922 4.145898033750314 250
endloop
endfacet
facet normal 0.8910065241883676 -0.4539904997395476 0
outer loop
vertex 10.854101966249683 2.47328848624516 0
vertex 11.706339097770922 4.145898033750314 0
vertex 11.706339097770922 4.145898033750314 250
endloop
endfacet
facet normal 0.8910065241883676 -0.4539904997395476 0
outer loop
vertex 10.854101966249683 2.47328848624516 0
vertex 11.706339097770922 4.145898033750314 250
vertex 10.854101966249683 2.47328848624516 250
endloop
endfacet
facet normal 0 0 -1
outer loop
vertex 6 6 0
vertex 12 6 0
vertex 11.706339097770922 4.145898033750314 0
endloop
endfacet
facet normal 0 0 1
outer loop
vertex 6 6 250
vertex 11.706339097770922 4.145898033750314 250
vertex 12 6 250
endloop
endfacet
facet normal 0.9876883405951379 -0.15643446504023056 0
outer loop
vertex 11.706339097770922 4.145898033750314 0
vertex 12 6 0
vertex 12 6 250
endloop
endfacet
facet normal 0.9876883405951379 -0.15643446504023056 0
outer loop
vertex 11.706339097770922 4.145898033750314 0
vertex 12 6 250
vertex 11.706339097770922 4.145898033750314 250
endloop
endfacet
endsolid 07_yellow_column_3
