solid 09_billboard_join_plate_2
facet normal 0 0 -1
outer loop
vertex 0 0 0
vertex 44 38 0
vertex 44 0 0
endloop
endfacet
facet normal 0 0 -1
outer loop
vertex 0 0 0
vertex 0 38 0
vertex 44 38 0
endloop
endfacet
facet normal 0 0 1
outer loop
vertex 0 0 3
vertex 44 0 3
vertex 44 38 3
endloop
endfacet
facet normal 0 0 1
outer loop
vertex 0 0 3
vertex 44 38 3
vertex 0 38 3
endloop
endfacet
facet normal 0 -1 0
outer loop
vertex 0 0 0
vertex 44 0 0
vertex 44 0 3
endloop
endfacet
facet normal 0 -1 0
outer loop
vertex 0 0 0
vertex 44 0 3
vertex 0 0 3
endloop
endfacet
facet normal 1 0 0
outer loop
vertex 44 0 0
vertex 44 38 0
vertex 44 38 3
endloop
endfacet
facet normal 1 0 0
outer loop
vertex 44 0 0
vertex 44 38 3
vertex 44 0 3
endloop
endfacet
facet normal 0 1 0
outer loop
vertex 44 38 0
vertex 0 38 0
vertex 0 38 3
endloop
endfacet
facet normal 0 1 0
outer loop
vertex 44 38 0
vertex 0 38 3
vertex 44 38 3
endloop
endfacet
facet normal -1 0 0
outer loop
vertex 0 38 0
vertex 0 0 0
vertex 0 0 3
endloop
endfacet
facet normal -1 0 0
outer loop
vertex 0 38 0
vertex 0 0 3
vertex 0 38 3
endloop
endfacet
endsolid 09_billboard_join_plate_2
