solid 10_billboard_post_2
facet normal 0 0 -1
outer loop
vertex 6 6 0
vertex 11.706339097770922 7.854101966249685 0
vertex 12 6 0
endloop
endfacet
facet normal 0 0 1
outer loop
vertex 6 6 120
vertex 12 6 120
vertex 11.706339097770922 7.854101966249685 120
endloop
endfacet
facet normal 0.9876883405951378 0.15643446504023065 0
outer loop
vertex 12 6 0
vertex 11.706339097770922 7.854101966249685 0
vertex 11.706339097770922 7.854101966249685 120
endloop
endfacet
facet normal 0.9876883405951378 0.15643446504023065 0
outer loop
vertex 12 6 0
vertex 11.706339097770922 7.854101966249685 120
vertex 12 6 120
endloop
endfacet
facet normal 0 0 -1
outer loop
vertex 6 6 0
vertex 10.854101966249685 9.526711513754838 0
vertex 11.706339097770922 7.854101966249685 0
endloop
endfacet
facet normal 0 0 1
outer loop
vertex 6 6 120
vertex 11.706339097770922 7.854101966249685 120
vertex 10.854101966249685 9.526711513754838 120
endloop
endfacet
facet normal 0.8910065241883678 0.453990499739547 0
outer loop
vertex 11.706339097770922 7.854101966249685 0
vertex 10.854101966249685 9.526711513754838 0
vertex 10.854101966249685 9.526711513754838 120
endloop
endfacet
facet normal 0.8910065241883678 0.453990499739547 0
outer loop
vertex 11.706339097770922 7.854101966249685 0
vertex 10.854101966249685 9.526711513754838 120
vertex 11.706339097770922 7.854101966249685 120
endloop
endfacet
facet normal 0 0 -1
outer loop
vertex 6 6 0
vertex 9.526711513754838 10.854101966249685 0
vertex 10.854101966249685 9.526711513754838 0
endloop
endfacet
facet normal 0 0 1
outer loop
vertex 6 6 120
vertex 10.854101966249685 9.526711513754838 120
vertex 9.526711513754838 10.854101966249685 120
endloop
endfacet
facet normal 0.7071067811865475 0.7071067811865475 0
outer loop
vertex 10.854101966249685 9.526711513754838 0
vertex 9.526711513754838 10.854101966249685 0
vertex 9.526711513754838 10.854101966249685 120
endloop
endfacet
facet normal 0.7071067811865475 0.7071067811865475 0
outer loop
vertex 10.854101966249685 9.526711513754838 0
vertex 9.526711513754838 10.854101966249685 120
vertex 10.854101966249685 9.526711513754838 120
endloop
endfacet
facet normal 0 0 -1
outer loop
vertex 6 6 0
vertex 7.854101966249685 11.706339097770922 0
vertex 9.526711513754838 10.854101966249685 0
endloop
endfacet
facet normal 0 0 1
outer loop
vertex 6 6 120
vertex 9.526711513754838 10.854101966249685 120
vertex 7.854101966249685 11.706339097770922 120
endloop
endfacet
facet normal 0.453990499739547 0.8910065241883678 0
outer loop
vertex 9.526711513754838 10.854101966249685 0
vertex 7.854101966249685 11.706339097770922 0
vertex 7.854101966249685 11.706339097770922 120
endloop
endfacet
facet normal 0.453990499739547 0.8910065241883678 0
outer loop
vertex 9.526711513754838 10.854101966249685 0
vertex 7.854101966249685 11.706339097770922 120
vertex 9.526711513754838 10.854101966249685 120
endloop
endfacet
facet normal 0 0 -1
outer loop
vertex 6 6 0
vertex 6 12 0
vertex 7.854101966249685 11.706339097770922 0
endloop
endfacet
facet normal 0 0 1
outer loop
vertex 6 6 120
vertex 7.854101966249685 11.706339097770922 120
vertex 6 12 120
endloop
endfacet
facet normal 0.15643446504023065 0.9876883405951378 0
outer loop
vertex 7.854101966249685 11.706339097770922 0
vertex 6 12 0
vertex 6 12 120
endloop
endfacet
facet normal 0.15643446504023065 0.9876883405951378 0
outer loop
vertex 7.854101966249685 11.706339097770922 0
vertex 6 12 120
vertex 7.854101966249685 11.706339097770922 120
endloop
endfacet
facet normal 0 0 -1
outer loop
vertex 6 6 0
vertex 4.145898033750316 11.706339097770922 0
vertex 6 12 0
endloop
endfacet
facet normal 0 0 1
outer loop
vertex 6 6 120
vertex 6 12 120
vertex 4.145898033750316 11.706339097770922 120
endloop
endfacet
facet normal -0.1564344650402307 0.9876883405951378 0
outer loop
vertex 6 12 0
vertex 4.145898033750316 11.706339097770922 0
vertex 4.145898033750316 11.706339097770922 120
endloop
endfacet
facet normal -0.1564344650402307 0.9876883405951378 0
outer loop
vertex 6 12 0
vertex 4.145898033750316 11.706339097770922 120
vertex 6 12 120
endloop
endfacet
facet normal 0 0 -1
outer loop
vertex 6 6 0
vertex 2.4732884862451616 10.854101966249685 0
vertex 4.145898033750316 11.706339097770922 0
endloop
endfacet
facet normal 0 0 1
outer loop
vertex 6 6 120
vertex 4.145898033750316 11.706339097770922 120
vertex 2.4732884862451616 10.854101966249685 120
endloop
endfacet
facet normal -0.45399049973954686 0.8910065241883679 0
outer loop
vertex 4.145898033750316 11.706339097770922 0
vertex 2.4732884862451616 10.854101966249685 0
vertex 2.4732884862451616 10.854101966249685 120
endloop
endfacet
facet normal -0.45399049973954686 0.8910065241883679 0
outer loop
vertex 4.145898033750316 11.706339097770922 0
vertex 2.4732884862451616 10.854101966249685 120
vertex 4.145898033750316 11.706339097770922 120
endloop
endfacet
facet normal 0 0 -1
outer loop
vertex 6 6 0
vertex 1.1458980337503162 9.52671151375484 0
vertex 2.4732884862451616 10.854101966249685 0
endloop
endfacet
facet normal 0 0 1
outer loop
vertex 6 6 120
vertex 2.4732884862451616 10.854101966249685 120
vertex 1.1458980337503162 9.52671151375484 120
endloop
endfacet
facet normal -0.7071067811865474 0.7071067811865478 0
outer loop
vertex 2.4732884862451616 10.854101966249685 0
vertex 1.1458980337503162 9.52671151375484 0
vertex 1.1458980337503162 9.52671151375484 120
endloop
endfacet
facet normal -0.7071067811865474 0.7071067811865478 0
outer loop
vertex 2.4732884862451616 10.854101966249685 0
vertex 1.1458980337503162 9.52671151375484 120
vertex 2.4732884862451616 10.854101966249685 120
endloop
endfacet
facet normal 0 0 -1
outer loop
vertex 6 6 0
vertex 0.29366090222907903 7.854101966249685 0
vertex 1.1458980337503162 9.52671151375484 0
endloop
endfacet
facet normal 0 0 1
outer loop
vertex 6 6 120
vertex 1.1458980337503162 9.52671151375484 120
vertex 0.29366090222907903 7.854101966249685 120
endloop
endfacet
facet normal -0.8910065241883679 0.4539904997395466 0
outer loop
vertex 1.1458980337503162 9.52671151375484 0
vertex 0.29366090222907903 7.854101966249685 0
vertex 0.29366090222907903 7.854101966249685 120
endloop
endfacet
facet normal -0.8910065241883679 0.4539904997395466 0
outer loop
vertex 1.1458980337503162 9.52671151375484 0
vertex 0.29366090222907903 7.854101966249685 120
vertex 1.1458980337503162 9.52671151375484 120
endloop
endfacet
facet normal 0 0 -1
outer loop
vertex 6 6 0
vertex 0 6.000000000000001 0
vertex 0.29366090222907903 7.854101966249685 0
endloop
endfacet
facet normal 0 0 1
outer loop
vertex 6 6 120
vertex 0.29366090222907903 7.854101966249685 120
vertex 0 6.000000000000001 120
endloop
endfacet
facet normal -0.9876883405951375 0.15643446504023115 0
outer loop
vertex 0.29366090222907903 7.854101966249685 0
vertex 0 6.000000000000001 0
vertex 0 6.000000000000001 120
endloop
endfacet
facet normal -0.9876883405951375 0.15643446504023115 0
outer loop
vertex 0.29366090222907903 7.854101966249685 0
vertex 0 6.000000000000001 120
vertex 0.29366090222907903 7.854101966249685 120
endloop
endfacet
facet normal 0 0 -1
outer loop
vertex 6 6 0
vertex 0.29366090222907726 4.145898033750319 0
vertex 0 6.000000000000001 0
endloop
endfacet
facet normal 0 0 1
outer loop
vertex 6 6 120
vertex 0 6.000000000000001 120
vertex 0.29366090222907726 4.145898033750319 120
endloop
endfacet
facet normal -0.9876883405951378 -0.1564344650402304 0
outer loop
vertex 0 6.000000000000001 0
vertex 0.29366090222907726 4.145898033750319 0
vertex 0.29366090222907726 4.145898033750319 120
endloop
endfacet
facet normal -0.9876883405951378 -0.1564344650402304 0
outer loop
vertex 0 6.000000000000001 0
vertex 0.29366090222907726 4.145898033750319 120
vertex 0 6.000000000000001 120
endloop
endfacet
facet normal 0 0 -1
outer loop
vertex 6 6 0
vertex 1.1458980337503153 2.4732884862451616 0
vertex 0.29366090222907726 4.145898033750319 0
endloop
endfacet
facet normal 0 0 1
outer loop
vertex 6 6 120
vertex 0.29366090222907726 4.145898033750319 120
vertex 1.1458980337503153 2.4732884862451616 120
endloop
endfacet
facet normal -0.8910065241883678 -0.4539904997395465 0
outer loop
vertex 0.29366090222907726 4.145898033750319 0
vertex 1.1458980337503153 2.4732884862451616 0
vertex 1.1458980337503153 2.4732884862451616 120
endloop
endfacet
facet normal -0.8910065241883678 -0.4539904997395465 0
outer loop
vertex 0.29366090222907726 4.145898033750319 0
vertex 1.1458980337503153 2.4732884862451616 120
vertex 0.29366090222907726 4.145898033750319 120
endloop
endfacet
facet normal 0 0 -1
outer loop
vertex 6 6 0
vertex 2.4732884862451607 1.1458980337503162 0
vertex 1.1458980337503153 2.4732884862451616 0
endloop
endfacet
facet normal 0 0 1
outer loop
vertex 6 6 120
vertex 1.1458980337503153 2.4732884862451616 120
vertex 2.4732884862451607 1.1458980337503162 120
endloop
endfacet
facet normal -0.7071067811865475 -0.7071067811865475 0
outer loop
vertex 1.1458980337503153 2.4732884862451616 0
vertex 2.4732884862451607 1.1458980337503162 0
vertex 2.4732884862451607 1.1458980337503162 120
endloop
endfacet
facet normal -0.7071067811865475 -0.7071067811865475 0
outer loop
vertex 1.1458980337503153 2.4732884862451616 0
vertex 2.4732884862451607 1.1458980337503162 120
vertex 1.1458980337503153 2.4732884862451616 120
endloop
endfacet
facet normal 0 0 -1
outer loop
vertex 6 6 0
vertex 4.145898033750314 0.29366090222907903 0
vertex 2.4732884862451607 1.1458980337503162 0
endloop
endfacet
facet normal 0 0 1
outer loop
vertex 6 6 120
vertex 2.4732884862451607 1.1458980337503162 120
vertex 4.145898033750314 0.29366090222907903 120
endloop
endfacet
facet normal -0.453990499739547 -0.8910065241883678 0
outer loop
vertex 2.4732884862451607 1.1458980337503162 0
vertex 4.145898033750314 0.29366090222907903 0
vertex 4.145898033750314 0.29366090222907903 120
endloop
endfacet
facet normal -0.453990499739547 -0.8910065241883678 0
outer loop
vertex 2.4732884862451607 1.1458980337503162 0
vertex 4.145898033750314 0.29366090222907903 120
vertex 2.4732884862451607 1.1458980337503162 120
endloop
endfacet
facet normal 0 0 -1
outer loop
vertex 6 6 0
vertex 5.999999999999999 0 0
vertex 4.145898033750314 0.29366090222907903 0
endloop
endfacet
facet normal 0 0 1
outer loop
vertex 6 6 120
vertex 4.145898033750314 0.29366090222907903 120
vertex 5.999999999999999 0 120
endloop
endfacet
facet normal -0.1564344650402311 -0.9876883405951375 0
outer loop
vertex 4.145898033750314 0.29366090222907903 0
vertex 5.999999999999999 0 0
vertex 5.999999999999999 0 120
endloop
endfacet
facet normal -0.1564344650402311 -0.9876883405951375 0
outer loop
vertex 4.145898033750314 0.29366090222907903 0
vertex 5.999999999999999 0 120
vertex 4.145898033750314 0.29366090222907903 120
endloop
endfacet
facet normal 0 0 -1
outer loop
vertex 6 6 0
vertex 7.854101966249683 0.29366090222907815 0
vertex 5.999999999999999 0 0
endloop
endfacet
facet normal 0 0 1
outer loop
vertex 6 6 120
vertex 5.999999999999999 0 120
vertex 7.854101966249683 0.29366090222907815 120
endloop
endfacet
facet normal 0.1564344650402307 -0.9876883405951378 0
outer loop
vertex 5.999999999999999 0 0
vertex 7.854101966249683 0.29366090222907815 0
vertex 7.854101966249683 0.29366090222907815 120
endloop
endfacet
facet normal 0.1564344650402307 -0.9876883405951378 0
outer loop
vertex 5.999999999999999 0 0
vertex 7.854101966249683 0.29366090222907815 120
vertex 5.999999999999999 0 120
endloop
endfacet
facet normal 0 0 -1
outer loop
vertex 6 6 0
vertex 9.526711513754837 1.1458980337503144 0
vertex 7.854101966249683 0.29366090222907815 0
endloop
endfacet
facet normal 0 0 1
outer loop
vertex 6 6 120
vertex 7.854101966249683 0.29366090222907815 120
vertex 9.526711513754837 1.1458980337503144 120
endloop
endfacet
facet normal 0.45399049973954664 -0.8910065241883679 0
outer loop
vertex 7.854101966249683 0.29366090222907815 0
vertex 9.526711513754837 1.1458980337503144 0
vertex 9.526711513754837 1.1458980337503144 120
endloop
endfacet
facet normal 0.45399049973954664 -0.8910065241883679 0
outer loop
vertex 7.854101966249683 0.29366090222907815 0
vertex 9.526711513754837 1.1458980337503144 120
vertex 7.854101966249683 0.29366090222907815 120
endloop
endfacet
facet normal 0 0 -1
outer loop
vertex 6 6 0
vertex 10.854101966249683 2.47328848624516 0
vertex 9.526711513754837 1.1458980337503144 0
endloop
endfacet
facet normal 0 0 1
outer loop
vertex 6 6 120
vertex 9.526711513754837 1.1458980337503144 120
vertex 10.854101966249683 2.47328848624516 120
endloop
endfacet
facet normal 0.7071067811865472 -0.7071067811865478 0
outer loop
vertex 9.526711513754837 1.1458980337503144 0
vertex 10.854101966249683 2.47328848624516 0
vertex 10.854101966249683 2.47328848624516 120
endloop
endfacet
facet normal 0.7071067811865472 -0.7071067811865478 0
outer loop
vertex 9.526711513754837 1.1458980337503144 0
vertex 10.854101966249683 2.47328848624516 120
vertex 9.526711513754837 1.1458980337503144 120
endloop
endfacet
facet normal 0 0 -1
outer loop
vertex 6 6 0
vertex 11.706339097770922 4.145898033750314 0
vertex 10.854101966249683 2.47328848624516 0
endloop
endfacet
facet normal 0 0 1
outer loop
vertex 6 6 120
vertex 10.854101966249683 2.47328848624516 120
vertex 11.706339097770922 4.145898033750314 120
endloop
endfacet
facet normal 0.8910065241883676 -0.45399049973954764 0
outer loop
vertex 10.854101966249683 2.47328848624516 0
vertex 11.706339097770922 4.145898033750314 0
vertex 11.706339097770922 4.145898033750314 120
endloop
endfacet
facet normal 0.8910065241883676 -0.45399049973954764 0
outer loop
vertex 10.854101966249683 2.47328848624516 0
vertex 11.706339097770922 4.145898033750314 120
vertex 10.854101966249683 2.47328848624516 120
endloop
endfacet
facet normal 0 0 -1
outer loop
vertex 6 6 0
vertex 12 6 0
vertex 11.706339097770922 4.145898033750314 0
endloop
endfacet
facet normal 0 0 1
outer loop
vertex 6 6 120
vertex 11.706339097770922 4.145898033750314 120
vertex 12 6 120
endloop
endfacet
facet normal 0.9876883405951378 -0.15643446504023056 0
outer loop
vertex 11.706339097770922 4.145898033750314 0
vertex 12 6 0
vertex 12 6 120
endloop
endfacet
facet normal 0.9876883405951378 -0.15643446504023056 0
outer loop
vertex 11.706339097770922 4.145898033750314 0
vertex 12 6 120
vertex 11.706339097770922 4.145898033750314 120
endloop
endfacet
endsolid 10_billboard_post_2
